<svg width="640" height="800" viewBox="0 0 640 800" fill="none" xmlns="http://www.w3.org/2000/svg">
  <defs>
    <linearGradient id="dropletGradient" x1="320" y1="68" x2="320" y2="760" gradientUnits="userSpaceOnUse">
      <stop offset="0" stop-color="#F8EDF6" />
      <stop offset="0.35" stop-color="#F7C8DA" />
      <stop offset="1" stop-color="#DA6D7A" />
    </linearGradient>
    <linearGradient id="bottleShine" x1="320" y1="180" x2="320" y2="640" gradientUnits="userSpaceOnUse">
      <stop offset="0" stop-color="#FFFFFF" stop-opacity="0.85" />
      <stop offset="0.4" stop-color="#FFFFFF" stop-opacity="0.2" />
      <stop offset="1" stop-color="#FFFFFF" stop-opacity="0" />
    </linearGradient>
    <radialGradient id="glow" cx="0" cy="0" r="1" gradientUnits="userSpaceOnUse" gradientTransform="translate(320 620) rotate(90) scale(220 260)">
      <stop stop-color="#FCEEF6" stop-opacity="0.75" />
      <stop offset="1" stop-color="#FDE9F1" stop-opacity="0" />
    </radialGradient>
  </defs>
  <g filter="url(#shadow)">
    <path d="M320 60C320 60 162 268 162 430C162 566 234 740 320 740C406 740 478 566 478 430C478 268 320 60 320 60Z" fill="url(#dropletGradient)" />
  </g>
  <path d="M320 92C320 92 196 276 196 424C196 542 252 688 320 688C388 688 444 542 444 424C444 276 320 92 320 92Z" fill="url(#bottleShine)" />
  <path d="M256 324C274 248 296 212 320 190C344 212 366 248 384 324C390 348 394 372 396 396C338 380 302 380 244 396C246 372 250 348 256 324Z" fill="#FCE7F0" fill-opacity="0.75" />
  <path d="M234 470C260 452 296 440 320 440C344 440 380 452 406 470C410 494 410 518 404 540C374 520 344 512 320 512C296 512 266 520 236 540C230 518 230 494 234 470Z" fill="#F4CED9" fill-opacity="0.9" />
  <ellipse cx="320" cy="640" rx="180" ry="110" fill="url(#glow)" />
  <path d="M280 200C266 238 246 270 224 300C210 318 206 342 212 366C214 374 220 380 228 382C284 396 320 412 374 430C382 432 390 428 394 420C398 412 400 404 400 396C400 326 342 242 320 208C308 190 288 190 280 200Z" fill="white" fill-opacity="0.3" />
  <path d="M308 140C308 128.954 317.163 120 328.5 120H411.5C422.837 120 432 128.954 432 140V152C432 163.046 422.837 172 411.5 172H328.5C317.163 172 308 163.046 308 152V140Z" fill="#D5767A" />
  <path d="M232 160C232 148.954 241.163 140 252.5 140H307.5C318.837 140 328 148.954 328 160V168C328 179.046 318.837 188 307.5 188H252.5C241.163 188 232 179.046 232 168V160Z" fill="#F2D4DA" />
  <defs>
    <filter id="shadow" x="122" y="20" width="396" height="760" filterUnits="userSpaceOnUse" color-interpolation-filters="sRGB">
      <feFlood flood-opacity="0" result="BackgroundImageFix" />
      <feColorMatrix in="SourceAlpha" type="matrix" values="0 0 0 0 0 0 0 0 0 0 0 0 0 0 0 0 0 0 127 0" result="hardAlpha" />
      <feOffset dy="12" />
      <feGaussianBlur stdDeviation="18" />
      <feComposite in2="hardAlpha" operator="out" />
      <feColorMatrix type="matrix" values="0 0 0 0 0.792157 0 0 0 0 0.396078 0 0 0 0 0.411765 0 0 0 0.35 0" />
      <feBlend mode="normal" in2="BackgroundImageFix" result="effect1_dropShadow" />
      <feBlend mode="normal" in="SourceGraphic" in2="effect1_dropShadow" result="shape" />
    </filter>
  </defs>
</svg>
