<svg width="41" height="40" viewBox="0 0 41 40" fill="none" xmlns="http://www.w3.org/2000/svg">
<g clip-path="url(#clip0_330_192)">
<path d="M15.5002 33.3333C15.9422 33.3333 16.3661 33.5089 16.6787 33.8215C16.9912 34.134 17.1668 34.5579 17.1668 35C17.1668 35.442 16.9912 35.8659 16.6787 36.1785C16.3661 36.491 15.9422 36.6666 15.5002 36.6666C15.0581 36.6666 14.6342 36.491 14.3217 36.1785C14.0091 35.8659 13.8335 35.442 13.8335 35C13.8335 34.5579 14.0091 34.134 14.3217 33.8215C14.6342 33.5089 15.0581 33.3333 15.5002 33.3333ZM27.1668 33.3333C27.6089 33.3333 28.0328 33.5089 28.3454 33.8215C28.6579 34.134 28.8335 34.5579 28.8335 35C28.8335 35.442 28.6579 35.8659 28.3454 36.1785C28.0328 36.491 27.6089 36.6666 27.1668 36.6666C26.7248 36.6666 26.3009 36.491 25.9883 36.1785C25.6758 35.8659 25.5002 35.442 25.5002 35C25.5002 34.5579 25.6758 34.134 25.9883 33.8215C26.3009 33.5089 26.7248 33.3333 27.1668 33.3333ZM4.16684 4.8333C4.41032 4.50859 4.76392 4.28388 5.1613 4.20134C5.55867 4.1188 5.97251 4.18409 6.32517 4.38497L6.50017 4.50163L9.34684 6.63497C9.83127 6.99846 10.2075 7.48706 10.4352 8.0483L10.5352 8.3333H31.9452C32.397 8.33319 32.8442 8.42494 33.2595 8.60298C33.6747 8.78102 34.0495 9.04164 34.361 9.36899C34.6724 9.69634 34.9141 10.0836 35.0712 10.5072C35.2284 10.9309 35.2978 11.382 35.2752 11.8333L35.2535 12.08L34.4918 18.1716C34.2633 20.0048 33.432 21.7101 32.1287 23.0195C30.8254 24.3288 29.124 25.1679 27.2918 25.405L26.9152 25.4433L14.7268 26.46L15.1602 28.3333H29.6668C30.0916 28.3338 30.5002 28.4964 30.8091 28.788C31.118 29.0797 31.3039 29.4782 31.3288 29.9023C31.3537 30.3264 31.2157 30.7439 30.9431 31.0697C30.6704 31.3954 30.2837 31.6048 29.8618 31.655L29.6668 31.6666H15.1602C14.4528 31.6667 13.7638 31.4419 13.1927 31.0245C12.6217 30.6071 12.1982 30.0189 11.9835 29.345L11.9118 29.0833L7.34517 9.29997L4.50017 7.16663C4.14655 6.90142 3.91277 6.50659 3.85025 6.069C3.78774 5.63142 3.90162 5.18692 4.16684 4.8333Z" fill="#F2EECB"/>
<path fill-rule="evenodd" clip-rule="evenodd" d="M22.3674 11.0173C22.2613 11.0416 22.1902 11.0678 22.1269 11.106C22.0962 11.1245 22.0473 11.1461 22.0183 11.1538C21.972 11.1662 21.9558 11.1647 21.8841 11.1413C21.7253 11.0894 21.5925 11.0976 21.4612 11.1673C21.3762 11.2125 21.3396 11.2608 21.2161 11.4904C21.1368 11.6381 21.1081 11.6798 21.0368 11.7517C20.9901 11.7988 20.9093 11.8635 20.8573 11.8956C20.7177 11.9815 20.6179 12.0648 20.5426 12.1585C20.4319 12.2961 20.414 12.3483 20.3881 12.6085C20.37 12.79 20.3386 12.8702 20.1807 13.1384C20.1344 13.217 20.1172 13.3003 20.1168 13.4484C20.1164 13.5831 20.1378 13.6797 20.1959 13.8058C20.2339 13.8881 20.2367 13.9015 20.2324 13.9783C20.2196 14.2105 20.2235 14.2586 20.2628 14.347C20.2948 14.4191 20.3241 14.4559 20.4811 14.6206C20.6258 14.7724 20.6733 14.8307 20.716 14.9084C20.8047 15.0696 20.8759 15.1326 21.0378 15.1928C21.1425 15.2317 21.265 15.2568 21.3535 15.2575C21.4662 15.2583 21.5098 15.2727 21.5897 15.3355C21.6305 15.3675 21.6926 15.4164 21.7277 15.4442C22.0289 15.6821 22.184 15.6943 22.5407 15.508C22.6617 15.4448 22.7704 15.3983 22.8762 15.3644C23.1726 15.2696 23.3186 15.1693 23.5402 14.9082C23.6978 14.7225 23.7129 14.7115 23.7827 14.7313C23.9021 14.7653 23.9958 14.7351 24.0925 14.6316C24.1824 14.5354 24.2212 14.4046 24.23 14.1686C24.2334 14.077 24.2411 13.9673 24.2472 13.9248C24.2668 13.788 24.3246 13.5893 24.3839 13.455C24.4352 13.3388 24.4416 13.3155 24.4413 13.2468C24.441 13.1579 24.4201 13.1008 24.3371 12.9619C24.3076 12.9125 24.2626 12.8259 24.2371 12.7693C24.1964 12.6792 24.1772 12.653 24.0814 12.5572C23.914 12.3896 23.7202 12.2399 23.5253 12.1275C23.3906 12.0498 23.2991 11.9565 23.2442 11.8408C23.1786 11.7028 23.1058 11.6449 22.9632 11.6177C22.8595 11.5979 22.6523 11.5968 22.5726 11.6157C22.5072 11.6311 22.4963 11.6301 22.3473 11.5948C22.155 11.5494 22.037 11.546 21.924 11.5827C21.8063 11.621 21.7606 11.6575 21.6654 11.7897C21.6183 11.8552 21.4787 12.0157 21.3552 12.1466C21.2317 12.2774 21.109 12.4136 21.0826 12.4493C21.0163 12.5389 20.9679 12.6458 20.9205 12.8074C20.8971 12.8873 20.8606 12.9793 20.8334 13.0272C20.8077 13.0726 20.7663 13.1553 20.7414 13.211C20.7018 13.2994 20.696 13.3228 20.696 13.3955C20.696 13.4674 20.702 13.4926 20.74 13.5799C20.7908 13.6965 20.7943 13.7491 20.7571 13.8377C20.6857 14.0073 20.7378 14.1767 20.9035 14.3146C20.9981 14.3933 21.0967 14.4445 21.2107 14.4741C21.3223 14.5032 21.3551 14.5281 21.4318 14.6423C21.5188 14.7716 21.6541 14.8919 21.7523 14.9271C21.816 14.9499 22.0906 14.9776 22.2444 14.9768C22.3394 14.9763 22.3741 14.971 22.4267 14.949C22.521 14.9094 22.6373 14.8222 22.7619 14.6976C22.8694 14.5901 22.8718 14.5885 22.9045 14.6029C22.9235 14.6113 22.9638 14.6153 22.9985 14.6123C23.0658 14.6063 23.1157 14.5716 23.2599 14.4304C23.301 14.39 23.3673 14.3387 23.4073 14.3164C23.5308 14.2471 23.6679 14.0771 23.7208 13.9276C23.7605 13.8154 23.7754 13.7151 23.7824 13.5144C23.786 13.4098 23.7941 13.2884 23.8003 13.2448C23.8136 13.1518 23.7944 13.0495 23.7475 12.9644C23.7059 12.8889 23.5904 12.7741 23.4018 12.6205C23.2983 12.5362 23.1822 12.4273 23.0987 12.3361C22.9796 12.206 22.953 12.1832 22.8773 12.146C22.5831 12.0014 22.317 12.0326 22.0449 12.2436C22.0305 12.2547 21.9921 12.2677 21.9594 12.2724C21.8713 12.2851 21.7683 12.3433 21.6778 12.4314C21.6096 12.4978 21.5882 12.529 21.5347 12.6402C21.4808 12.7523 21.4634 12.7776 21.4128 12.8174C21.3474 12.8687 21.3226 12.9032 21.2982 12.9767C21.2781 13.0374 21.2765 13.1929 21.2947 13.3092C21.3078 13.3933 21.3073 13.3983 21.2723 13.5063C21.2125 13.6909 21.2252 13.8303 21.3117 13.9406C21.4008 14.0542 21.575 14.1508 21.6906 14.1508C21.7503 14.1508 21.8011 14.1731 21.9091 14.2468C22.0308 14.3299 22.0692 14.3446 22.1661 14.3453C22.3039 14.3464 22.4139 14.295 22.587 14.1487C22.6862 14.0648 22.7103 14.0539 22.7746 14.0633C22.8016 14.0672 22.8506 14.0636 22.8834 14.0552C22.9318 14.0429 22.9549 14.0274 23.0061 13.9728C23.0835 13.8906 23.1146 13.8263 23.1592 13.6572C23.2081 13.4716 23.2317 13.3261 23.2223 13.2667C23.2111 13.1949 23.1696 13.1146 23.1195 13.0676C22.9475 12.9066 22.6603 12.6803 22.5928 12.6527C22.5199 12.6229 22.397 12.6202 22.3136 12.6466C22.2495 12.6668 22.0887 12.7663 22.0393 12.8162C21.9936 12.8625 21.8679 13.0573 21.8405 13.1243C21.8048 13.2115 21.7997 13.3543 21.8292 13.4371C21.8762 13.5689 21.9555 13.6338 22.1437 13.6944C22.2295 13.722 22.2693 13.7283 22.3506 13.7272C22.4929 13.7252 22.5411 13.7085 22.6045 13.6388C22.6737 13.5628 22.7046 13.4958 22.7113 13.407C22.7178 13.3203 22.7028 13.2829 22.6352 13.218C22.4959 13.0841 22.343 13.0846 22.2871 13.2192C22.2675 13.2662 22.266 13.2807 22.2769 13.3193C22.2936 13.3784 22.336 13.4133 22.3912 13.4133C22.4502 13.4133 22.4459 13.4338 22.3849 13.4436C22.3455 13.4499 22.3135 13.4438 22.2296 13.414C22.1122 13.3724 22.0878 13.3521 22.0878 13.2958C22.0878 13.249 22.1075 13.2072 22.1785 13.1034C22.2198 13.043 22.2515 13.012 22.3086 12.9761C22.397 12.9205 22.4409 12.9079 22.4848 12.9256C22.5203 12.94 22.651 13.0413 22.7532 13.1336C22.7901 13.167 22.8492 13.217 22.8846 13.2447C22.9199 13.2725 22.9489 13.3044 22.9489 13.3158C22.9489 13.3616 22.8692 13.6691 22.8454 13.715L22.8199 13.7642L22.7139 13.7706C22.5882 13.7781 22.5603 13.7906 22.4422 13.8929C22.2455 14.063 22.1719 14.0852 22.0697 14.0054C21.9682 13.9262 21.8355 13.8666 21.7411 13.8579C21.695 13.8536 21.6431 13.8425 21.6258 13.8333C21.5735 13.8052 21.5063 13.7337 21.5065 13.7063C21.5066 13.6924 21.5217 13.6359 21.5399 13.5808C21.5851 13.4445 21.5897 13.3916 21.568 13.259C21.5437 13.1113 21.5495 13.0825 21.6126 13.0352C21.6683 12.9935 21.7202 12.9141 21.7811 12.7775C21.8139 12.704 21.8342 12.6761 21.8893 12.6287C21.9348 12.5896 21.9714 12.5681 22.0001 12.5636C22.0237 12.5599 22.0629 12.5538 22.0871 12.5501C22.1129 12.546 22.1559 12.524 22.1906 12.4971C22.2906 12.4194 22.3422 12.3891 22.4036 12.3717C22.5176 12.3394 22.6512 12.3559 22.7623 12.4162C22.7858 12.4289 22.8663 12.505 22.9413 12.5853C23.0162 12.6655 23.1378 12.779 23.2115 12.8374C23.3645 12.9585 23.4906 13.0806 23.5154 13.1315C23.5249 13.151 23.5292 13.1775 23.5251 13.1917C23.5212 13.2057 23.5135 13.3214 23.5081 13.449C23.4976 13.6971 23.4879 13.7637 23.4503 13.8489C23.4155 13.9277 23.3257 14.026 23.2488 14.0696C23.2119 14.0905 23.1382 14.1495 23.085 14.2006C23.0317 14.2517 22.9806 14.2933 22.9713 14.2931C22.9621 14.2929 22.9419 14.285 22.9265 14.2757C22.8936 14.2557 22.8283 14.2529 22.7865 14.2698C22.7702 14.2764 22.6955 14.3474 22.6205 14.4275C22.472 14.5862 22.3872 14.6535 22.3074 14.6762C22.2373 14.6962 21.8551 14.6624 21.8121 14.6324C21.7583 14.5949 21.6964 14.5284 21.6476 14.4558C21.5459 14.3043 21.4427 14.2275 21.2922 14.1914C21.247 14.1805 21.192 14.162 21.17 14.1502C21.1115 14.1187 21.0171 14.0363 21.0092 14.0099C21.0054 13.9973 21.0136 13.9583 21.0273 13.9232C21.0477 13.8709 21.0523 13.8358 21.0528 13.7285C21.0534 13.6013 21.0522 13.595 21.0104 13.4987L20.9675 13.3996L20.9913 13.3409C21.0043 13.3085 21.0417 13.2343 21.0743 13.1759C21.1083 13.1151 21.1465 13.025 21.1638 12.965C21.2078 12.8123 21.2456 12.7152 21.2846 12.6549C21.3036 12.6257 21.4256 12.4886 21.5558 12.3504C21.686 12.2121 21.824 12.0548 21.8625 12.0007C21.9436 11.8867 21.9597 11.8739 22.0443 11.8557C22.0955 11.8447 22.1223 11.8458 22.1897 11.8612C22.3632 11.901 22.4923 11.9265 22.5199 11.9265C22.5358 11.9265 22.5839 11.9175 22.6269 11.9064C22.6943 11.8892 22.7222 11.8882 22.8294 11.8995C22.9682 11.914 22.9712 11.916 23.0228 12.0244C23.0903 12.1659 23.2332 12.2988 23.4498 12.4212C23.5546 12.4805 23.7525 12.6363 23.8766 12.7573C23.9564 12.8353 23.9782 12.8643 23.998 12.9193C24.0113 12.9562 24.0447 13.0236 24.0724 13.069C24.1 13.1145 24.1327 13.1727 24.1451 13.1984L24.1675 13.2452L24.123 13.3441C24.0269 13.5579 23.9687 13.8232 23.9563 14.104C23.9489 14.2707 23.9426 14.3236 23.925 14.3657C23.8943 14.4394 23.8752 14.4539 23.8309 14.4375C23.7812 14.4191 23.6871 14.4211 23.6319 14.4419C23.5558 14.4704 23.4908 14.5282 23.3447 14.6969C23.2076 14.8554 23.085 14.9657 22.9992 15.0079C22.9746 15.02 22.8714 15.0575 22.77 15.0912C22.6389 15.1347 22.5464 15.1743 22.4507 15.228C22.311 15.3064 22.2167 15.3402 22.1378 15.3402C22.0817 15.3402 21.949 15.2595 21.8138 15.1432C21.6752 15.0238 21.5937 14.9858 21.4448 14.971C21.2628 14.9529 21.1863 14.9379 21.111 14.9053C21.0252 14.8682 21.0021 14.8446 20.9379 14.728C20.8971 14.654 20.8447 14.5898 20.6992 14.4357C20.4861 14.2099 20.4872 14.2122 20.5114 14.0474C20.5299 13.9204 20.5176 13.8438 20.4563 13.7046C20.3973 13.5706 20.3818 13.4862 20.3966 13.3797C20.4053 13.3174 20.4173 13.284 20.4471 13.2396C20.5055 13.1524 20.5861 12.9876 20.616 12.894C20.6442 12.8057 20.6621 12.7019 20.674 12.5569C20.6781 12.5079 20.6904 12.449 20.7013 12.4261C20.7341 12.3577 20.8664 12.2329 20.9842 12.1593C21.2234 12.0099 21.3301 11.8883 21.4844 11.5895C21.5177 11.5251 21.5569 11.4597 21.5716 11.444C21.6196 11.3929 21.6976 11.3913 21.8615 11.438C21.9871 11.4739 22.0702 11.4608 22.2332 11.3794C22.3172 11.3375 22.3793 11.3155 22.4512 11.3022C22.593 11.2761 22.6311 11.2848 22.7213 11.3635C22.7621 11.399 22.8086 11.4352 22.8246 11.444C22.8609 11.4637 23.1622 11.5871 23.2648 11.6242C23.3066 11.6393 23.357 11.6637 23.3769 11.6784C23.4651 11.7435 23.5933 11.8786 23.6392 11.9546C23.7005 12.0562 23.7785 12.1459 23.8375 12.1825C23.8624 12.1979 23.9204 12.2249 23.9665 12.2424C24.0652 12.2799 24.1637 12.3389 24.2373 12.4045C24.3238 12.4815 24.3514 12.5573 24.3967 12.8424C24.4422 13.1287 24.4717 13.2481 24.5351 13.4017C24.5893 13.5332 24.6263 13.6634 24.6263 13.7228C24.6263 13.7483 24.6149 13.7825 24.5971 13.8104C24.5304 13.9147 24.444 14.1607 24.4194 14.3162C24.4105 14.3724 24.398 14.4946 24.3917 14.5877C24.3782 14.7847 24.3572 14.8576 24.2919 14.9333C24.2534 14.9779 24.2439 14.9832 24.2162 14.9757C24.1599 14.9602 24.0407 14.9666 23.9803 14.9881C23.8957 15.0184 23.8055 15.0958 23.6887 15.2382C23.5518 15.4053 23.5262 15.4202 23.3506 15.4354C23.183 15.4499 23.1174 15.4687 22.9965 15.5367C22.8896 15.5968 22.8099 15.6598 22.6791 15.7878C22.5095 15.9538 22.4654 15.9706 22.321 15.9238C22.1521 15.8691 22.1054 15.8614 21.9312 15.8592C21.7096 15.8563 21.6741 15.8415 21.6019 15.7217C21.5459 15.6288 21.4988 15.5833 21.4415 15.5668C21.4105 15.5578 21.3923 15.5416 21.369 15.5023C21.3284 15.4336 21.2535 15.3609 21.1854 15.3242C21.1554 15.308 21.0568 15.2682 20.9664 15.2357C20.876 15.2031 20.7647 15.1539 20.7192 15.1262C20.639 15.0773 20.6101 15.0533 20.4054 14.8645C20.3522 14.8154 20.2775 14.7465 20.2393 14.7114C20.1543 14.6333 20.0963 14.6034 20.0292 14.603C20.001 14.6029 19.8903 14.6262 19.7832 14.6548C19.5043 14.7293 19.5122 14.7284 19.4447 14.6935C19.2438 14.5895 19.1127 14.5706 18.9095 14.6164C18.8435 14.6313 18.7502 14.6954 18.6491 14.7954C18.5503 14.893 18.4105 14.9961 18.3042 15.0498C18.2371 15.0837 18.2025 15.0931 18.1157 15.1009C17.9747 15.1135 17.9233 15.1406 17.81 15.2619C17.6963 15.3836 17.6228 15.5269 17.5921 15.6863C17.5518 15.8952 17.5288 15.9438 17.4061 16.0795C17.2853 16.2131 17.257 16.2749 17.2571 16.4048C17.2572 16.4632 17.2677 16.5478 17.2843 16.6239C17.3014 16.7016 17.3079 16.7549 17.3019 16.7669C17.2894 16.7916 17.1931 16.8861 17.0924 16.9725C17.0034 17.0488 16.9274 17.1594 16.9082 17.2404C16.9011 17.2707 16.8774 17.316 16.8529 17.346C16.7946 17.4177 16.7827 17.47 16.8043 17.5584C16.8528 17.7564 16.9349 17.9753 17.001 18.0831C17.0732 18.2006 17.0886 18.2669 17.0874 18.4547C17.0864 18.627 17.1028 18.7415 17.1371 18.8015C17.2034 18.9174 17.3225 19.0204 17.4993 19.1149C17.5808 19.1584 17.609 19.1804 17.6354 19.2212C17.7218 19.3549 17.873 19.4427 18.1212 19.5035C18.2343 19.5311 18.2495 19.5313 18.5205 19.5083C18.5998 19.5015 18.6079 19.5032 18.6714 19.5395C18.7083 19.5606 18.7788 19.6087 18.828 19.6464C18.943 19.7344 19.0576 19.795 19.1416 19.812C19.2163 19.8272 19.2439 19.8213 19.4207 19.7522C19.519 19.7137 19.5255 19.7128 19.7059 19.7121C19.8719 19.7115 19.8976 19.7142 19.963 19.7392C20.0307 19.7651 20.0417 19.7661 20.1252 19.7534C20.3947 19.7125 20.3935 19.7129 20.5446 19.6366C20.6495 19.5837 20.8169 19.5209 20.8843 19.5092C20.9156 19.5037 20.9444 19.4849 20.9873 19.4418C21.0793 19.3492 21.229 19.1311 21.3044 18.9799C21.3565 18.8754 21.3874 18.8287 21.4354 18.7819C21.497 18.722 21.4999 18.7206 21.5778 18.716C21.6244 18.7132 21.6751 18.7021 21.7005 18.689C21.7575 18.6595 21.8329 18.5578 21.8903 18.4329C21.9325 18.3408 21.9366 18.3239 21.9359 18.2425C21.9354 18.1859 21.926 18.121 21.9099 18.065C21.8812 17.9645 21.8773 17.81 21.8991 17.6359C21.9146 17.5125 21.9055 17.3085 21.8805 17.2196C21.858 17.1393 21.8131 17.0624 21.752 16.9995C21.6976 16.9436 21.6857 16.9212 21.6412 16.7915C21.581 16.616 21.4391 16.3747 21.3158 16.2383C21.1649 16.0712 21.0353 15.9081 20.9737 15.8073C20.9052 15.6954 20.8693 15.6662 20.7379 15.6149C20.6149 15.5669 20.5787 15.5463 20.4096 15.4285C20.3303 15.3732 20.2514 15.3219 20.2344 15.3145C20.1731 15.2879 20.0878 15.2833 19.8669 15.2947L19.6422 15.3062L19.483 15.2509C19.3251 15.196 19.3228 15.1956 19.1932 15.1995C19.0468 15.2039 19.0576 15.1998 18.8224 15.3412C18.7517 15.3837 18.6642 15.4312 18.628 15.4468C18.5361 15.4863 18.4102 15.5764 18.3597 15.6387C18.288 15.7272 18.1623 15.9347 18.1046 16.0598C18.0744 16.1253 18.029 16.248 18.0037 16.3326C17.9581 16.4849 17.9568 16.4874 17.8773 16.5765C17.7786 16.6871 17.6909 16.8149 17.6526 16.9038C17.6255 16.9669 17.6237 16.9826 17.6225 17.1695C17.6211 17.4081 17.6473 17.6529 17.6871 17.7726C17.7215 17.8759 17.7236 17.9588 17.693 18.0044C17.6429 18.0793 17.5923 18.215 17.5923 18.2746C17.5923 18.378 17.6154 18.4718 17.6672 18.5788C17.7282 18.7044 17.8242 18.8044 17.9445 18.8673C18.017 18.9052 18.1712 18.9443 18.3635 18.9735C18.3909 18.9776 18.5078 19.0128 18.6233 19.0517C18.7705 19.1013 18.9042 19.1364 19.071 19.1692C19.2018 19.1949 19.3475 19.2297 19.3947 19.2466C19.4419 19.2635 19.5011 19.2773 19.5261 19.2773C19.5512 19.2773 19.6759 19.2586 19.8033 19.2357C19.933 19.2123 20.0743 19.194 20.1247 19.1939C20.2342 19.1936 20.3738 19.1582 20.4416 19.1136C20.4687 19.0957 20.521 19.0618 20.5577 19.0382C20.7095 18.9408 20.8624 18.7429 20.9913 18.4769C21.0009 18.4571 21.0344 18.4283 21.0742 18.4057C21.1848 18.3431 21.2511 18.269 21.3142 18.1381C21.4033 17.9528 21.5063 17.6136 21.5063 17.5051C21.5063 17.4307 21.4806 17.3435 21.4205 17.2143C21.393 17.155 21.3548 17.0664 21.3357 17.0173C21.2724 16.8547 21.2125 16.779 21.0695 16.6808C20.9839 16.6221 20.9435 16.5729 20.8965 16.4702C20.8143 16.2901 20.6719 16.0371 20.6217 15.9818C20.5886 15.9454 20.5326 15.9046 20.4651 15.868C20.2539 15.7532 20.2351 15.747 20.0004 15.7145C19.7721 15.6829 19.7477 15.6835 19.6249 15.7243C19.5516 15.7486 19.5469 15.7487 19.4516 15.7296C19.3322 15.7057 19.1918 15.6913 19.0796 15.6916C19.0127 15.6917 18.9833 15.6981 18.9342 15.7228C18.8343 15.7732 18.7473 15.8583 18.6609 15.9899C18.6175 16.0561 18.5678 16.1294 18.5504 16.1527C18.5331 16.176 18.4962 16.2499 18.4685 16.317C18.4407 16.384 18.4012 16.4598 18.3806 16.4854C18.3418 16.5337 18.2948 16.6297 18.2813 16.6882C18.2771 16.7067 18.2528 16.7495 18.2275 16.7834C18.1748 16.8538 18.1142 16.9854 18.0911 17.0799C18.0824 17.1154 18.0622 17.1719 18.0463 17.2054C17.9976 17.3076 18.0094 17.4062 18.0979 17.6376C18.143 17.7552 18.145 17.7658 18.1425 17.8712C18.1385 18.0397 18.1677 18.1418 18.2544 18.2628C18.3486 18.3942 18.5423 18.525 18.7441 18.5935C18.8252 18.621 18.8664 18.6269 19.0237 18.6333C19.2006 18.6406 19.2105 18.6424 19.2641 18.6754C19.3878 18.7514 19.4044 18.7569 19.5436 18.7672C19.7019 18.779 19.7691 18.7695 19.8876 18.7188C19.9353 18.6984 20.0032 18.6762 20.0386 18.6695C20.1607 18.6462 20.3186 18.5879 20.368 18.5479C20.4326 18.4957 20.5796 18.293 20.6328 18.183C20.6804 18.0845 20.7192 17.965 20.7621 17.7845C20.7776 17.7191 20.8034 17.6201 20.8193 17.5645C20.8545 17.4418 20.8681 17.248 20.847 17.1681C20.8394 17.1392 20.8111 17.0868 20.7841 17.0516C20.7571 17.0164 20.7091 16.9475 20.6775 16.8984C20.6459 16.8493 20.5937 16.7798 20.5615 16.7438C20.5294 16.7078 20.4842 16.6446 20.4611 16.6034C20.382 16.4619 20.296 16.4011 20.0973 16.3461C20.0327 16.3282 19.9393 16.2928 19.8899 16.2674C19.7599 16.2007 19.7073 16.1912 19.5993 16.2149C19.5509 16.2256 19.4909 16.2455 19.466 16.2593C19.4312 16.2784 19.39 16.2862 19.2888 16.2926C19.1002 16.3045 19.0606 16.3272 18.871 16.5323C18.7249 16.6904 18.6455 16.8033 18.5902 16.9315C18.5513 17.0217 18.5518 17.1036 18.5924 17.3367C18.6223 17.5079 18.6234 17.5243 18.6095 17.6026C18.5902 17.7115 18.6059 17.8626 18.6432 17.9268C18.6778 17.9864 18.8262 18.1203 18.8951 18.1542C18.9744 18.1932 19.1136 18.2095 19.2248 18.1928L19.3138 18.1794L19.4008 18.2217C19.5248 18.2819 19.6089 18.3051 19.7055 18.3055C19.7791 18.3058 19.8006 18.3005 19.8762 18.2632C19.9835 18.2101 20.0608 18.1345 20.1771 17.9689C20.2732 17.832 20.3114 17.7422 20.354 17.5529C20.3851 17.415 20.3808 17.3578 20.3288 17.2196C20.2484 17.0055 20.1883 16.9054 20.1073 16.8501C20.0495 16.8106 19.8411 16.7276 19.7338 16.7013C19.6378 16.6777 19.5847 16.6803 19.4502 16.7151C19.3246 16.7475 19.3054 16.7571 19.225 16.8277C19.1973 16.852 19.152 16.8823 19.1243 16.8951C19.0651 16.9223 19.0092 16.9858 18.9901 17.0473C18.9656 17.1263 18.9996 17.5039 19.0407 17.6086C19.0629 17.6653 19.1172 17.7261 19.1728 17.7566C19.2284 17.7871 19.3766 17.8175 19.4244 17.8082C19.4449 17.8042 19.5227 17.7987 19.5973 17.7959C19.7148 17.7915 19.7409 17.7867 19.7922 17.76C19.8584 17.7255 19.8984 17.6771 19.9237 17.6008C19.9864 17.4117 19.9559 17.2172 19.8521 17.1443C19.7434 17.068 19.5306 17.0586 19.427 17.1257C19.3452 17.1786 19.3222 17.2948 19.3804 17.361C19.4074 17.3917 19.4214 17.398 19.4628 17.398C19.4958 17.398 19.5224 17.3899 19.5412 17.3742C19.5741 17.3466 19.6465 17.3423 19.6771 17.3661C19.6935 17.3789 19.6958 17.3911 19.6895 17.4309C19.6852 17.4578 19.6758 17.485 19.6686 17.4912C19.6614 17.4975 19.5926 17.5038 19.5157 17.5053C19.3477 17.5086 19.3242 17.5074 19.3061 17.4952C19.2981 17.4899 19.285 17.4284 19.2757 17.3532C19.2666 17.2803 19.2561 17.2074 19.2523 17.1912C19.2463 17.1658 19.2514 17.1584 19.2885 17.1382C19.3123 17.1253 19.3588 17.0931 19.392 17.0666C19.4713 17.0032 19.5907 16.9705 19.6699 16.9904C19.7451 17.0094 19.9385 17.0839 19.9586 17.1016C19.9858 17.1256 20.0262 17.2062 20.0641 17.312L20.0994 17.4104L20.0812 17.4964C20.055 17.6201 20.0201 17.7016 19.9528 17.7964C19.8178 17.9866 19.7553 18.0291 19.6459 18.0049C19.6115 17.9973 19.5418 17.9687 19.4909 17.9414C19.39 17.8871 19.4035 17.8887 19.1355 17.8984C19.0272 17.9023 19.0029 17.8926 18.9245 17.814L18.8756 17.765L18.885 17.6677C18.8986 17.528 18.8918 17.4127 18.8602 17.2435C18.845 17.1619 18.8356 17.0816 18.8395 17.0651C18.8537 17.0046 18.9694 16.8415 19.0839 16.7207L19.2016 16.5966L19.3283 16.5884C19.4305 16.5817 19.4711 16.5733 19.5385 16.5448C19.6705 16.489 19.6802 16.4888 19.7802 16.5401C19.8285 16.5648 19.9183 16.5998 19.9798 16.6178C20.0413 16.6358 20.1079 16.6558 20.1276 16.6623C20.1675 16.6753 20.2099 16.7231 20.2432 16.7926C20.2552 16.8176 20.2944 16.8718 20.3303 16.9129C20.3662 16.954 20.4216 17.0278 20.4535 17.0768C20.4854 17.1259 20.5294 17.1897 20.5512 17.2186C20.6031 17.2873 20.602 17.3003 20.5183 17.6121C20.5033 17.6677 20.4773 17.7681 20.4605 17.8353C20.4232 17.9844 20.3712 18.0934 20.2782 18.2178C20.2117 18.3068 20.2032 18.3138 20.1328 18.3382C20.0917 18.3524 20.0152 18.3735 19.9628 18.3851C19.9104 18.3966 19.8274 18.4232 19.7783 18.4443C19.6958 18.4796 19.6815 18.4822 19.5884 18.4775C19.499 18.4731 19.4816 18.4684 19.4319 18.435C19.3242 18.3625 19.2604 18.3459 19.0572 18.3377C18.8863 18.3308 18.8658 18.3275 18.7792 18.2926C18.6589 18.2443 18.5964 18.2049 18.5216 18.1303C18.4365 18.0452 18.4153 17.9894 18.4246 17.8749C18.4309 17.7978 18.4277 17.7688 18.4029 17.6779C18.3869 17.6193 18.3594 17.5363 18.3418 17.4936C18.2984 17.388 18.2904 17.3363 18.3119 17.3011C18.3213 17.2857 18.3392 17.2336 18.3517 17.1854C18.3814 17.0708 18.4083 17.0138 18.4701 16.9341C18.503 16.8917 18.5281 16.8434 18.5413 16.7968C18.5533 16.7544 18.5824 16.6958 18.6121 16.654C18.6399 16.6151 18.6836 16.5301 18.7094 16.4653C18.7351 16.4005 18.7711 16.3293 18.7894 16.3072C18.8076 16.2851 18.845 16.2308 18.8724 16.1865C18.931 16.092 19.0022 16.0138 19.0481 15.9935C19.0734 15.9824 19.1017 15.9822 19.1725 15.9927C19.2229 16.0002 19.2868 16.0064 19.3145 16.0065C19.3421 16.0065 19.3895 16.0146 19.4197 16.0243C19.5018 16.0508 19.5917 16.0465 19.6915 16.0114C19.7571 15.9883 19.7909 15.9826 19.8289 15.9882C19.8565 15.9922 19.9395 16.0032 20.0132 16.0126C20.1358 16.0282 20.1575 16.0349 20.2672 16.0912C20.3331 16.1251 20.402 16.1694 20.4203 16.1896C20.4571 16.2303 20.5962 16.4825 20.6453 16.5973C20.7049 16.7368 20.7903 16.8437 20.9023 16.9189C20.9869 16.9758 21.0417 17.0343 21.0652 17.0929C21.0761 17.12 21.1169 17.2153 21.1559 17.3045C21.1949 17.3937 21.2267 17.4827 21.2267 17.5022C21.2267 17.5489 21.1458 17.8187 21.0957 17.9392C21.0411 18.0705 21.0161 18.1018 20.9223 18.1568C20.8179 18.218 20.7954 18.2445 20.7122 18.403C20.6034 18.6105 20.5193 18.714 20.388 18.8014C20.2676 18.8817 20.2479 18.8883 20.1028 18.8967C20.029 18.901 19.871 18.9223 19.7516 18.9441L19.5346 18.9836L19.4441 18.9525C19.3943 18.9354 19.3234 18.9161 19.2865 18.9096C18.9329 18.8469 18.8968 18.8379 18.6357 18.747C18.5523 18.718 18.4482 18.6886 18.4044 18.6818C18.2666 18.6603 18.1032 18.6225 18.0649 18.6031C17.9977 18.5692 17.9214 18.4802 17.8956 18.4056C17.8826 18.3677 17.8719 18.3233 17.8719 18.307C17.8719 18.2766 17.9038 18.2008 17.9392 18.1473C17.999 18.0569 18.0099 17.8934 17.9664 17.7413C17.9235 17.5911 17.8889 17.2774 17.8993 17.1323C17.9073 17.0194 17.9094 17.0127 17.9582 16.9361C17.9861 16.8925 18.0452 16.8166 18.0898 16.7676C18.1812 16.6668 18.2137 16.6057 18.2573 16.453C18.274 16.3944 18.3065 16.3001 18.3295 16.2433C18.3764 16.1277 18.5187 15.89 18.5804 15.8244C18.6052 15.798 18.6887 15.7455 18.7971 15.6881C18.894 15.6368 19.0086 15.5728 19.0517 15.546C19.1708 15.4718 19.2191 15.4696 19.3932 15.5309C19.5882 15.5996 19.6198 15.6033 19.882 15.589L20.1096 15.5766L20.1566 15.6078C20.1824 15.625 20.2337 15.66 20.2706 15.6856C20.4182 15.7881 20.4768 15.8219 20.5888 15.8688C20.7052 15.9175 20.7058 15.9181 20.7565 15.997C20.818 16.0929 20.9513 16.2598 21.082 16.4048C21.2225 16.5607 21.3465 16.7721 21.3947 16.9382C21.4208 17.0277 21.4677 17.1083 21.5468 17.1993C21.5798 17.2373 21.6106 17.2828 21.6152 17.3004C21.6258 17.3406 21.6249 17.548 21.6131 17.7964C21.6052 17.9609 21.6067 17.9973 21.6236 18.0641C21.6683 18.2408 21.6686 18.2473 21.635 18.3164C21.5874 18.4143 21.5791 18.4209 21.5041 18.4209C21.4201 18.4209 21.369 18.4479 21.2627 18.5488C21.1734 18.6334 21.1353 18.6864 21.0804 18.8023C21.0284 18.9122 20.9772 18.9955 20.8904 19.1116L20.8142 19.2136L20.6913 19.2569C20.6237 19.2807 20.519 19.3248 20.4586 19.3549C20.3275 19.4203 20.2618 19.44 20.1388 19.4506C20.0697 19.4565 20.0339 19.454 19.9964 19.4405C19.9688 19.4306 19.8823 19.4187 19.8042 19.414C19.6121 19.4023 19.4669 19.4217 19.3139 19.4794L19.1959 19.524L19.1405 19.5016C19.1101 19.4894 19.0399 19.4446 18.9846 19.4021C18.9292 19.3597 18.8368 19.2995 18.7793 19.2684C18.6755 19.2123 18.6738 19.2119 18.5668 19.2124C18.5075 19.2128 18.4153 19.2176 18.3619 19.2231C18.2486 19.2348 18.1721 19.222 18.0314 19.1679C17.9343 19.1305 17.9161 19.1155 17.8125 18.9877C17.7694 18.9346 17.736 18.9091 17.6456 18.8607C17.5241 18.7957 17.4818 18.7677 17.4319 18.7193C17.3733 18.6624 17.3676 18.6376 17.3632 18.4171C17.358 18.1564 17.3386 18.0823 17.2335 17.9213C17.1946 17.8617 17.0891 17.5774 17.0891 17.5322C17.0891 17.5225 17.0993 17.4993 17.1119 17.4806C17.1244 17.4618 17.1445 17.4163 17.1564 17.3794C17.1871 17.2844 17.2136 17.2442 17.2811 17.1898C17.3832 17.1076 17.5352 16.9441 17.5598 16.8902C17.5907 16.8222 17.5912 16.7096 17.5611 16.5773C17.5156 16.3769 17.5119 16.3983 17.6112 16.2879C17.7523 16.131 17.8184 15.9954 17.855 15.7881C17.8764 15.6663 17.924 15.5618 17.9963 15.4776C18.0567 15.4074 18.0968 15.3882 18.185 15.3876C18.2651 15.387 18.3283 15.3667 18.4434 15.3045C18.5777 15.2319 18.7326 15.1177 18.8549 15.0011C18.9066 14.9519 18.962 14.9077 18.9779 14.903C18.9939 14.8982 19.0497 14.8943 19.102 14.8943C19.1905 14.8942 19.204 14.8977 19.2987 14.9448C19.4694 15.0296 19.5364 15.0311 19.7953 14.9559C20.021 14.8903 20.0072 14.8903 20.0792 14.9563C20.4602 15.3054 20.5093 15.3458 20.6284 15.4082C20.7124 15.4522 20.8593 15.5133 20.9222 15.5305C20.9922 15.5495 21.0722 15.5881 21.1007 15.6164C21.1144 15.6301 21.1465 15.6792 21.1721 15.7257C21.2675 15.899 21.3183 15.9709 21.3661 16.0008C21.392 16.0169 21.4234 16.0301 21.4359 16.0301C21.4483 16.0301 21.4719 16.0412 21.4881 16.0549C21.5602 16.1151 21.7845 16.162 21.9875 16.1591C22.0773 16.1578 22.1113 16.1634 22.2108 16.1957C22.5001 16.2894 22.604 16.2578 22.8856 15.9899C23.0967 15.7892 23.1888 15.7418 23.3957 15.7275C23.5928 15.7139 23.6955 15.6641 23.8221 15.5207C23.8615 15.476 23.9233 15.4059 23.9594 15.3649C24.0449 15.2677 24.0802 15.2519 24.1774 15.2674C24.3308 15.292 24.4334 15.2374 24.5413 15.0737C24.6297 14.9394 24.6508 14.859 24.6713 14.579C24.6907 14.313 24.7386 14.1327 24.8351 13.9621C24.8811 13.8809 24.9059 13.7969 24.9059 13.722C24.9059 13.6379 24.8586 13.4565 24.7951 13.297C24.7326 13.1399 24.7058 13.0328 24.671 12.8011C24.6397 12.593 24.6174 12.4921 24.5853 12.4147C24.509 12.2307 24.3211 12.0675 24.0765 11.9728C23.9656 11.9298 23.9486 11.9146 23.869 11.7867C23.8006 11.6769 23.6452 11.5147 23.5304 11.4331C23.4871 11.4024 23.4058 11.3622 23.3291 11.3338C23.2584 11.3076 23.1703 11.2732 23.1334 11.2574C23.0965 11.2416 23.0423 11.2192 23.0129 11.2078C22.9835 11.1963 22.919 11.1527 22.8696 11.1109C22.8114 11.0617 22.7594 11.0285 22.7224 11.0168C22.6508 10.9942 22.4672 10.9944 22.3674 11.0173ZM19.1393 11.1717C19.0634 11.2132 18.8699 11.4939 18.7666 11.7124C18.7066 11.8396 18.6691 11.9576 18.6306 12.1406C18.5939 12.3153 18.5941 12.6341 18.6311 12.8584C18.6449 12.9424 18.6546 13.0129 18.6527 13.0149C18.6507 13.017 18.5987 12.985 18.5372 12.9439C18.3079 12.7904 18.0337 12.6558 17.8098 12.5868C17.6017 12.5227 17.4738 12.5057 17.2065 12.5067C16.9807 12.5074 16.9508 12.5101 16.8432 12.5384C16.7322 12.5677 16.6154 12.6206 16.5716 12.6615C16.5018 12.7267 16.4771 13.166 16.5243 13.5002C16.5489 13.6744 16.6056 13.9311 16.6523 14.0794C16.7461 14.378 16.9129 14.7246 17.0753 14.9584C17.1884 15.1212 17.3855 15.306 17.4625 15.3214C17.5218 15.3332 17.578 15.3035 17.5994 15.249C17.6267 15.1795 17.6073 15.1303 17.5254 15.0619C17.3708 14.9326 17.2409 14.7436 17.0938 14.4334C16.9212 14.0696 16.8172 13.6997 16.7857 13.338C16.7722 13.183 16.7788 12.903 16.7971 12.8518C16.815 12.8016 16.8956 12.7886 17.1785 12.7904C17.3935 12.7918 17.4332 12.7952 17.5531 12.8232C17.9917 12.9255 18.4224 13.1638 18.7523 13.4867C18.845 13.5773 18.8789 13.5845 18.9757 13.5337C19.0332 13.5036 19.0507 13.4876 19.0643 13.453C19.0852 13.3999 19.0783 13.3686 19.0291 13.2924C18.9827 13.2207 18.9329 13.0594 18.9048 12.89C18.8888 12.7935 18.8842 12.707 18.8845 12.5094C18.8849 12.2607 18.8859 12.2499 18.9199 12.1168C18.9392 12.0416 18.9747 11.9344 18.9989 11.8785C19.077 11.6982 19.248 11.4389 19.2888 11.4389C19.3149 11.4389 19.485 11.5512 19.6108 11.6515C19.7771 11.7841 20.0434 12.0528 20.1087 12.1537C20.134 12.1929 20.166 12.2266 20.1862 12.2356C20.2335 12.2564 20.2955 12.2433 20.3337 12.2044C20.4208 12.1156 20.3694 11.9842 20.1652 11.7737C19.9416 11.5431 19.6514 11.3213 19.4224 11.2058C19.3171 11.1527 19.2 11.1386 19.1393 11.1717ZM19.2398 11.7435C19.2199 11.7539 19.196 11.7805 19.1857 11.8037C19.1638 11.8527 19.1685 11.8921 19.2321 12.1919C19.2541 12.2954 19.2697 12.3825 19.2669 12.3855C19.2641 12.3885 19.2396 12.3775 19.2126 12.3611C19.1426 12.3185 19.0975 12.3214 19.0505 12.3714C19.0204 12.4035 19.0125 12.4213 19.0125 12.4579C19.0125 12.4833 19.0201 12.5156 19.0294 12.5298C19.0514 12.5631 19.2742 12.7335 19.3279 12.7581C19.3664 12.7757 19.3706 12.7828 19.3884 12.8602C19.4135 12.9692 19.4578 13.0208 19.5264 13.0208C19.5855 13.0208 19.6337 12.9943 19.6553 12.9498C19.6755 12.9083 19.6766 12.8713 19.6598 12.8C19.6459 12.7412 19.6399 12.7607 19.7575 12.4773C19.8306 12.3013 19.8337 12.2624 19.7797 12.2049C19.7109 12.1317 19.62 12.1562 19.5656 12.2625C19.5493 12.2945 19.534 12.3186 19.5317 12.3162C19.5294 12.3138 19.5021 12.205 19.471 12.0745C19.4028 11.7882 19.3981 11.775 19.3545 11.7467C19.3128 11.7197 19.2866 11.719 19.2398 11.7435ZM19.7506 11.9236C19.6945 11.9534 19.6723 12.0228 19.6995 12.0837C19.7264 12.144 19.7833 12.172 19.8413 12.1535C19.9432 12.1211 19.9569 11.9725 19.8628 11.9208C19.8205 11.8975 19.7986 11.8981 19.7506 11.9236ZM25.9459 12.5294C25.563 12.5602 25.1292 12.7134 24.9425 12.8839C24.8606 12.9586 24.8536 13.056 24.9257 13.1164C24.9738 13.1566 25.0209 13.1469 25.1222 13.0757C25.3116 12.9428 25.5626 12.8661 25.9282 12.8296C26.2764 12.7949 26.652 12.8448 27.0642 12.9807C27.2663 13.0473 27.3102 13.0841 27.3102 13.1866C27.3102 13.2497 27.2952 13.2862 27.2095 13.4312C26.8422 14.0526 26.5717 14.3132 25.9604 14.6344C25.8422 14.6964 25.7328 14.7579 25.7172 14.7709C25.7001 14.7853 25.682 14.8198 25.6715 14.8583C25.6564 14.9135 25.6562 14.9273 25.6697 14.9616C25.6993 15.037 25.6985 15.0369 25.9951 15.0376C26.2266 15.0383 26.2827 15.0421 26.3932 15.065C27.0592 15.2031 27.4693 15.405 27.807 15.7613C27.9389 15.9005 28.1314 16.1577 28.1728 16.2502C28.2291 16.3757 28.2102 16.4341 28.0854 16.5212C28.0435 16.5505 27.9613 16.6156 27.9029 16.6658C27.7559 16.7923 27.6515 16.8641 27.4947 16.9464C27.265 17.067 27.0188 17.1489 26.7406 17.197C26.5898 17.2231 26.5509 17.2424 26.5274 17.3027C26.4968 17.3813 26.5452 17.4795 26.625 17.5008C26.6965 17.5199 27.0195 17.4491 27.2822 17.3567C27.6062 17.2428 27.8011 17.1266 28.0706 16.8868C28.1537 16.813 28.2581 16.7234 28.3026 16.6877C28.4468 16.5722 28.4985 16.4798 28.4999 16.3344C28.5006 16.2697 28.4955 16.2526 28.4516 16.1728C28.1725 15.6652 27.8108 15.3002 27.3632 15.0743C27.0991 14.941 26.7715 14.8369 26.4589 14.7869C26.3957 14.7768 26.3424 14.7668 26.3403 14.7646C26.3382 14.7624 26.3732 14.7376 26.418 14.7094C26.6381 14.5712 26.8189 14.4211 26.993 14.2322C27.156 14.0552 27.2549 13.9061 27.48 13.4977C27.6267 13.2315 27.6457 13.1813 27.6457 13.059C27.6457 12.9569 27.6262 12.901 27.5775 12.8631C27.5393 12.8334 27.1593 12.6989 26.9468 12.64C26.5872 12.5402 26.2607 12.5042 25.9459 12.5294ZM26.041 12.9762C26.0201 12.9954 25.9982 13.0466 25.9632 13.1576C25.9364 13.2426 25.894 13.3738 25.8691 13.449L25.8236 13.5858L25.7589 13.6185C25.6683 13.6643 25.6643 13.6625 25.689 13.5876C25.7395 13.435 25.8005 13.2016 25.8005 13.1615C25.8005 13.0703 25.7088 13.0087 25.6342 13.0497C25.5854 13.0766 25.5747 13.0982 25.5062 13.3063C25.3768 13.6995 25.3178 13.8495 25.2839 13.8708C25.2451 13.8951 25.219 13.9466 25.2191 13.9985C25.2191 14.0464 25.2547 14.1117 25.2889 14.1266C25.3226 14.1414 25.5725 14.1627 25.712 14.1627C25.7737 14.1627 25.8967 14.1684 25.9852 14.1754C26.1736 14.1903 26.2097 14.1805 26.243 14.1057C26.2602 14.0673 26.2606 14.0573 26.2467 14.015C26.2239 13.9459 26.1849 13.9268 26.0339 13.9108C25.964 13.9033 25.9026 13.8934 25.8975 13.8887C25.8925 13.884 25.9442 13.8551 26.0125 13.8245L26.1366 13.7687L26.4003 13.817C26.6941 13.8709 26.7349 13.8739 26.7693 13.8442C26.8295 13.7923 26.8346 13.717 26.7818 13.6574C26.7531 13.6249 26.7278 13.6115 26.6616 13.5937L26.5777 13.5711L26.6336 13.5444C26.6644 13.5297 26.7625 13.4865 26.8517 13.4485C27.0435 13.3666 27.0754 13.3402 27.0754 13.263C27.0754 13.2195 27.0691 13.2027 27.0427 13.1745C26.9952 13.124 26.941 13.1277 26.7668 13.1934C26.6886 13.2229 26.6227 13.2451 26.6204 13.2427C26.6181 13.2402 26.6214 13.2237 26.6277 13.2061C26.6594 13.1174 26.6287 13.0347 26.5545 13.0086C26.5086 12.9925 26.4655 13.0062 26.4292 13.0485C26.4033 13.0787 26.3268 13.2697 26.3165 13.3301C26.3106 13.3646 26.3008 13.3761 26.259 13.3979C26.2313 13.4122 26.194 13.4278 26.1761 13.4323C26.1472 13.4397 26.1445 13.4381 26.1522 13.4181C26.1767 13.3542 26.2363 13.1168 26.2365 13.0825C26.2368 13.0025 26.1897 12.9501 26.1171 12.9497C26.0842 12.9495 26.0614 12.9575 26.041 12.9762ZM17.0611 13.0515C17.0029 13.0838 16.9812 13.1459 17.0061 13.2092C17.0152 13.2325 17.059 13.2876 17.1034 13.3318L17.1841 13.4122L17.12 13.4128C17.0377 13.4135 16.9903 13.4526 16.9809 13.5276C16.9756 13.5696 16.9792 13.5819 17.0068 13.6147C17.0343 13.6474 17.0578 13.6581 17.1675 13.6879C17.2381 13.7072 17.3588 13.744 17.4357 13.7698C17.5617 13.812 17.5804 13.822 17.6254 13.8707C17.6535 13.9013 17.6681 13.9247 17.6589 13.9245C17.6499 13.9244 17.5772 13.9138 17.4972 13.901C17.2568 13.8626 17.2114 13.8695 17.1719 13.9507C17.132 14.0329 17.186 14.1158 17.293 14.1368C17.3254 14.1431 17.4852 14.1758 17.6482 14.2093C17.8112 14.2429 17.9534 14.2702 17.9642 14.27C17.9751 14.2699 18.0476 14.3366 18.1254 14.4184C18.226 14.524 18.2784 14.5704 18.3064 14.5786C18.3808 14.6005 18.4429 14.5672 18.4704 14.4906C18.4873 14.4438 18.4873 14.4364 18.4704 14.3935C18.4604 14.3679 18.4381 14.331 18.4208 14.3114C18.3908 14.2773 18.3879 14.2629 18.3546 13.9902C18.3354 13.8332 18.3146 13.6467 18.3083 13.5759C18.2951 13.426 18.2762 13.375 18.2244 13.3488C18.1502 13.3114 18.0774 13.3369 18.0438 13.4122C18.0273 13.4492 18.0268 13.4684 18.039 13.5911C18.0533 13.7345 18.0698 13.8622 18.0807 13.9129C18.0857 13.9364 18.0693 13.9241 18.0018 13.8537C17.9549 13.8048 17.9164 13.7567 17.9161 13.7467C17.9159 13.7367 17.8939 13.6616 17.8672 13.5799C17.8405 13.4981 17.8001 13.3723 17.7774 13.3003C17.7547 13.2284 17.7289 13.1479 17.7201 13.1215C17.6869 13.0219 17.5744 13.002 17.5115 13.0847C17.4875 13.1161 17.4858 13.2047 17.5075 13.2914C17.5161 13.3258 17.5188 13.3539 17.5136 13.3539C17.5083 13.3539 17.4382 13.2902 17.3578 13.2124C17.1718 13.0323 17.1333 13.0114 17.0611 13.0515ZM19.3627 13.6682C19.3003 13.6978 19.2723 13.7943 19.3095 13.8508C19.3563 13.9219 19.4475 13.9282 19.4983 13.864C19.5791 13.7618 19.4767 13.6139 19.3627 13.6682ZM19.7206 13.9898C19.6825 14.0074 19.6499 14.0608 19.65 14.1056C19.65 14.1541 19.69 14.2078 19.7373 14.2229C19.8129 14.247 19.8876 14.191 19.8876 14.1102C19.8876 14.0579 19.8621 14.0106 19.8233 13.991C19.7788 13.9686 19.7667 13.9684 19.7206 13.9898ZM19.3967 14.1142C19.3567 14.1401 19.332 14.2033 19.3431 14.2507C19.3471 14.2678 19.3654 14.2951 19.3836 14.3114C19.4795 14.3972 19.624 14.2818 19.5671 14.1648C19.5313 14.0911 19.4634 14.071 19.3967 14.1142ZM17.4525 14.3787C17.3902 14.4151 17.3715 14.5045 17.4131 14.5667C17.4803 14.6671 17.6309 14.6267 17.6309 14.5082C17.6309 14.4832 17.6237 14.4482 17.6148 14.4306C17.586 14.3735 17.5055 14.3477 17.4525 14.3787ZM17.7645 14.5005C17.7352 14.5317 17.7265 14.5508 17.7265 14.5843C17.7265 14.6746 17.7787 14.7336 17.8584 14.7336C17.9261 14.7336 17.9725 14.6853 17.9725 14.615C17.9725 14.5227 17.918 14.46 17.8378 14.46C17.8126 14.46 17.7916 14.4716 17.7645 14.5005ZM25.0057 14.6851C24.9789 14.7136 24.973 14.7299 24.973 14.7755C24.973 14.8224 24.9784 14.8365 25.0077 14.8656C25.084 14.9415 25.2078 14.8856 25.2078 14.7752C25.2078 14.6646 25.079 14.6072 25.0057 14.6851ZM25.1442 15.203C25.107 15.2203 25.0736 15.2738 25.0736 15.3164C25.0736 15.3898 25.1467 15.4554 25.2135 15.4421C25.3262 15.4196 25.3489 15.2557 25.2464 15.204C25.2025 15.1818 25.1903 15.1817 25.1442 15.203ZM26.7612 15.4902C26.6418 15.5662 26.5211 15.6458 26.4929 15.6672C26.3881 15.7467 26.1934 15.8636 26.1658 15.8636C26.1151 15.8636 26.1235 15.8437 26.2038 15.7737C26.3095 15.6818 26.3363 15.6211 26.3024 15.5506C26.2634 15.4693 26.1776 15.4595 26.0949 15.527C25.7632 15.7974 25.7213 15.8279 25.6816 15.8279C25.5672 15.8279 25.4987 15.9388 25.5491 16.0424C25.5751 16.0959 25.6247 16.117 25.7388 16.1231C25.8384 16.1284 25.8396 16.1288 25.8786 16.1738C25.9002 16.1987 26.0211 16.2926 26.1472 16.3824C26.2733 16.4723 26.4187 16.5795 26.4704 16.6208C26.5221 16.6621 26.5806 16.699 26.6005 16.703C26.6468 16.7123 26.7004 16.6834 26.7229 16.6371C26.7696 16.541 26.7242 16.4792 26.4553 16.2728C26.318 16.1674 26.3187 16.1642 26.4745 16.1825C26.5788 16.1946 26.5481 16.1772 26.8573 16.4C27.0668 16.551 27.2103 16.646 27.2525 16.6616C27.3017 16.6799 27.3618 16.6566 27.3893 16.6087C27.4389 16.5222 27.4072 16.4644 27.2483 16.351C27.1829 16.3043 27.1314 16.2639 27.134 16.2612C27.1365 16.2585 27.2586 16.2639 27.4052 16.2733C27.6982 16.2921 27.7236 16.2889 27.7608 16.2284C27.7924 16.1772 27.7857 16.1171 27.7433 16.072C27.7019 16.028 27.6987 16.0273 27.4178 16.0004C27.3201 15.991 27.2379 15.9809 27.2351 15.978C27.2323 15.975 27.2417 15.9649 27.2561 15.9557C27.4254 15.8463 27.4556 15.8153 27.4556 15.7511C27.4556 15.7094 27.4275 15.6534 27.3982 15.6368C27.3641 15.6173 27.308 15.6202 27.2643 15.6437C27.2434 15.6549 27.1293 15.723 27.0108 15.7949L26.7952 15.9258L26.7228 15.9175C26.683 15.913 26.6505 15.9057 26.6505 15.9013C26.6506 15.8928 26.7339 15.8327 26.9668 15.6731C27.1113 15.574 27.1425 15.5395 27.1425 15.4782C27.1425 15.4324 27.1189 15.3878 27.0849 15.3691C27.02 15.3334 26.9901 15.3446 26.7612 15.4902ZM24.6039 15.8195C24.5098 15.8561 24.4522 15.8881 24.398 15.934C24.3739 15.9545 24.3428 15.9742 24.3288 15.978C24.292 15.9878 24.2204 15.9673 24.1119 15.9159C23.9438 15.8362 23.819 15.8563 23.6925 15.9836C23.6003 16.0764 23.4627 16.2569 23.3533 16.4286C23.2836 16.5379 23.2355 16.5998 23.189 16.6397C23.1285 16.6918 23.1185 16.6962 23.0613 16.6965C22.9368 16.697 22.8796 16.748 22.783 16.9445C22.707 17.0991 22.6917 17.1671 22.6917 17.3504C22.6917 17.5156 22.6759 17.6021 22.6268 17.7053C22.5792 17.8054 22.4755 17.931 22.3772 18.0078C22.2648 18.0955 22.2506 18.1258 22.2589 18.2602C22.2622 18.3126 22.2754 18.4237 22.2883 18.5072L22.3117 18.6589L22.2841 18.7034C22.2095 18.8236 22.2258 19.0299 22.3192 19.1459C22.3391 19.1706 22.3945 19.2221 22.4424 19.2602C22.5847 19.3736 22.6311 19.4265 22.6597 19.508C22.7061 19.6407 22.8501 19.7578 23.0269 19.8065C23.1501 19.8405 23.1807 19.8585 23.2256 19.9236C23.2915 20.0193 23.3963 20.1396 23.4608 20.1937C23.5775 20.2917 23.7118 20.3183 23.9112 20.2829L24.0268 20.2623L24.1105 20.308C24.1845 20.3485 24.2032 20.3537 24.2732 20.3535C24.3715 20.3532 24.4498 20.317 24.6743 20.1679C24.8396 20.0582 24.9082 20.0317 25.0987 20.0039C25.1995 19.9892 25.3122 19.9387 25.3845 19.8757C25.4488 19.8196 25.5463 19.6794 25.6462 19.4992C25.7383 19.3331 25.7748 19.2883 25.9293 19.152C26.0556 19.0404 26.1272 18.9511 26.182 18.8364C26.2397 18.7157 26.2398 18.6228 26.1827 18.3674C26.1564 18.25 26.1301 18.0917 26.12 17.9901C26.1011 17.8009 26.0733 17.7001 26.0114 17.5975C25.9563 17.5062 25.845 17.4277 25.7264 17.3967C25.6576 17.3787 25.5562 17.3319 25.5284 17.3053C25.5167 17.2941 25.4738 17.2341 25.4331 17.172C25.3278 17.0114 25.1699 16.85 24.9704 16.6992C24.8449 16.6043 24.8247 16.5938 24.6985 16.559C24.64 16.5428 24.5507 16.5071 24.5001 16.4796C24.4133 16.4323 24.403 16.4296 24.3132 16.4299C24.2416 16.4301 24.2016 16.4369 24.151 16.4574C24.1141 16.4724 24.0336 16.5036 23.9721 16.5268C23.9106 16.5499 23.839 16.5843 23.813 16.6032C23.7342 16.6604 23.6258 16.8087 23.5558 16.9551L23.4918 17.0891L23.3935 17.1431C23.2106 17.2436 23.1151 17.3524 23.0387 17.5475C23.0195 17.5966 22.9955 17.6808 22.9854 17.7345C22.9693 17.8196 22.961 17.8389 22.9203 17.8856C22.8129 18.009 22.7705 18.132 22.7914 18.2596C22.812 18.3855 22.8066 18.466 22.77 18.5815C22.7117 18.7649 22.7297 18.8579 22.8446 18.9669C22.8785 18.999 22.9472 19.0485 22.9974 19.0769C23.1184 19.1455 23.2708 19.3053 23.3345 19.4306C23.4043 19.5676 23.4979 19.6382 23.6527 19.6706C23.7249 19.6857 23.9342 19.6792 24.0321 19.6589C24.0741 19.6501 24.0907 19.6535 24.1517 19.6829C24.2875 19.7484 24.3935 19.7393 24.548 19.6487C24.6727 19.5757 24.7173 19.539 24.8556 19.3958C25.0026 19.2436 25.0242 19.2283 25.1335 19.1991C25.2778 19.1605 25.3118 19.1242 25.4585 18.8516C25.6151 18.5606 25.66 18.4212 25.6531 18.248C25.6467 18.0916 25.602 17.996 25.4623 17.841C25.4049 17.7772 25.3366 17.6949 25.3105 17.658C25.254 17.5783 25.1789 17.5028 25.053 17.3989C25.0021 17.3569 24.9003 17.2546 24.8268 17.1716C24.6755 17.0005 24.6187 16.961 24.4768 16.9278C24.2812 16.8821 24.1477 16.9325 23.9442 17.1289C23.7374 17.3283 23.5981 17.4836 23.5367 17.583C23.2577 18.0348 23.2748 18.0008 23.2354 18.183C23.2016 18.3395 23.199 18.4106 23.2232 18.5097C23.25 18.619 23.2932 18.6908 23.3839 18.7766C23.4294 18.8198 23.5436 18.9308 23.6377 19.0234C23.8306 19.2134 23.8783 19.2418 24.0033 19.2413C24.1129 19.2409 24.1592 19.2243 24.3915 19.1024C24.5636 19.0121 24.6237 18.9741 24.6766 18.9224C24.7135 18.8863 24.7795 18.8286 24.8234 18.7941C25.0126 18.6453 25.0945 18.4679 25.0816 18.2347C25.0745 18.107 25.0404 18.026 24.9667 17.9623C24.9368 17.9365 24.8543 17.8527 24.7833 17.7761C24.668 17.6516 24.644 17.6317 24.5581 17.589C24.5052 17.5627 24.4351 17.5351 24.4024 17.5276C24.3144 17.5076 24.184 17.5191 24.1231 17.5523C24.0587 17.5875 23.9216 17.7286 23.869 17.8138C23.8466 17.85 23.8046 17.9076 23.7756 17.9417C23.7139 18.0142 23.6914 18.0768 23.6749 18.2208C23.6514 18.4268 23.6989 18.5346 23.8507 18.62C23.9662 18.6849 24.1048 18.7236 24.1886 18.7144C24.3137 18.7007 24.4604 18.5915 24.5593 18.4385C24.6434 18.3086 24.619 18.1465 24.505 18.0784C24.4526 18.0471 24.3131 18.0053 24.2596 18.0049C24.1906 18.0043 24.119 18.0577 24.0684 18.1473C24.0402 18.1972 24.0391 18.2202 24.0624 18.2725C24.0874 18.3285 24.1463 18.3566 24.2016 18.339C24.2246 18.3316 24.2497 18.3176 24.2573 18.3078C24.2722 18.2887 24.3132 18.2833 24.3132 18.3004C24.3132 18.3198 24.2141 18.4081 24.1831 18.4164C24.129 18.4309 23.9619 18.3697 23.9477 18.3302C23.9436 18.319 23.9459 18.2751 23.9527 18.2328C23.9625 18.1715 23.9729 18.1471 24.0033 18.1129C24.0244 18.0893 24.0581 18.0432 24.0783 18.0105C24.1241 17.9364 24.2084 17.8417 24.2486 17.8192C24.2726 17.8057 24.29 17.8048 24.3312 17.8146C24.4334 17.8389 24.4997 17.8825 24.5723 17.9729C24.6099 18.0198 24.6639 18.0782 24.6922 18.1027C24.8099 18.2045 24.8052 18.1973 24.8052 18.276C24.8052 18.3997 24.7651 18.4721 24.6443 18.5665C24.6006 18.6006 24.5371 18.6563 24.5033 18.6903C24.4663 18.7273 24.4171 18.7622 24.3802 18.7776C24.3464 18.7916 24.2969 18.8167 24.2702 18.8333C24.1218 18.9251 24.0261 18.9616 23.9812 18.9434C23.9657 18.9371 23.8893 18.8686 23.8116 18.7911C23.7338 18.7135 23.6347 18.6179 23.5913 18.5786C23.4791 18.4769 23.4668 18.4258 23.5086 18.2345C23.5279 18.1459 23.5425 18.1118 23.6021 18.0165C23.641 17.9543 23.7058 17.85 23.7462 17.7845C23.8182 17.668 23.9267 17.5451 24.1338 17.3456C24.2575 17.2264 24.2999 17.2031 24.379 17.2107C24.474 17.2199 24.5184 17.2511 24.6513 17.4021C24.7173 17.4771 24.8104 17.5715 24.8582 17.6119C25.0244 17.7524 25.04 17.7681 25.1078 17.8627C25.1452 17.915 25.2127 17.9969 25.2576 18.0445C25.3577 18.1506 25.3793 18.1921 25.3789 18.2782C25.3786 18.3567 25.3276 18.5047 25.258 18.6288C25.2323 18.6747 25.1932 18.7472 25.1712 18.7899C25.1199 18.8896 25.1055 18.9025 25.0177 18.9264C24.9026 18.9578 24.8428 18.9998 24.6934 19.1539C24.5517 19.3002 24.4524 19.3786 24.3631 19.4149L24.3138 19.4349L24.2309 19.3962C24.1513 19.359 24.1439 19.3577 24.0489 19.3651C23.7482 19.3884 23.7041 19.3883 23.6521 19.3638C23.6111 19.3445 23.5961 19.3278 23.566 19.2678C23.4836 19.1032 23.3204 18.9257 23.1781 18.8459C23.1228 18.8148 23.0629 18.777 23.0452 18.7619L23.0128 18.7345L23.0434 18.6461C23.0803 18.5394 23.0924 18.3807 23.0728 18.2609C23.058 18.1701 23.0639 18.153 23.1367 18.0768C23.1879 18.0231 23.2351 17.9133 23.2553 17.8011C23.2918 17.5975 23.3733 17.4805 23.5385 17.3946C23.6787 17.3217 23.7126 17.2852 23.7838 17.1302C23.8183 17.055 23.871 16.9636 23.9047 16.9203L23.9645 16.8436L24.1224 16.7818C24.2092 16.7478 24.2928 16.72 24.3081 16.72C24.3234 16.72 24.3622 16.7355 24.3944 16.7544C24.4499 16.7869 24.5204 16.8138 24.6599 16.8556C24.7919 16.8952 25.0825 17.1579 25.218 17.3603C25.344 17.5484 25.4113 17.6015 25.6054 17.666C25.6734 17.6886 25.7401 17.718 25.7536 17.7314C25.8109 17.7882 25.8293 17.858 25.8565 18.1214C25.8634 18.1889 25.8867 18.3201 25.9083 18.4128C25.9534 18.6069 25.9571 18.6606 25.9295 18.7176C25.9011 18.7759 25.812 18.8729 25.6862 18.9825C25.5661 19.0872 25.5086 19.1635 25.3926 19.3725C25.2365 19.6538 25.1788 19.7046 24.9953 19.7224C24.8596 19.7356 24.7014 19.7986 24.559 19.8961C24.4884 19.9445 24.3963 20.0028 24.3544 20.0258L24.2782 20.0675L24.1909 20.0173C24.0911 19.96 24.0516 19.9556 23.9068 19.985C23.804 20.006 23.7232 20.0078 23.6793 19.9903C23.6373 19.9735 23.5308 19.8619 23.4581 19.7583C23.3634 19.6233 23.3059 19.5828 23.1381 19.533C22.9783 19.4854 22.944 19.4598 22.8985 19.3537C22.8528 19.247 22.7828 19.1649 22.6337 19.0432C22.5001 18.9341 22.4952 18.9203 22.5513 18.8079C22.5976 18.7149 22.5984 18.7006 22.5685 18.4969C22.5281 18.2223 22.5255 18.2544 22.5916 18.2074C22.6939 18.1347 22.8433 17.9251 22.9053 17.7671C22.9518 17.6489 22.9712 17.5263 22.9712 17.3513V17.1965L23.0195 17.098L23.0678 16.9995L23.1286 16.9923C23.2106 16.9825 23.2621 16.9574 23.3454 16.8869C23.4399 16.8069 23.4771 16.7612 23.5835 16.5944C23.68 16.443 23.8316 16.2432 23.8888 16.192C23.9079 16.1749 23.9322 16.1609 23.9428 16.1609C23.9534 16.1609 24.0029 16.1819 24.0527 16.2075C24.1545 16.2599 24.2842 16.2872 24.3677 16.2739C24.4294 16.2641 24.4927 16.2315 24.5556 16.1773C24.6123 16.1284 24.7162 16.0841 24.7516 16.0937C24.7997 16.1068 24.8976 16.2128 24.9671 16.327C25.0795 16.5118 25.2943 16.7362 25.4259 16.8064C25.4566 16.8228 25.523 16.8481 25.5735 16.8625C25.6239 16.8769 25.6843 16.9021 25.7077 16.9183C25.7604 16.955 25.835 17.0537 25.9442 17.2314C25.9948 17.3137 26.0711 17.4157 26.1356 17.4872C26.3216 17.6933 26.367 17.7881 26.355 17.9451C26.3311 18.2581 26.3317 18.2686 26.3863 18.4707C26.4412 18.6741 26.4658 18.8271 26.4547 18.897C26.4419 18.9772 26.3793 19.0644 26.2621 19.1649C26.202 19.2165 26.107 19.307 26.0511 19.3661C25.9573 19.4651 25.943 19.4868 25.8694 19.6413C25.7603 19.8703 25.7203 19.9312 25.6337 20.0012C25.5492 20.0693 25.4734 20.104 25.3583 20.1275C25.1895 20.1618 25.0503 20.2746 24.9467 20.4609C24.9175 20.5133 24.8767 20.5775 24.8559 20.6036C24.8201 20.6485 24.8167 20.6502 24.7921 20.6338C24.7189 20.5852 24.6859 20.5738 24.6186 20.5738C24.5539 20.5738 24.5364 20.5803 24.3902 20.659L24.2318 20.7442L24.1691 20.673C24.05 20.538 23.9002 20.4564 23.7521 20.446C23.6769 20.4408 23.6622 20.4432 23.6326 20.4655C23.5976 20.4921 23.5609 20.5791 23.507 20.7641C23.3963 21.1439 22.9278 21.7845 22.4486 22.2114C22.2366 22.4003 21.8551 22.7029 21.829 22.7029C21.8127 22.7029 21.7232 22.5479 21.6453 22.3848C21.5508 22.1872 21.5006 22.0141 21.4479 21.7038C21.4264 21.5776 21.4226 21.5136 21.4225 21.2815C21.4224 21.0413 21.4263 20.9805 21.4542 20.7835C21.4716 20.6601 21.4829 20.5419 21.4792 20.5209C21.4654 20.4424 21.3545 20.3788 21.2798 20.4065C21.261 20.4135 21.2083 20.4619 21.1628 20.514C21.0108 20.6881 20.754 20.8845 20.5167 21.0082C20.2087 21.1689 19.7574 21.3001 19.4476 21.3193L19.3291 21.3266L19.3218 21.2877C19.2908 21.123 19.3443 20.7358 19.4429 20.4103C19.4804 20.2868 19.4993 20.2426 19.5306 20.2058C19.5749 20.1536 19.591 20.0924 19.5755 20.0347C19.5668 20.0025 19.5555 19.9931 19.4986 19.9708C19.3978 19.9315 19.3692 19.9347 19.3218 19.9904C19.2679 20.0539 19.2475 20.0996 19.188 20.2904C19.0953 20.5874 19.0519 20.8822 19.0603 21.1566C19.0645 21.2905 19.0709 21.3444 19.0888 21.3976C19.1185 21.4854 19.1286 21.4999 19.2027 21.5622C19.2574 21.6082 19.2716 21.6143 19.3338 21.6185C19.4876 21.6289 19.7949 21.5782 20.0774 21.4958C20.4875 21.3762 20.8165 21.201 21.091 20.9559C21.1231 20.9272 21.1514 20.906 21.1539 20.9087C21.1565 20.9114 21.1531 20.9696 21.1466 21.0381C21.115 21.3678 21.1679 21.854 21.2726 22.1951C21.3325 22.3903 21.5134 22.7374 21.6215 22.8645C21.6834 22.9373 21.7907 23.0004 21.852 23C21.9106 22.9996 21.9726 22.9655 22.1251 22.8496C22.6853 22.4239 23.0398 22.0687 23.3696 21.6027C23.5596 21.3342 23.6964 21.06 23.7599 20.8206C23.7699 20.783 23.7817 20.7522 23.7863 20.7522C23.8231 20.7522 23.9168 20.8227 23.9904 20.9057C24.0891 21.0169 24.1438 21.0489 24.236 21.0493C24.2821 21.0495 24.3114 21.0418 24.3478 21.0201C24.3749 21.0039 24.4465 20.9635 24.507 20.9303L24.617 20.8699L24.6692 20.9055C24.7398 20.9537 24.8135 20.9704 24.8785 20.953C24.9601 20.9312 25.0852 20.7959 25.1688 20.6392C25.2142 20.554 25.2689 20.4845 25.314 20.4549C25.3354 20.4408 25.3985 20.4193 25.4541 20.4072C25.6517 20.3642 25.8476 20.2331 25.9571 20.0708C25.9909 20.0206 26.056 19.9017 26.1018 19.8066C26.1914 19.6203 26.2299 19.5719 26.4096 19.42C26.5756 19.2796 26.6607 19.1716 26.7014 19.0496C26.756 18.8859 26.739 18.6832 26.6429 18.353C26.6128 18.2493 26.6131 18.2643 26.6344 17.9506C26.6428 17.8271 26.6262 17.738 26.5717 17.6136C26.5264 17.5101 26.475 17.4377 26.3429 17.2909C26.2811 17.2222 26.2145 17.1357 26.1949 17.0986C26.1422 16.9991 25.9638 16.7514 25.9153 16.7106C25.8574 16.6618 25.7464 16.6075 25.6314 16.5717C25.5437 16.5444 25.5265 16.5338 25.4397 16.4531C25.3237 16.3452 25.2719 16.281 25.1631 16.1099C25.0755 15.9722 24.9853 15.8836 24.8739 15.826C24.799 15.7872 24.6936 15.7847 24.6039 15.8195ZM21.8887 16.5253C21.8497 16.5462 21.8194 16.595 21.8194 16.6367C21.8194 16.6998 21.8832 16.7676 21.9424 16.7676C21.9844 16.7676 22.0331 16.7317 22.0502 16.6882C22.071 16.6352 22.062 16.5896 22.0226 16.5494C21.9826 16.5087 21.9355 16.5002 21.8887 16.5253ZM22.3333 16.6575C22.3087 16.6809 22.2971 16.7046 22.2926 16.7405C22.2868 16.7862 22.2898 16.7944 22.3257 16.8327C22.3573 16.8662 22.3738 16.8746 22.4085 16.8746C22.4622 16.8746 22.499 16.8483 22.5201 16.7947C22.5677 16.6735 22.426 16.5694 22.3333 16.6575ZM22.2265 17.1054C22.1467 17.1902 22.194 17.3147 22.3061 17.3147C22.3757 17.3147 22.4233 17.2654 22.4233 17.1933C22.4233 17.1274 22.3661 17.0649 22.3059 17.0649C22.2737 17.0649 22.256 17.074 22.2265 17.1054ZM22.0324 19.5845C22.0112 19.5966 21.9841 19.6266 21.9722 19.651C21.9534 19.6895 21.9523 19.7015 21.9639 19.7426C21.9783 19.7937 22.0284 19.8362 22.0744 19.8363C22.1483 19.8364 22.2065 19.7606 22.1961 19.678C22.1848 19.5884 22.105 19.5429 22.0324 19.5845ZM21.4607 19.8592C21.3859 19.9388 21.4428 20.0742 21.5511 20.0742C21.6055 20.0742 21.6629 20.0084 21.6629 19.9458C21.6629 19.8737 21.6153 19.8244 21.5457 19.8244C21.5028 19.8244 21.4875 19.8307 21.4607 19.8592ZM20.3265 20.2375C20.308 20.2403 20.2804 20.2544 20.265 20.2688C20.2496 20.2831 20.2158 20.3123 20.1899 20.3335L20.1428 20.372L19.9327 20.3837C19.6378 20.4001 19.6354 20.4006 19.5934 20.4515C19.5618 20.4897 19.5586 20.5003 19.5637 20.5486C19.5681 20.5898 19.5778 20.6107 19.6043 20.6359C19.6372 20.6671 19.6451 20.669 19.748 20.6695L19.8568 20.6701L19.7549 20.7736C19.6458 20.8845 19.6276 20.9112 19.6276 20.9607C19.6276 21.0634 19.7363 21.1186 19.8244 21.0607C19.8449 21.0473 19.9335 20.967 20.0214 20.8825C20.1092 20.7979 20.1849 20.7287 20.1895 20.7286C20.1941 20.7285 20.1979 20.7771 20.1979 20.8366C20.1979 20.9163 20.2028 20.9537 20.2166 20.9784C20.2571 21.0514 20.3462 21.0639 20.4021 21.0044C20.4324 20.9721 20.4365 20.9585 20.4451 20.8589C20.4504 20.7985 20.4623 20.6907 20.4717 20.6194C20.481 20.5481 20.4887 20.4492 20.4887 20.3997C20.4887 20.3132 20.4872 20.3082 20.4506 20.2693C20.4128 20.2291 20.4013 20.2262 20.3265 20.2375ZM22.4486 20.2465C22.4287 20.2557 22.3632 20.3001 22.3032 20.3451C22.1379 20.469 21.9821 20.5756 21.8641 20.6453C21.6944 20.7456 21.6406 20.7995 21.6405 20.8694C21.6405 20.9161 21.6731 20.9739 21.7122 20.9963C21.7851 21.0381 21.8406 21.0124 22.1422 20.7978C22.206 20.7524 22.2609 20.7183 22.2643 20.7219C22.2723 20.7304 22.1912 21.0241 22.172 21.056C22.1542 21.0858 21.9373 21.261 21.7645 21.3853C21.6943 21.4358 21.6276 21.492 21.6164 21.5102C21.556 21.6075 21.6394 21.7424 21.7484 21.7236C21.7707 21.7198 21.8347 21.6801 21.9048 21.6267C21.9701 21.5769 22.0261 21.539 22.0293 21.5424C22.0325 21.5458 22.017 21.617 21.9948 21.7005C21.816 22.3747 21.8192 22.3559 21.8762 22.4165C21.915 22.4578 21.9667 22.465 22.0189 22.4363C22.0653 22.4108 22.0644 22.4131 22.2277 21.8584C22.2633 21.7374 22.2966 21.6334 22.3017 21.6273C22.3069 21.6211 22.3235 21.647 22.3398 21.6868C22.4266 21.8992 22.4602 21.9417 22.5414 21.9417C22.6074 21.9417 22.657 21.8964 22.6653 21.8287C22.6704 21.7872 22.6601 21.7569 22.5858 21.5938C22.5389 21.4908 22.4809 21.3697 22.4569 21.3246L22.4133 21.2428L22.4601 21.0808C22.4858 20.9916 22.5101 20.9187 22.5141 20.9187C22.5181 20.9187 22.5477 20.9843 22.5798 21.0644C22.6742 21.2994 22.6886 21.328 22.7237 21.35C22.813 21.4062 22.9265 21.3393 22.9265 21.2306C22.9265 21.1906 22.8795 21.0738 22.7326 20.7483L22.6262 20.5125L22.642 20.4569C22.6507 20.4263 22.6579 20.3879 22.658 20.3716C22.6581 20.3263 22.6174 20.2651 22.5744 20.246C22.5267 20.2248 22.4953 20.2249 22.4486 20.2465Z" fill="#D3736D"/>
</g>
<defs>
<clipPath id="clip0_330_192">
<rect width="40" height="40" fill="white" transform="translate(0.5)"/>
</clipPath>
</defs>
</svg>
