<svg width="16" height="16" viewBox="0 0 16 16" fill="none" xmlns="http://www.w3.org/2000/svg">
<path id="instagram" fill-rule="evenodd" clip-rule="evenodd" d="M8 0C5.82667 0 5.556 0.00933333 4.70133 0.0493333C1.79467 0.182667 0.181333 1.79467 0.048 4.70133C0.00933333 5.556 0 5.828 0 8C0 10.1733 0.00933333 10.4453 0.048 11.2987C0.181333 14.204 1.79467 15.8187 4.70133 15.952C5.556 15.9907 5.82667 16 8 16C10.1733 16 10.4453 15.9907 11.3 15.952C14.2013 15.8187 15.8213 14.2067 15.952 11.2987C15.9907 10.4453 16 10.1733 16 8C16 5.828 15.9907 5.556 15.952 4.70133C15.8213 1.79867 14.2067 0.181333 11.3 0.0493333C10.4453 0.00933333 10.1733 0 8 0ZM7.00007 1.44141C9.13607 1.44141 9.38941 1.44941 10.2334 1.48807C12.4027 1.58674 13.4134 2.61474 13.5134 4.76674C13.5507 5.61074 13.5587 5.86274 13.5587 7.99874C13.5587 10.1347 13.5507 10.3881 13.5134 11.2307C13.4134 13.3814 12.4041 14.4121 10.2334 14.5107C9.38941 14.5481 9.13741 14.5574 7.00007 14.5574C4.86407 14.5574 4.61074 14.5494 3.76807 14.5107C1.59474 14.4107 0.588073 13.3787 0.488073 11.2307C0.45074 10.3881 0.441406 10.1347 0.441406 7.99874C0.441406 5.86274 0.45074 5.60941 0.488073 4.76674C0.58674 2.61341 1.59741 1.58541 3.76807 1.48674C4.61074 1.44807 4.86407 1.44141 7.00007 1.44141ZM2.8916 7.99862C2.8916 5.72929 4.7316 3.89062 6.9996 3.89062C9.2676 3.89062 11.1076 5.73063 11.1076 7.99862C11.1076 10.268 9.2676 12.1066 6.9996 12.1066C4.7316 12.1066 2.8916 10.268 2.8916 7.99862ZM6.99967 10.6654C5.52634 10.6654 4.33301 9.47203 4.33301 7.9987C4.33301 6.5267 5.52634 5.33203 6.99967 5.33203C8.47167 5.33203 9.66768 6.52536 9.66768 7.9987C9.66768 9.47203 8.47167 10.6654 6.99967 10.6654ZM10.3096 3.73148C10.3096 3.20082 10.7402 2.77148 11.2696 2.77148C11.8016 2.77148 12.2309 3.20082 12.2309 3.73148C12.2309 4.26215 11.8002 4.69148 11.2696 4.69148C10.7389 4.69148 10.3096 4.26082 10.3096 3.73148Z" fill="#D3736D"/>
</svg>
