<svg width="47" height="48" viewBox="0 0 47 48" fill="none" xmlns="http://www.w3.org/2000/svg">
<path d="M42.6199 8.39958C42.6199 10.6331 38.6657 14.7253 36.3462 14.7253C34.0268 14.7253 32.1465 12.9146 32.1465 10.6811C32.1465 8.44752 34.0268 6.63687 36.3462 6.63687C38.6657 6.63687 42.6199 6.16603 42.6199 8.39958Z" fill="#709170"/>
<path d="M1.81406 6.53289C4.17968 5.89902 8.51644 7.9848 9.0846 10.1052C9.65276 12.2256 8.17202 15.1281 5.8064 15.762C3.44077 16.3958 2.38222 15.1862 1.81406 13.0658C1.2459 10.9454 -0.551567 7.16676 1.81406 6.53289Z" fill="#709170"/>
<path d="M10.5259 1.40017C13.4813 1.40017 13.1702 3.31857 14.622 4.82218C15.2662 7.04366 14.4988 9.32127 12.1332 9.95513C10.4443 9.95513 9.4349 9.53495 8.86674 7.41454C8.29858 5.29413 8.97046 2.74815 10.5259 1.40017Z" fill="#709170"/>
<path d="M45.8346 21.4655C44.6615 23.3662 40.183 25.0523 38.2092 23.8341C36.2354 22.616 34.551 19.1146 35.7241 17.2139C36.8971 15.3132 39.3499 14.8552 41.3237 16.0733C43.2976 17.2914 47.0076 19.5648 45.8346 21.4655Z" fill="#709170"/>
<path d="M20.3243 45.6579C18.39 44.5412 18.2313 39.3915 19.3911 37.3828C20.5508 35.374 23.2018 34.9877 25.1361 36.1044C27.0705 37.2212 27.4985 39.3459 26.3388 41.3546C25.1791 43.3633 22.2587 46.7747 20.3243 45.6579Z" fill="#709170"/>
<path d="M11.0387 40.1745C10.0212 38.412 11.0284 34.5509 12.8587 33.4942C14.6889 32.4375 17.8015 32.1401 18.8191 33.9025C19.8366 35.665 18.7331 37.5706 16.9029 38.6272C15.0726 39.6839 12.0563 41.9369 11.0387 40.1745Z" fill="#709170"/>
<path d="M31.7834 11.1994C31.7834 16.096 27.5562 19.2359 22.9173 19.2359C18.2784 19.2359 14.9326 15.4738 14.9326 10.5772C14.9326 5.68058 17.3695 1.39999 23.2284 0.93335C27.8673 0.93335 31.7834 6.30276 31.7834 11.1994Z" fill="#D3736D"/>
<path d="M39.0942 29.5536C37.8499 34.1681 35.3611 36.4495 31.0577 37.9013C26.4188 37.9013 22.0879 31.9097 22.0879 27.013C22.0879 22.1164 24.6041 18.458 29.243 18.458C33.8819 18.458 39.0942 24.657 39.0942 29.5536Z" fill="#D3736D"/>
<path d="M20.7416 24.9394C20.7416 29.8361 15.8404 33.2352 11.2014 33.2352C6.56254 33.2352 2.12793 30.873 2.12793 25.9764C2.12793 21.0798 6.56254 14.7771 11.2014 14.7771C15.8404 14.7771 20.7416 20.0428 20.7416 24.9394Z" fill="#D3736D"/>
<path fill-rule="evenodd" clip-rule="evenodd" d="M22.8162 0.0671812C22.4037 0.161584 22.127 0.263619 21.8812 0.412046C21.7616 0.484294 21.5716 0.567966 21.4589 0.598077C21.2787 0.646181 21.2157 0.640307 20.937 0.54928C20.3195 0.347569 19.8028 0.379484 19.2923 0.65076C18.9617 0.826523 18.8194 1.01413 18.3394 1.90709C18.0307 2.48133 17.9193 2.64363 17.6419 2.92328C17.4603 3.1063 17.1462 3.35792 16.9438 3.48248C16.4011 3.81652 16.0133 4.14062 15.7203 4.50487C15.2898 5.04011 15.22 5.24321 15.1194 6.25477C15.0491 6.96064 14.927 7.27253 14.3128 8.31536C14.1328 8.62109 14.066 8.94491 14.0643 9.52113C14.0628 10.0446 14.146 10.4203 14.3721 10.911C14.5196 11.231 14.5306 11.2829 14.5141 11.5816C14.4641 12.4844 14.4795 12.6715 14.6323 13.0155C14.7568 13.2958 14.8707 13.4386 15.4812 14.0793C16.0437 14.6695 16.2286 14.8961 16.3947 15.1983C16.7393 15.8254 17.0164 16.0703 17.6459 16.3044C18.0529 16.4557 18.5294 16.5533 18.8736 16.5559C19.312 16.5592 19.4815 16.6152 19.7921 16.8591C19.9508 16.9838 20.1923 17.1739 20.3287 17.2818C21.4998 18.2072 22.1032 18.2546 23.4902 17.53C23.9605 17.2843 24.3832 17.1034 24.7948 16.9718C25.9473 16.6031 26.515 16.2131 27.3768 15.1977C27.9898 14.4753 28.0485 14.4325 28.3199 14.5097C28.784 14.6418 29.1486 14.5245 29.5246 14.1221C29.8742 13.7479 30.0252 13.2394 30.0592 12.3217C30.0724 11.9655 30.1025 11.5388 30.1262 11.3735C30.2022 10.8416 30.427 10.0688 30.6576 9.54648C30.8571 9.09468 30.8822 9.00402 30.8811 8.73705C30.8797 8.39144 30.7984 8.1692 30.4757 7.62923C30.3608 7.43719 30.1859 7.10019 30.0867 6.88035C29.9287 6.52993 29.854 6.42808 29.4815 6.05528C28.8303 5.40366 28.0769 4.82156 27.3189 4.38447C26.795 4.08239 26.4393 3.71953 26.2257 3.26953C25.9709 2.73276 25.6877 2.50797 25.133 2.40214C24.7299 2.32518 23.9241 2.32092 23.6143 2.39409C23.36 2.45413 23.3176 2.45025 22.7379 2.31315C21.9905 2.13632 21.5314 2.12319 21.0921 2.26597C20.6341 2.41486 20.4567 2.55691 20.0866 3.07101C19.9034 3.32541 19.3606 3.94983 18.8802 4.45861C18.3998 4.9674 17.9228 5.49719 17.8201 5.63595C17.5625 5.98414 17.3742 6.4001 17.1898 7.02836C17.0986 7.33904 16.9569 7.69672 16.8511 7.88321C16.7511 8.05958 16.59 8.38108 16.4931 8.59769C16.3393 8.94149 16.317 9.03251 16.3169 9.31522C16.3168 9.59472 16.3402 9.69273 16.488 10.0321C16.6855 10.4856 16.699 10.6904 16.5542 11.0348C16.2769 11.6943 16.4791 12.353 17.1236 12.8892C17.4914 13.1953 17.875 13.3946 18.3182 13.5097C18.7523 13.6226 18.8798 13.7195 19.1782 14.1635C19.5162 14.6666 20.0426 15.1344 20.4244 15.2711C20.6721 15.3597 21.7399 15.4677 22.3378 15.4645C22.7075 15.4625 22.8425 15.4419 23.0468 15.3562C23.4135 15.2023 23.8658 14.8631 24.3502 14.3787C24.7682 13.9606 24.7775 13.9544 24.9048 14.0105C24.9788 14.0431 25.1356 14.0587 25.2704 14.0468C25.532 14.0237 25.7261 13.8887 26.2867 13.3394C26.4467 13.1826 26.7047 12.9832 26.8599 12.8961C27.3402 12.6269 27.8734 11.9659 28.0791 11.3844C28.2335 10.9483 28.2916 10.558 28.3186 9.77775C28.3326 9.37072 28.364 8.8988 28.3884 8.72905C28.4402 8.36767 28.3652 7.96984 28.1828 7.63885C28.021 7.34519 27.5723 6.89871 26.8386 6.30148C26.4361 5.97378 25.9848 5.55038 25.6601 5.19566C25.1969 4.68974 25.0936 4.60107 24.799 4.45625C23.6551 3.89409 22.6202 4.01546 21.5622 4.83581C21.5063 4.87915 21.3567 4.92956 21.2296 4.94793C20.8872 4.99733 20.4866 5.2236 20.1345 5.56638C19.8694 5.82448 19.7863 5.94584 19.5783 6.37831C19.3687 6.81397 19.3009 6.91254 19.1043 7.06707C18.85 7.26688 18.7535 7.40107 18.6587 7.68687C18.5805 7.92262 18.574 8.52752 18.6448 8.97978C18.696 9.3068 18.6938 9.32604 18.5577 9.74625C18.3252 10.4638 18.3745 11.0059 18.7112 11.4351C19.0576 11.8767 19.7348 12.2523 20.1845 12.2523C20.4165 12.2523 20.6141 12.3392 21.0339 12.6256C21.5075 12.9487 21.6566 13.0059 22.0334 13.0088C22.5695 13.0129 22.9972 12.8131 23.6702 12.2442C24.056 11.9181 24.1495 11.8756 24.3997 11.912C24.5048 11.9274 24.6951 11.9133 24.8226 11.8807C25.0109 11.8327 25.1008 11.7724 25.3001 11.5604C25.6009 11.2404 25.722 10.9907 25.8954 10.3328C26.0855 9.61128 26.177 9.04528 26.1409 8.81443C26.0971 8.53515 25.9357 8.2229 25.7407 8.04033C25.0721 7.41397 23.9553 6.53405 23.6929 6.42679C23.4094 6.31092 22.9315 6.30042 22.6069 6.40296C22.3576 6.48169 21.7326 6.86837 21.5406 7.06268C21.3628 7.24256 20.8738 8.00019 20.7673 8.26064C20.6287 8.59977 20.6086 9.15485 20.7234 9.4771C20.906 9.98968 21.2145 10.242 21.9464 10.4774C22.28 10.5847 22.435 10.6093 22.7509 10.605C23.3042 10.5975 23.4915 10.5323 23.7382 10.2615C24.0074 9.96595 24.1275 9.70518 24.1536 9.3599C24.179 9.02266 24.1206 8.87752 23.8578 8.62502C23.3161 8.10439 22.7214 8.10643 22.5039 8.6296C22.4277 8.81263 22.422 8.86878 22.4644 9.01905C22.5291 9.24875 22.6943 9.38459 22.909 9.38459C23.1384 9.38459 23.1216 9.46434 22.8842 9.50222C22.7309 9.52664 22.6068 9.50305 22.2804 9.38737C21.8238 9.22558 21.729 9.14653 21.729 8.9277C21.729 8.74574 21.8058 8.58293 22.0818 8.17932C22.2423 7.94459 22.3654 7.82405 22.5876 7.68423C22.9312 7.46804 23.102 7.41915 23.2727 7.48816C23.4109 7.54403 23.9192 7.93793 24.3164 8.29685C24.4599 8.42655 24.6899 8.62095 24.8274 8.72886C24.9649 8.83677 25.0774 8.96115 25.0774 9.00527C25.0774 9.1833 24.7675 10.3792 24.6751 10.5577L24.576 10.7491L24.1636 10.7738C23.6749 10.803 23.5665 10.8518 23.107 11.2494C22.3422 11.911 22.0562 11.9974 21.6586 11.687C21.2641 11.3791 20.7479 11.1474 20.3809 11.1134C20.2015 11.0967 19.9998 11.0536 19.9326 11.0176C19.729 10.9083 19.4676 10.6303 19.4686 10.524C19.4691 10.4697 19.5275 10.2501 19.5985 10.036C19.7743 9.50578 19.7922 9.30005 19.7076 8.78455C19.6133 8.21027 19.6357 8.09815 19.8812 7.91406C20.0975 7.7519 20.2994 7.44316 20.5363 6.91226C20.6639 6.62632 20.7427 6.51795 20.9572 6.33335C21.134 6.18123 21.2763 6.09765 21.3881 6.0803C21.4799 6.06601 21.6322 6.04233 21.7264 6.02762C21.8266 6.01199 21.9937 5.92646 22.1287 5.82161C22.5175 5.51971 22.7181 5.40153 22.9569 5.33396C23.4005 5.20833 23.9197 5.27272 24.352 5.50699C24.4434 5.55648 24.7565 5.85236 25.0478 6.16453C25.3391 6.47669 25.8121 6.91786 26.0988 7.14482C26.6937 7.61582 27.1841 8.09061 27.2804 8.28867C27.3172 8.36452 27.3339 8.46748 27.3182 8.52276C27.3028 8.57701 27.273 9.02729 27.252 9.52336C27.2111 10.4882 27.1737 10.7472 27.0273 11.0784C26.8919 11.3848 26.5428 11.7672 26.2438 11.9367C26.1004 12.018 25.8137 12.2471 25.6067 12.4459C25.3997 12.6447 25.2008 12.8066 25.1648 12.8057C25.1287 12.8048 25.0503 12.7743 24.9905 12.738C24.8625 12.6601 24.6085 12.6495 24.4461 12.7152C24.3828 12.7407 24.0923 13.0167 23.8006 13.3283C23.2229 13.9454 22.8933 14.2072 22.5829 14.2955C22.3102 14.3731 20.8241 14.2417 20.6569 14.1251C20.4476 13.9793 20.2069 13.7208 20.0173 13.4385C19.6217 12.8492 19.2203 12.5505 18.6351 12.4101C18.4592 12.3679 18.2455 12.2958 18.1601 12.2499C17.9327 12.1276 17.5654 11.8073 17.5347 11.7044C17.5201 11.6555 17.5517 11.5037 17.605 11.3672C17.6844 11.1638 17.7023 11.0274 17.7042 10.6103C17.7065 10.1155 17.7019 10.0909 17.5395 9.71642L17.3725 9.33131L17.4649 9.10277C17.5157 8.9771 17.6611 8.68848 17.7878 8.46138C17.92 8.22475 18.0685 7.87456 18.1358 7.64112C18.307 7.04732 18.4541 6.66989 18.6058 6.43544C18.6794 6.32161 19.1539 5.78863 19.6602 5.25107C20.1666 4.71347 20.7033 4.10163 20.8529 3.89141C21.1684 3.44816 21.2308 3.39839 21.5599 3.32767C21.7588 3.28493 21.8633 3.28887 22.1253 3.34895C22.8 3.50367 23.3018 3.60293 23.4094 3.60293C23.4709 3.60293 23.6581 3.56782 23.8253 3.52485C24.0873 3.4576 24.1961 3.45385 24.6129 3.49765C25.1527 3.55436 25.1642 3.56185 25.3651 3.98341C25.6272 4.53364 26.1832 5.05047 27.0251 5.52651C27.4331 5.75713 28.2024 6.36309 28.6848 6.83368C28.9955 7.13673 29.0801 7.24949 29.1571 7.46365C29.2087 7.60712 29.3389 7.86906 29.4463 8.0457C29.5538 8.22239 29.6809 8.4488 29.729 8.54889L29.8162 8.73085L29.6433 9.11554C29.2696 9.9469 29.0433 10.9783 28.9949 12.0704C28.9661 12.7184 28.9415 12.9245 28.8734 13.088C28.7539 13.3745 28.6797 13.4312 28.5073 13.3672C28.314 13.2956 27.9483 13.3036 27.7335 13.3843C27.4376 13.4953 27.1847 13.7199 26.6167 14.3761C26.0835 14.9922 25.6069 15.4211 25.2731 15.5855C25.1775 15.6325 24.7763 15.7782 24.3817 15.9091C23.872 16.0782 23.5124 16.2324 23.1401 16.4412C22.5968 16.7461 22.2301 16.8776 21.9235 16.8776C21.7052 16.8776 21.1892 16.5638 20.6636 16.1113C20.1244 15.647 19.8076 15.4993 19.2285 15.4418C18.5208 15.3715 18.2235 15.3131 17.9307 15.1865C17.5967 15.0422 17.5069 14.9502 17.2573 14.4969C17.0988 14.2092 16.895 13.9595 16.3292 13.3601C15.5007 12.4823 15.505 12.4912 15.5987 11.8504C15.671 11.3563 15.6232 11.0586 15.3847 10.5174C15.1552 9.99634 15.0949 9.66794 15.1527 9.25384C15.1865 9.01138 15.2332 8.88168 15.3487 8.70916C15.576 8.3698 15.8892 7.72891 16.0056 7.36494C16.1154 7.02165 16.1849 6.61827 16.2314 6.05435C16.2471 5.86356 16.2949 5.6346 16.3375 5.54557C16.4648 5.27956 16.9793 4.79427 17.4374 4.5082C18.3676 3.9273 18.7827 3.45436 19.3827 2.2922C19.5119 2.04197 19.6644 1.78748 19.7215 1.72675C19.9085 1.52782 20.2117 1.52157 20.849 1.70339C21.3375 1.8428 21.6607 1.79178 22.2943 1.47527C22.6209 1.31223 22.8624 1.22671 23.1423 1.17523C23.6934 1.07379 23.8417 1.10742 24.1926 1.41338C24.3511 1.55154 24.5318 1.69238 24.5943 1.72643C24.7354 1.80325 25.9068 2.28299 26.3058 2.42735C26.4684 2.48619 26.6646 2.58096 26.7418 2.63794C27.0847 2.89113 27.5835 3.41653 27.7619 3.71227C28.0001 4.10727 28.3034 4.45588 28.5331 4.59844C28.6296 4.65838 28.8553 4.76315 29.0347 4.83132C29.4182 4.97711 29.8013 5.20635 30.0878 5.46148C30.424 5.76088 30.5314 6.05583 30.7075 7.16443C30.8845 8.27794 30.9993 8.74191 31.2456 9.33941C31.4565 9.85083 31.6004 10.3572 31.6004 10.5879C31.6004 10.6873 31.5561 10.8201 31.4866 10.9288C31.2275 11.3344 30.8915 12.291 30.7959 12.8955C30.7613 13.1141 30.7127 13.5893 30.688 13.9514C30.6356 14.7176 30.5538 15.0007 30.2998 15.2953C30.1502 15.4688 30.1133 15.4894 30.0057 15.46C29.7866 15.4 29.3232 15.4245 29.0884 15.5085C28.7593 15.6263 28.4084 15.9271 27.9544 16.4811C27.4218 17.1308 27.3226 17.1886 26.6394 17.2478C25.9879 17.3041 25.7326 17.3772 25.2626 17.6415C24.8467 17.8753 24.537 18.1205 24.0285 18.6181C23.3687 19.2638 23.1973 19.3288 22.6359 19.1471C21.979 18.9343 21.7976 18.9042 21.1202 18.8956C20.2583 18.8846 20.1201 18.8269 19.8394 18.361C19.6216 17.9997 19.4387 17.823 19.2157 17.7586C19.0951 17.7238 19.0242 17.6607 18.9338 17.5077C18.776 17.2407 18.4845 16.958 18.2198 16.8153C18.1031 16.7525 17.7199 16.5975 17.3682 16.471C17.0166 16.3445 16.5841 16.1529 16.4072 16.0452C16.095 15.8552 15.9829 15.7617 15.1867 15.0275C14.9798 14.8367 14.6892 14.5689 14.5409 14.4325C14.2104 14.1286 13.9849 14.0123 13.7238 14.0109C13.6141 14.0104 13.1836 14.101 12.7671 14.2123C11.6826 14.5021 11.7132 14.4986 11.4508 14.3627C10.6698 13.9581 10.1599 13.8848 9.36977 14.0631C9.11299 14.121 8.75036 14.3702 8.35698 14.7589C7.97295 15.1383 7.42916 15.5396 7.01608 15.7482C6.75494 15.8801 6.62062 15.9165 6.2829 15.9468C5.73467 15.996 5.53489 16.1013 5.0942 16.5732C4.65217 17.0464 4.36607 17.6035 4.24666 18.2234C4.09019 19.0359 4.00083 19.2248 3.52357 19.7525C3.05361 20.272 2.94368 20.5121 2.94416 21.0173C2.94438 21.2445 2.98525 21.5734 3.05 21.8693C3.11623 22.1717 3.14163 22.3789 3.11819 22.4254C3.06988 22.5214 2.69537 22.8891 2.30365 23.225C1.95759 23.5217 1.66218 23.9516 1.58752 24.2669C1.55964 24.3846 1.46741 24.5608 1.37248 24.6774C1.14578 24.956 1.09921 25.1594 1.1834 25.5032C1.37196 26.2731 1.69115 27.1246 1.94828 27.5436C2.22885 28.0007 2.28882 28.2585 2.28434 28.9886C2.28021 29.6587 2.34396 30.1042 2.47742 30.3374C2.73529 30.7881 3.19829 31.1886 3.88603 31.5559C4.20278 31.725 4.31237 31.8107 4.41508 31.9695C4.75127 32.4892 5.33921 32.8307 6.30425 33.067C6.74407 33.1746 6.80304 33.1753 7.85689 33.0857C8.16555 33.0594 8.19704 33.0659 8.44395 33.2071C8.58746 33.2891 8.86142 33.4761 9.05276 33.6227C9.4998 33.9651 9.94557 34.2005 10.2723 34.2668C10.5629 34.3257 10.6699 34.3028 11.3575 34.0341C11.74 33.8846 11.7653 33.8811 12.4664 33.8784C13.1123 33.876 13.2122 33.8865 13.4664 33.9837C13.7298 34.0843 13.7725 34.0881 14.097 34.0389C15.1451 33.88 15.1403 33.8814 15.7279 33.5848C16.1358 33.379 16.7869 33.1347 17.0492 33.0891C17.1709 33.068 17.2828 32.9947 17.4495 32.827C17.8072 32.4672 18.3896 31.619 18.6826 31.0312C18.8853 30.6246 19.0053 30.4432 19.1921 30.2611C19.4314 30.028 19.443 30.0227 19.7456 30.0048C19.927 29.9941 20.1243 29.9507 20.223 29.8997C20.4448 29.7852 20.7377 29.3898 20.9608 28.9038C21.1252 28.5459 21.141 28.48 21.1384 28.1637C21.1365 27.9434 21.0997 27.6911 21.0374 27.4732C20.9256 27.0823 20.9105 26.4816 20.9954 25.8045C21.0555 25.325 21.02 24.5317 20.923 24.1857C20.8354 23.8735 20.6607 23.5744 20.4231 23.33C20.2118 23.1125 20.1653 23.0253 19.9924 22.5213C19.7582 21.8386 19.2062 20.9003 18.7268 20.3698C18.14 19.7203 17.6363 19.0858 17.3965 18.6939C17.1303 18.2589 16.9907 18.1451 16.4795 17.9456C16.0014 17.759 15.8606 17.6791 15.2032 17.2208C14.8946 17.0057 14.588 16.8062 14.5218 16.7775C14.2833 16.6743 13.9518 16.6564 13.0929 16.7005L12.219 16.7454L11.5999 16.5302C10.9857 16.3167 10.9768 16.3152 10.473 16.3304C9.90365 16.3476 9.94575 16.3315 9.03102 16.8813C8.75597 17.0466 8.41582 17.2314 8.27518 17.292C7.91786 17.4458 7.42807 17.7961 7.2319 18.0381C6.95281 18.3824 6.46406 19.1891 6.23968 19.676C6.12239 19.9304 5.94584 20.4077 5.84739 20.7367C5.67014 21.3288 5.66514 21.3384 5.35599 21.6849C4.97192 22.1153 4.63082 22.6122 4.48205 22.9577C4.37651 23.203 4.36955 23.2643 4.36511 23.9912C4.35942 24.9188 4.46139 25.871 4.61629 26.3365C4.74997 26.7381 4.75819 27.0602 4.63929 27.2378C4.44434 27.529 4.24753 28.0568 4.24753 28.2884C4.24753 28.6906 4.33737 29.0551 4.53902 29.4711C4.77593 29.9599 5.14948 30.3487 5.61734 30.5933C5.89922 30.7407 6.49868 30.8925 7.24638 31.006C7.35306 31.0221 7.8077 31.1591 8.2567 31.3104C8.82937 31.5032 9.34907 31.6395 9.99784 31.767C10.5065 31.867 11.0729 32.0024 11.2565 32.0681C11.4401 32.1338 11.6701 32.1875 11.7676 32.1875C11.8651 32.1875 12.3501 32.1147 12.8453 32.0256C13.3499 31.9349 13.8993 31.8634 14.0953 31.863C14.5208 31.8622 15.0637 31.7245 15.3274 31.5508C15.4329 31.4813 15.6361 31.3494 15.7788 31.2578C16.3692 30.879 16.9638 30.1093 17.465 29.0749C17.5023 28.9979 17.6326 28.8862 17.7876 28.7983C18.2175 28.5546 18.4755 28.2667 18.7207 27.7574C19.0674 27.037 19.4677 25.7181 19.4677 25.2961C19.4677 25.0067 19.3677 24.6675 19.1342 24.1651C19.0272 23.9347 18.8788 23.5902 18.8045 23.3994C18.5582 22.7668 18.3253 22.4724 17.7691 22.0908C17.4363 21.8624 17.2791 21.6709 17.0966 21.2717C16.7767 20.5715 16.223 19.5876 16.0278 19.3725C15.8992 19.2307 15.6814 19.0724 15.419 18.9298C14.5977 18.4836 14.5246 18.4595 13.6119 18.3331C12.7242 18.2102 12.6293 18.2126 12.1516 18.371C11.8664 18.4655 11.8484 18.4661 11.4776 18.3917C11.0135 18.2987 10.4674 18.2429 10.0312 18.244C9.77093 18.2446 9.65674 18.2691 9.46588 18.3653C9.07742 18.5611 8.73883 18.8921 8.40307 19.404C8.23422 19.6615 8.04092 19.9463 7.97347 20.037C7.90607 20.1276 7.76265 20.4151 7.65476 20.6759C7.54687 20.9366 7.39306 21.2314 7.31296 21.331C7.16202 21.5185 6.97916 21.892 6.92689 22.1194C6.91037 22.1914 6.81622 22.3579 6.71772 22.4895C6.51273 22.7632 6.27716 23.2753 6.18723 23.6426C6.15336 23.7808 6.07491 24.0005 6.01285 24.1308C5.82351 24.5282 5.86935 24.9114 6.21384 25.8112C6.38888 26.2685 6.39675 26.3097 6.38701 26.7198C6.37144 27.3748 6.48498 27.7721 6.82222 28.2425C7.18859 28.7535 7.94195 29.2622 8.72661 29.5284C9.04171 29.6353 9.20213 29.6582 9.81377 29.6834C10.5016 29.7117 10.5403 29.7185 10.7487 29.8468C11.2295 30.1426 11.2941 30.1638 11.8354 30.204C12.451 30.2497 12.7125 30.2129 13.1732 30.0159C13.3586 29.9365 13.6228 29.8502 13.7603 29.8239C14.2352 29.7332 14.8492 29.5066 15.0414 29.3511C15.2923 29.1481 15.8643 28.36 16.0711 27.9322C16.2563 27.5492 16.4071 27.0843 16.5737 26.3827C16.6342 26.1283 16.7343 25.7432 16.7964 25.527C16.9333 25.0497 16.9859 24.2963 16.9041 23.9855C16.8746 23.8733 16.7644 23.6695 16.6593 23.5327C16.5542 23.3958 16.3676 23.1276 16.2447 22.9368C16.1218 22.746 15.9189 22.4755 15.7939 22.3355C15.6688 22.1956 15.4931 21.9499 15.4034 21.7896C15.0959 21.2396 14.7613 21.003 13.9885 20.789C13.7373 20.7194 13.3744 20.5817 13.182 20.483C12.6765 20.2236 12.4722 20.1867 12.0523 20.279C11.8639 20.3204 11.6305 20.3979 11.5336 20.4514C11.3985 20.526 11.2381 20.5562 10.8448 20.581C10.1112 20.6273 9.9574 20.7155 9.22009 21.5132C8.65199 22.1278 8.34315 22.5668 8.12802 23.0657C7.97682 23.4163 7.9786 23.7348 8.13676 24.641C8.253 25.3069 8.25709 25.3709 8.20308 25.6753C8.12798 26.0988 8.18908 26.6862 8.33424 26.936C8.46883 27.1677 9.04563 27.6884 9.31368 27.8203C9.62195 27.972 10.1632 28.0353 10.5959 27.9702L10.942 27.9181L11.2802 28.0825C11.7626 28.3169 12.0895 28.4068 12.4649 28.4086C12.7513 28.4098 12.835 28.3891 13.1289 28.2439C13.5462 28.0376 13.8468 27.7437 14.2989 27.0996C14.6725 26.5674 14.8211 26.2179 14.987 25.4821C15.1079 24.9458 15.0911 24.7233 14.889 24.1857C14.5761 23.3532 14.3426 22.9639 14.0275 22.7488C13.8028 22.5954 12.9923 22.2725 12.5751 22.1702C12.2016 22.0786 11.9952 22.0886 11.4722 22.2238C10.9838 22.3501 10.9091 22.3875 10.5965 22.6619C10.4889 22.7564 10.3128 22.8742 10.2051 22.9238C9.97484 23.0298 9.75732 23.2765 9.68305 23.5159C9.58773 23.823 9.72019 25.2913 9.87987 25.6986C9.96641 25.9192 10.1774 26.1556 10.3937 26.2741C10.61 26.3926 11.1862 26.5107 11.3721 26.4746C11.4518 26.4591 11.7543 26.4376 12.0444 26.4268C12.5013 26.4097 12.6026 26.3911 12.8021 26.2872C13.0595 26.1533 13.2152 25.9649 13.3136 25.6681C13.5575 24.933 13.4388 24.1767 13.0351 23.8931C12.6124 23.5962 11.7851 23.5599 11.3821 23.8205C11.0641 24.0263 10.9747 24.4781 11.201 24.7358C11.3057 24.855 11.3602 24.8795 11.5213 24.8795C11.6496 24.8795 11.753 24.8481 11.826 24.787C11.9541 24.6798 12.2355 24.6631 12.3545 24.7556C12.4183 24.8053 12.4275 24.8528 12.4029 25.0074C12.3863 25.1122 12.3497 25.2178 12.3217 25.2421C12.2937 25.2665 12.0261 25.2911 11.7272 25.2969C11.0736 25.3096 10.9822 25.3052 10.9118 25.2576C10.881 25.2368 10.8298 24.9979 10.7936 24.7055C10.7584 24.4219 10.7175 24.1384 10.7026 24.0753C10.6794 23.9768 10.6992 23.9477 10.8435 23.8694C10.9359 23.8193 11.117 23.694 11.2458 23.591C11.5544 23.3444 12.0188 23.2171 12.3265 23.2947C12.6189 23.3684 13.3712 23.6581 13.4493 23.727C13.555 23.8204 13.7122 24.1337 13.8596 24.5451L13.9968 24.9277L13.926 25.262C13.8243 25.7431 13.6885 26.0604 13.4269 26.429C12.9018 27.1686 12.6588 27.3337 12.2332 27.2397C12.0997 27.2102 11.8284 27.099 11.6305 26.9926C11.2381 26.7815 11.2905 26.7879 10.2486 26.8254C9.82755 26.8406 9.73288 26.8028 9.42792 26.4971L9.23779 26.3066L9.2745 25.9284C9.3272 25.3851 9.30102 24.9369 9.17809 24.2789C9.11873 23.9613 9.08246 23.6491 9.09751 23.5851C9.15273 23.3498 9.60282 22.7157 10.048 22.246L10.5055 21.7633L10.9982 21.7312C11.3956 21.7053 11.5535 21.6726 11.8155 21.5619C12.3291 21.3449 12.3667 21.3442 12.7555 21.5435C12.9433 21.6397 13.2927 21.7758 13.5318 21.8458C13.771 21.9158 14.0297 21.9935 14.1066 22.0186C14.2615 22.0691 14.4264 22.255 14.556 22.5252C14.6028 22.6227 14.7552 22.8333 14.8947 22.9931C15.0342 23.153 15.2498 23.4398 15.3739 23.6306C15.4979 23.8214 15.6689 24.0695 15.7537 24.182C15.9554 24.4492 15.9511 24.4997 15.6256 25.712C15.5675 25.9283 15.4665 26.3189 15.401 26.5801C15.2558 27.1599 15.0538 27.5836 14.6921 28.0674C14.4334 28.4135 14.4003 28.4409 14.1268 28.5357C13.967 28.5911 13.6695 28.6731 13.4657 28.7179C13.2618 28.7628 12.939 28.8664 12.7481 28.9482C12.4273 29.0857 12.3718 29.0955 12.0098 29.0776C11.6619 29.0604 11.5943 29.042 11.401 28.9119C10.9824 28.6302 10.7341 28.5658 9.94423 28.5339C9.27967 28.5069 9.19983 28.494 8.86298 28.3586C8.39503 28.1704 8.15203 28.0172 7.86137 27.7271C7.53018 27.3964 7.44777 27.1795 7.48412 26.734C7.50856 26.4344 7.49613 26.3216 7.39967 25.9681C7.33749 25.7401 7.23064 25.4175 7.16224 25.2512C6.99351 24.8408 6.96216 24.6396 7.04569 24.5027C7.08227 24.4428 7.15198 24.2403 7.20059 24.0528C7.31609 23.6073 7.42055 23.3856 7.66111 23.0756C7.78905 22.9107 7.88641 22.7228 7.93777 22.5416C7.98443 22.377 8.09762 22.1489 8.21321 21.9866C8.32115 21.8351 8.49135 21.5048 8.5915 21.2527C8.69161 21.0005 8.83159 20.7238 8.90256 20.6378C8.97353 20.5518 9.11881 20.3406 9.22544 20.1685C9.45314 19.8009 9.73006 19.4968 9.9087 19.4181C10.0069 19.3748 10.1173 19.3741 10.3924 19.415C10.5883 19.4441 10.8368 19.4682 10.9444 19.4684C11.052 19.4686 11.2362 19.4998 11.3536 19.5377C11.6728 19.6407 12.0224 19.6241 12.4107 19.4876C12.6659 19.3979 12.7972 19.3757 12.9448 19.3972C13.0524 19.4129 13.375 19.4557 13.6618 19.4922C14.1385 19.5529 14.2229 19.5791 14.6492 19.798C14.9056 19.9297 15.1734 20.1018 15.2445 20.1805C15.3876 20.3389 15.9287 21.3193 16.1195 21.766C16.3512 22.3082 16.6836 22.7241 17.1191 23.0167C17.4479 23.2376 17.661 23.4651 17.7526 23.693C17.795 23.7986 17.9537 24.169 18.1052 24.516C18.2566 24.8631 18.3806 25.2091 18.3806 25.2849C18.3806 25.4662 18.066 26.5154 17.8711 26.984C17.6587 27.4946 17.5616 27.6165 17.1969 27.8304C16.7908 28.0685 16.7032 28.1711 16.3799 28.7878C15.9569 29.5947 15.6295 29.9969 15.1191 30.337C14.6507 30.6491 14.5742 30.6747 14.0102 30.7075C13.7232 30.7243 13.1086 30.8072 12.6445 30.8918L11.8006 31.0455L11.4486 30.9246C11.255 30.8581 10.9792 30.783 10.8357 30.7575C9.46066 30.514 9.32029 30.479 8.30501 30.1254C7.98065 30.0125 7.57588 29.8984 7.40554 29.8718C6.86988 29.7883 6.23437 29.6411 6.08543 29.5659C5.82395 29.4339 5.52742 29.0879 5.42718 28.7977C5.3763 28.6505 5.33468 28.4779 5.33468 28.4143C5.33468 28.2962 5.45897 28.0013 5.59643 27.7934C5.82895 27.4417 5.87161 26.8062 5.70245 26.2145C5.5355 25.6307 5.40091 24.4104 5.44127 23.8465C5.47267 23.4073 5.48054 23.3812 5.67053 23.0834C5.77877 22.9137 6.00889 22.6188 6.18201 22.428C6.5376 22.0361 6.66402 21.7988 6.83361 21.2046C6.89858 20.977 7.02495 20.6101 7.11436 20.3895C7.2967 19.9397 7.85015 19.0156 8.08989 18.7606C8.18655 18.6577 8.5111 18.4536 8.93256 18.2304C9.30959 18.0308 9.75506 17.7821 9.92248 17.6778C10.3856 17.3891 10.5736 17.3808 11.2506 17.6191C12.009 17.8861 12.1317 17.9006 13.1513 17.8451L14.0365 17.7968L14.2191 17.9181C14.3194 17.9848 14.519 18.121 14.6625 18.2207C15.2363 18.6193 15.4642 18.7505 15.8998 18.933C16.3524 19.1225 16.3551 19.1246 16.5521 19.4316C16.7913 19.8044 17.3094 20.4536 17.8176 21.0173C18.364 21.6234 18.8464 22.4458 19.0339 23.0915C19.1351 23.4396 19.3177 23.7531 19.6254 24.107C19.7536 24.2546 19.8733 24.4315 19.8914 24.5002C19.9326 24.6564 19.9291 25.463 19.883 26.429C19.8524 27.0683 19.858 27.2099 19.9238 27.4697C20.0978 28.157 20.099 28.1823 19.9684 28.4508C19.7832 28.8314 19.7508 28.8573 19.4592 28.8573C19.1326 28.8573 18.9339 28.9624 18.5203 29.3545C18.1731 29.6836 18.025 29.8897 17.8116 30.3405C17.6093 30.7677 17.4103 31.0915 17.0727 31.5432L16.7763 31.9397L16.2984 32.1081C16.0356 32.2007 15.6284 32.3723 15.3937 32.4893C14.884 32.7436 14.6284 32.82 14.1501 32.8613C13.8815 32.8845 13.7423 32.8747 13.5963 32.8223C13.4891 32.7838 13.1527 32.7373 12.8488 32.7189C12.1018 32.6736 11.537 32.7491 10.9422 32.9736L10.4833 33.1467L10.2681 33.0599C10.1498 33.0121 9.87682 32.838 9.66157 32.673C9.44631 32.508 9.08711 32.274 8.86333 32.153C8.45974 31.9349 8.45317 31.9331 8.03709 31.9353C7.80644 31.9365 7.44785 31.9552 7.24021 31.9767C6.79965 32.0223 6.50216 31.9726 5.95493 31.762C5.57742 31.6167 5.50663 31.5585 5.10368 31.0612C4.93644 30.8548 4.80619 30.7558 4.4547 30.5676C3.98248 30.3148 3.81806 30.206 3.62398 30.0177C3.39585 29.7964 3.37393 29.7 3.35675 28.8427C3.33645 27.8287 3.26113 27.5408 2.85245 26.9146C2.70116 26.6828 2.29065 25.5771 2.29065 25.4014C2.29065 25.3639 2.33057 25.2735 2.3794 25.2006C2.42819 25.1277 2.50608 24.9507 2.55248 24.8072C2.67198 24.4378 2.77482 24.2814 3.0373 24.07C3.43446 23.7501 4.02566 23.1145 4.12111 22.9049C4.24135 22.6406 4.24322 22.2028 4.12629 21.688C3.94934 20.909 3.93495 20.9921 4.32119 20.5626C4.86986 19.9526 5.12682 19.4256 5.26893 18.6191C5.35238 18.1455 5.53742 17.7391 5.81856 17.412C6.05334 17.1387 6.20941 17.0642 6.5523 17.0618C6.86379 17.0596 7.10945 16.9806 7.55714 16.7386C8.07941 16.4564 8.68195 16.0122 9.15743 15.559C9.35851 15.3674 9.57377 15.1956 9.63578 15.1772C9.69779 15.1589 9.91487 15.1437 10.1182 15.1435C10.4624 15.1432 10.515 15.1566 10.8833 15.3398C11.5468 15.6697 11.8074 15.6755 12.8143 15.3831C13.6921 15.1282 13.6381 15.1281 13.9181 15.3846C15.4 16.7422 15.5908 16.8992 16.054 17.142C16.3804 17.313 16.9517 17.5508 17.1964 17.6174C17.4685 17.6915 17.7797 17.8414 17.8904 17.9517C17.9437 18.0048 18.0686 18.1959 18.168 18.3764C18.5392 19.0504 18.7367 19.3303 18.9227 19.4463C19.0234 19.509 19.1454 19.5603 19.1939 19.5603C19.2424 19.5603 19.3338 19.6036 19.3971 19.6566C19.6772 19.891 20.5496 20.0731 21.3389 20.0619C21.688 20.0569 21.8203 20.0786 22.2074 20.2041C23.3322 20.5688 23.7362 20.4456 24.8314 19.4041C25.6521 18.6236 26.0105 18.4392 26.8152 18.3836C27.5813 18.3307 27.9808 18.1369 28.473 17.5795C28.6264 17.4057 28.8668 17.133 29.007 16.9735C29.3394 16.5954 29.4769 16.534 29.8549 16.5946C30.4513 16.6903 30.8502 16.4778 31.2696 15.8411C31.6136 15.319 31.6957 15.0065 31.7752 13.9174C31.8507 12.8832 32.037 12.182 32.4124 11.5187C32.5912 11.203 32.6875 10.876 32.6875 10.5847C32.6875 10.2577 32.5037 9.55259 32.2567 8.93214C32.0135 8.32141 31.9093 7.9049 31.7741 7.00403C31.6526 6.19455 31.5656 5.80209 31.4409 5.50126C31.1443 4.78572 30.4136 4.15107 29.4623 3.78271C29.0311 3.61578 28.9652 3.55663 28.6554 3.05917C28.3895 2.63225 27.7853 2.00131 27.3387 1.68424C27.1702 1.56463 26.8541 1.40862 26.556 1.29808C26.2809 1.19604 25.9385 1.06228 25.795 1.00081C25.6515 0.939334 25.4406 0.852517 25.3264 0.807883C25.2122 0.763248 24.9614 0.593729 24.769 0.431195C24.5427 0.24003 24.3407 0.110798 24.1968 0.0653773C23.9184 -0.0225504 23.2043 -0.0216253 22.8162 0.0671812ZM10.2632 0.66778C9.96814 0.828881 9.21583 1.9206 8.81419 2.77037C8.58058 3.26477 8.43473 3.72374 8.28514 4.43549C8.14233 5.11486 8.14316 6.35444 8.28697 7.22664C8.34085 7.55342 8.37864 7.82734 8.37098 7.83539C8.36329 7.84343 8.16129 7.71906 7.92212 7.55902C7.03043 6.96235 5.96406 6.439 5.09325 6.17059C4.28432 5.92124 3.7867 5.85514 2.74725 5.85884C1.86931 5.86194 1.75302 5.87212 1.33456 5.98243C0.902868 6.09617 0.448655 6.30209 0.278406 6.46111C0.00709528 6.71457 -0.089227 8.42285 0.0945025 9.72243C0.190259 10.3997 0.410822 11.3982 0.592073 11.9748C0.95701 13.1359 1.60561 14.4835 2.23707 15.3928C2.67685 16.026 3.44329 16.7445 3.74274 16.8043C3.9733 16.8503 4.19191 16.7348 4.2751 16.5231C4.38138 16.2525 4.30576 16.0611 3.98748 15.7952C3.38607 15.2926 2.88115 14.5574 2.30895 13.3511C1.63796 11.9365 1.23341 10.4981 1.11099 9.09172C1.05851 8.48881 1.08399 7.40023 1.15526 7.20088C1.22501 7.00565 1.53825 6.95523 2.63854 6.96221C3.47447 6.96753 3.62876 6.98109 4.09533 7.08987C5.80077 7.48765 7.47542 8.41415 8.75857 9.66984C9.11873 10.0223 9.25084 10.0501 9.62726 9.85268C9.85056 9.73557 9.91896 9.67326 9.97171 9.53899C10.0529 9.33224 10.0262 9.21073 9.83469 8.91448C9.65422 8.63543 9.46057 8.00842 9.35134 7.34945C9.28911 6.97415 9.27119 6.63784 9.27249 5.86934C9.27415 4.90232 9.27793 4.86023 9.41022 4.34298C9.48505 4.05043 9.62317 3.63341 9.71719 3.41629C10.0209 2.715 10.686 1.70654 10.8448 1.70654C10.9461 1.70654 11.6077 2.14354 12.0968 2.5336C12.7433 3.04909 13.7791 4.09395 14.0329 4.4865C14.1313 4.63868 14.2557 4.76999 14.3343 4.80463C14.5183 4.88567 14.7595 4.83475 14.9079 4.6835C15.2466 4.33835 15.0466 3.82702 14.2528 3.00871C13.3831 2.11204 12.2548 1.24937 11.3643 0.800297C10.9545 0.593683 10.4993 0.538918 10.2632 0.66778ZM10.654 2.89123C10.5769 2.9317 10.4838 3.03526 10.4436 3.12541C10.3587 3.31579 10.377 3.46916 10.6244 4.63498C10.7097 5.03724 10.7705 5.37596 10.7595 5.38766C10.7485 5.39941 10.6535 5.35671 10.5484 5.29279C10.2762 5.12734 10.1009 5.13844 9.91814 5.3328C9.80081 5.45759 9.77028 5.52711 9.77028 5.66939C9.77028 5.76805 9.7999 5.89376 9.83612 5.94876C9.92148 6.07836 10.7877 6.74108 10.9965 6.8365C11.1463 6.90495 11.1626 6.93252 11.2319 7.23381C11.3294 7.65736 11.502 7.85823 11.7685 7.85823C11.9984 7.85823 12.186 7.75504 12.27 7.58224C12.3486 7.42058 12.3528 7.27669 12.2873 6.99959C12.2331 6.77096 12.2101 6.84686 12.6673 5.74483C12.9514 5.06014 12.9637 4.90884 12.7534 4.68525C12.4861 4.40089 12.1327 4.49608 11.9212 4.90945C11.8576 5.03377 11.7982 5.12776 11.7893 5.11828C11.7804 5.1088 11.6742 4.6859 11.5533 4.1785C11.288 3.06509 11.2698 3.01389 11.1001 2.90381C10.9379 2.79867 10.836 2.79581 10.654 2.89123ZM12.6404 3.59146C12.4221 3.70741 12.336 3.97721 12.4417 4.21403C12.5463 4.44853 12.7675 4.55755 12.993 4.48572C13.3893 4.35945 13.4427 3.78188 13.0767 3.58059C12.9122 3.49011 12.8271 3.49224 12.6404 3.59146ZM36.7318 5.94746C35.243 6.06703 33.556 6.66291 32.8299 7.32581C32.5115 7.61642 32.4841 7.99524 32.7645 8.22983C32.9517 8.3864 33.1346 8.34857 33.5288 8.07174C34.2652 7.55467 35.2412 7.25666 36.6629 7.1148C38.0172 6.9797 39.4776 7.17392 41.0804 7.70227C41.8665 7.96143 42.0371 8.10416 42.0371 8.50282C42.0371 8.74847 41.9787 8.89028 41.6455 9.45397C40.2173 11.8704 39.1652 12.8838 36.788 14.1328C36.3286 14.3741 35.9032 14.6131 35.8426 14.6638C35.7759 14.7196 35.7056 14.8539 35.6647 15.0036C35.606 15.2182 35.6051 15.2718 35.6576 15.4053C35.7728 15.6986 35.7698 15.6979 36.9233 15.701C37.8235 15.7034 38.0416 15.7185 38.4712 15.8075C41.0609 16.3442 42.6558 17.1296 43.9689 18.5149C44.4821 19.0563 45.2306 20.0565 45.3916 20.416C45.6102 20.904 45.5369 21.1312 45.0517 21.47C44.8885 21.5839 44.5691 21.8371 44.3419 22.0325C43.7703 22.5241 43.3641 22.8032 42.7546 23.1233C41.8611 23.5925 40.9038 23.9107 39.822 24.0981C39.2356 24.1996 39.0845 24.2745 38.9932 24.509C38.8742 24.8146 39.0622 25.1965 39.3725 25.2794C39.6508 25.3537 40.9065 25.0784 41.9284 24.719C43.1882 24.276 43.9458 23.8244 44.9942 22.8918C45.317 22.6046 45.723 22.2561 45.8962 22.1174C46.4569 21.6685 46.6578 21.3088 46.6636 20.7434C46.6662 20.4921 46.6463 20.4255 46.4757 20.1154C45.3901 18.1414 43.9839 16.7221 42.2432 15.8434C41.2163 15.325 39.9423 14.9202 38.7267 14.726C38.481 14.6868 38.2735 14.6477 38.2655 14.6391C38.2575 14.6306 38.3934 14.5341 38.5676 14.4247C39.4236 13.8871 40.1266 13.3036 40.8036 12.5688C41.4375 11.8807 41.822 11.3007 42.6973 9.71285C43.2679 8.67761 43.3417 8.48224 43.3416 8.0068C43.3415 7.60958 43.266 7.39251 43.0765 7.24487C42.9281 7.12928 41.4504 6.60653 40.6238 6.37725C39.2256 5.98941 37.9558 5.84917 36.7318 5.94746ZM37.1017 7.68478C37.0204 7.75953 36.935 7.95837 36.7991 8.39015C36.6949 8.72086 36.5302 9.2308 36.433 9.52336L36.2562 10.0553L36.0048 10.1823C35.6523 10.3604 35.6367 10.3536 35.733 10.0622C35.929 9.46891 36.1664 8.56138 36.1664 8.40527C36.1664 8.05083 35.8099 7.81124 35.5198 7.97072C35.33 8.07512 35.2882 8.15907 35.0219 8.96831C34.5189 10.4973 34.2892 11.0806 34.1575 11.1634C34.0066 11.2581 33.9051 11.4582 33.9053 11.6603C33.9055 11.8463 34.0439 12.1001 34.1769 12.1583C34.3082 12.2157 35.2799 12.2986 35.8221 12.2986C36.0623 12.2986 36.5405 12.3208 36.8847 12.348C37.6171 12.4058 37.7574 12.3679 37.8871 12.0771C37.9539 11.9276 37.9555 11.8888 37.9014 11.7244C37.813 11.4555 37.6613 11.3812 37.0739 11.3189C36.802 11.29 36.5634 11.2515 36.5437 11.2332C36.524 11.215 36.7251 11.1025 36.9906 10.9833L37.4734 10.7666L38.4987 10.9544C39.6414 11.1637 39.8001 11.1754 39.9338 11.0603C40.168 10.8585 40.1876 10.5655 39.9824 10.3335C39.8708 10.2074 39.7724 10.1553 39.5149 10.086L39.1887 9.99819L39.4062 9.89426C39.5258 9.83714 39.9073 9.66924 40.2541 9.52123C40.9998 9.20296 41.1239 9.10004 41.1239 8.79995C41.1239 8.63085 41.0997 8.56545 40.9968 8.45597C40.812 8.25948 40.6015 8.27391 39.9241 8.52946C39.6199 8.64426 39.3637 8.73039 39.3548 8.72091C39.3458 8.71138 39.3586 8.64736 39.3832 8.57858C39.5064 8.234 39.387 7.91212 39.0985 7.81082C38.9198 7.74811 38.7524 7.80143 38.6112 7.966C38.5103 8.08349 38.213 8.82609 38.1728 9.06082C38.1498 9.19514 38.1118 9.24001 37.9494 9.32442C37.8417 9.38039 37.6967 9.44075 37.627 9.45855C37.5145 9.48732 37.504 9.48108 37.534 9.4031C37.6292 9.15472 37.8612 8.23136 37.8618 8.09801C37.8631 7.78687 37.68 7.58335 37.3974 7.58173C37.2698 7.58104 37.1809 7.61198 37.1017 7.68478ZM2.18197 7.97738C1.9555 8.10301 1.87118 8.34468 1.96789 8.59093C2.00338 8.68122 2.17367 8.89579 2.34635 9.06767L2.66028 9.3802L2.41093 9.38242C2.09087 9.3852 1.90675 9.53723 1.86996 9.829C1.84935 9.99236 1.86352 10.0399 1.97094 10.1678C2.07761 10.2948 2.1691 10.3364 2.59553 10.4524C2.87032 10.5272 3.33975 10.6704 3.63872 10.7707C4.12864 10.9349 4.20143 10.9737 4.37616 11.1632C4.4857 11.282 4.54245 11.373 4.50662 11.3724C4.47174 11.3718 4.18882 11.3307 3.87789 11.281C2.9429 11.1315 2.7663 11.1585 2.61271 11.4744C2.45746 11.7937 2.66754 12.1163 3.08383 12.1979C3.20964 12.2225 3.83115 12.3494 4.46496 12.48C5.09877 12.6104 5.65183 12.7167 5.69392 12.716C5.73606 12.7154 6.01816 12.975 6.32078 13.293C6.71172 13.7036 6.91541 13.8841 7.0243 13.916C7.31379 14.001 7.55544 13.8714 7.66233 13.5739C7.72778 13.3916 7.72778 13.3628 7.66237 13.196C7.62341 13.0967 7.53661 12.953 7.46943 12.8767C7.3528 12.7442 7.34123 12.6883 7.21177 11.6279C7.13723 11.0173 7.05635 10.2923 7.032 10.0166C6.98051 9.43399 6.9071 9.23557 6.70546 9.13376C6.41701 8.9882 6.13383 9.08756 6.00333 9.38011C5.93901 9.52423 5.93701 9.59893 5.98454 10.0759C6.04012 10.6335 6.10443 11.13 6.14666 11.3272C6.16627 11.4188 6.10235 11.3708 5.84004 11.0971C5.65774 10.907 5.5078 10.7197 5.50685 10.6808C5.50585 10.642 5.42022 10.3501 5.31651 10.0321C5.21279 9.71415 5.05572 9.22502 4.96749 8.94519C4.87921 8.66536 4.77893 8.35241 4.74466 8.24977C4.61533 7.86244 4.1779 7.7852 3.93321 8.10648C3.8401 8.22872 3.83358 8.57331 3.91795 8.9105C3.95139 9.04403 3.96191 9.15333 3.94139 9.15333C3.92082 9.15333 3.64833 8.90578 3.33584 8.60324C2.61257 7.90291 2.46276 7.82165 2.18197 7.97738ZM11.1321 10.3756C10.8896 10.4909 10.7804 10.866 10.9253 11.0859C11.1072 11.3622 11.4617 11.3869 11.6593 11.1371C11.9736 10.7398 11.5754 10.1647 11.1321 10.3756ZM12.5236 11.6262C12.3755 11.6947 12.2489 11.9025 12.2492 12.0765C12.2494 12.2653 12.4048 12.4741 12.5885 12.5326C12.8826 12.6264 13.1731 12.4087 13.1731 12.0946C13.1731 11.8909 13.0741 11.7073 12.9233 11.6311C12.7501 11.5437 12.7031 11.5431 12.5236 11.6262ZM11.2642 12.1101C11.1089 12.2109 11.0125 12.4566 11.056 12.6409C11.0716 12.7072 11.1424 12.8134 11.2134 12.8769C11.5864 13.2106 12.1482 12.7619 11.9269 12.307C11.7876 12.0203 11.5236 11.9419 11.2642 12.1101ZM3.70395 13.1386C3.46182 13.2802 3.38889 13.6279 3.55062 13.8695C3.81201 14.26 4.39777 14.1029 4.39777 13.6424C4.39777 13.5448 4.36955 13.4089 4.33507 13.3404C4.22326 13.1182 3.91003 13.018 3.70395 13.1386ZM4.91722 13.6122C4.80307 13.7336 4.76936 13.8079 4.76936 13.9382C4.76936 14.2892 4.97223 14.5187 5.28246 14.5187C5.54542 14.5187 5.72606 14.3308 5.72606 14.0574C5.72606 13.6985 5.5142 13.4549 5.20205 13.4549C5.10425 13.4549 5.02276 13.4999 4.91722 13.6122ZM33.0756 14.3301C32.9713 14.441 32.9485 14.5042 32.9485 14.6816C32.9485 14.8639 32.9697 14.9189 33.0835 15.0321C33.3803 15.327 33.8617 15.1096 33.8617 14.6806C33.8617 14.2504 33.3605 14.027 33.0756 14.3301ZM33.6144 16.3441C33.4696 16.4111 33.3398 16.6195 33.3398 16.7851C33.3398 17.0704 33.624 17.3256 33.8838 17.2738C34.322 17.1863 34.4101 16.5488 34.0119 16.3478C33.8411 16.2616 33.7936 16.2612 33.6144 16.3441ZM39.9023 17.4609C39.4381 17.7563 38.9686 18.066 38.8589 18.1491C38.4513 18.4583 37.6944 18.9128 37.5871 18.9128C37.3896 18.9128 37.4224 18.8353 37.7348 18.5634C38.1456 18.2059 38.25 17.9697 38.1182 17.6956C37.9663 17.3795 37.6329 17.3416 37.3113 17.6038C36.0212 18.6553 35.8582 18.774 35.7041 18.774C35.2592 18.774 34.9928 19.2052 35.1887 19.6081C35.2898 19.8161 35.4828 19.8981 35.9265 19.9218C36.3137 19.9425 36.3185 19.9442 36.4701 20.1191C36.5542 20.2161 37.0242 20.5812 37.5145 20.9305C38.0048 21.2797 38.5704 21.6968 38.7714 21.8572C38.9724 22.0177 39.2 22.1616 39.2771 22.177C39.4573 22.213 39.6658 22.1008 39.7533 21.9208C39.935 21.5471 39.7584 21.3068 38.7127 20.5039C38.1788 20.094 38.1813 20.0819 38.7873 20.1527C39.1929 20.2002 39.0736 20.1323 40.2759 20.9988C41.0905 21.5858 41.6486 21.9552 41.8126 22.0161C42.0041 22.0871 42.2379 21.9967 42.3447 21.8104C42.5375 21.4741 42.4145 21.2491 41.7962 20.808C41.5419 20.6265 41.3419 20.4694 41.3518 20.4589C41.3617 20.4483 41.8364 20.4696 42.4067 20.5061C43.5457 20.5791 43.6446 20.5666 43.7894 20.3315C43.9122 20.1322 43.8859 19.8987 43.7211 19.7234C43.5601 19.5522 43.5479 19.5495 42.4553 19.4447C42.0755 19.4083 41.7558 19.3691 41.7449 19.3575C41.734 19.3459 41.7709 19.3069 41.8267 19.2708C42.4849 18.8457 42.6024 18.7252 42.6024 18.4755C42.6024 18.3132 42.4933 18.0956 42.3793 18.0307C42.2466 17.9552 42.0284 17.9665 41.8585 18.0577C41.7773 18.1013 41.3337 18.3659 40.8727 18.6458L40.0344 19.1546L39.7529 19.1225C39.5981 19.1049 39.4716 19.0765 39.4717 19.0594C39.4721 19.0266 39.796 18.7929 40.7017 18.172C41.2636 17.7868 41.3848 17.6523 41.3848 17.414C41.3848 17.236 41.2933 17.0626 41.1611 16.9898C40.9087 16.851 40.7925 16.8945 39.9023 17.4609ZM31.5134 18.7413C31.1471 18.8836 30.9233 19.0081 30.7126 19.1867C30.6189 19.2662 30.4977 19.343 30.4433 19.3576C30.3003 19.3958 30.0218 19.316 29.6 19.1161C28.9463 18.8063 28.4612 18.8846 27.9693 19.3794C27.6104 19.7404 27.0754 20.4421 26.6499 21.1098C26.3791 21.5348 26.1919 21.7755 26.0113 21.9308C25.7758 22.1333 25.7369 22.1506 25.5145 22.1515C25.0305 22.1536 24.808 22.3519 24.4322 23.1162C24.1367 23.7171 24.0773 23.9816 24.0773 24.6945C24.0773 25.337 24.0158 25.6732 23.825 26.0744C23.6398 26.4636 23.2366 26.9524 22.8545 27.2507C22.4173 27.5921 22.362 27.7098 22.3945 28.2323C22.4071 28.4361 22.4585 28.8683 22.5086 29.1928L22.5997 29.7827L22.4922 29.956C22.2021 30.4234 22.2658 31.2255 22.6288 31.6765C22.7062 31.7727 22.9218 31.9727 23.1081 32.1211C23.6614 32.5618 23.8419 32.7677 23.9528 33.0846C24.1334 33.6008 24.6932 34.056 25.3807 34.2454C25.8599 34.3775 25.9789 34.4477 26.1534 34.7007C26.4099 35.0729 26.8173 35.5407 27.0681 35.7512C27.5221 36.1323 28.0443 36.2356 28.8195 36.0978L29.2692 36.0178L29.5944 36.1956C29.8824 36.353 29.955 36.3733 30.2274 36.3725C30.6096 36.3714 30.9139 36.2306 31.7872 35.6509C32.4299 35.2241 32.6967 35.121 33.4372 35.0131C33.8294 34.956 34.2677 34.7594 34.5485 34.5146C34.7989 34.2963 35.1779 33.7512 35.5665 33.0502C35.9245 32.4045 36.0664 32.2305 36.6671 31.7003C37.1585 31.2665 37.4368 30.919 37.6499 30.4731C37.8743 30.0036 37.8748 29.6425 37.6525 28.6491C37.5504 28.1929 37.4481 27.5771 37.4088 27.1821C37.3354 26.4462 37.227 26.0542 36.9865 25.6556C36.7721 25.3002 36.3393 24.9951 35.8783 24.8744C35.6106 24.8044 35.2162 24.6224 35.1083 24.5191C35.0628 24.4756 34.896 24.2423 34.7377 24.0007C34.3284 23.3761 33.7143 22.7485 32.9385 22.162C32.4503 21.793 32.3717 21.7525 31.8812 21.6169C31.6534 21.554 31.3063 21.415 31.1097 21.3082C30.772 21.1245 30.7321 21.1139 30.3828 21.1149C30.1042 21.1156 29.9489 21.142 29.7522 21.2219C29.6087 21.2801 29.2956 21.4015 29.0564 21.4916C28.8173 21.5817 28.5388 21.7155 28.4376 21.7889C28.1314 22.0112 27.7099 22.588 27.4377 23.1573L27.1885 23.6784L26.8065 23.8883C26.0952 24.279 25.7237 24.7024 25.4269 25.4609C25.3521 25.652 25.2586 25.9791 25.2193 26.1879C25.1568 26.5192 25.1246 26.5941 24.9664 26.7758C24.5487 27.2556 24.3838 27.7338 24.4649 28.2299C24.5451 28.7197 24.5243 29.0328 24.3817 29.4817C24.155 30.1948 24.2252 30.5567 24.6721 30.9804C24.8037 31.1051 25.071 31.2977 25.2662 31.4083C25.7367 31.6749 26.3292 32.2964 26.5772 32.7835C26.8485 33.3165 27.2123 33.591 27.8145 33.717C28.0952 33.7757 28.9092 33.7505 29.2896 33.6714C29.4529 33.6374 29.5177 33.6504 29.7547 33.7646C30.283 34.0195 30.6952 33.9839 31.296 33.6318C31.7807 33.3477 31.9541 33.2052 32.4919 32.6484C33.0636 32.0564 33.1475 31.997 33.5727 31.8834C34.1339 31.7335 34.266 31.5922 34.8365 30.5321C35.4454 29.4007 35.6202 28.8584 35.593 28.185C35.5685 27.5767 35.3944 27.2051 34.8514 26.6021C34.6282 26.3543 34.3624 26.0341 34.2608 25.8906C34.0411 25.5806 33.7494 25.2871 33.2596 24.8833C33.0616 24.7199 32.6658 24.3221 32.3801 23.9991C31.7918 23.334 31.5709 23.1803 31.0189 23.0513C30.2584 22.8736 29.7391 23.0696 28.9477 23.8331C28.1437 24.6087 27.6022 25.2124 27.3633 25.5992C26.2785 27.356 26.3448 27.2238 26.1918 27.9322C26.0603 28.5407 26.05 28.8174 26.1443 29.2025C26.2484 29.6277 26.4163 29.9068 26.7689 30.2406C26.9461 30.4083 27.3903 30.8401 27.7559 31.2003C28.5059 31.9389 28.6918 32.0497 29.1777 32.0476C29.6037 32.0458 29.7841 31.9813 30.6872 31.5073C31.3563 31.1561 31.5901 31.0085 31.7959 30.8074C31.9392 30.6672 32.1961 30.4427 32.3668 30.3085C33.1026 29.7297 33.4209 29.0399 33.3708 28.1331C33.3434 27.6364 33.2106 27.3218 32.9238 27.074C32.8077 26.9736 32.4868 26.6477 32.2109 26.3498C31.7625 25.8657 31.6693 25.7883 31.335 25.6223C31.1292 25.5201 30.8569 25.4127 30.7298 25.3837C30.3874 25.3056 29.8804 25.3505 29.6435 25.4798C29.3932 25.6164 28.8599 26.1652 28.6555 26.4965C28.5684 26.6374 28.405 26.8613 28.2923 26.9939C28.0525 27.2759 27.9648 27.519 27.9008 28.079C27.8093 28.8801 27.9939 29.2995 28.5844 29.6314C29.0333 29.8838 29.5722 30.0344 29.8983 29.9986C30.3847 29.9452 30.9552 29.5207 31.34 28.9258C31.6669 28.4204 31.5719 27.7904 31.1286 27.5254C30.9247 27.4035 30.3826 27.2411 30.1745 27.2395C29.9061 27.2374 29.6275 27.4449 29.4308 27.7934C29.3213 27.9874 29.3171 28.0769 29.4077 28.2801C29.5049 28.498 29.7336 28.6073 29.949 28.5386C30.0384 28.5101 30.1358 28.4557 30.1655 28.4176C30.2235 28.3433 30.3828 28.3222 30.3828 28.3888C30.3828 28.464 29.9973 28.8077 29.8769 28.8398C29.6666 28.896 29.0168 28.6581 28.9614 28.5047C28.9456 28.4609 28.9543 28.2903 28.9808 28.1258C29.0192 27.8876 29.0593 27.7927 29.1778 27.6597C29.2597 27.5679 29.3909 27.3887 29.4694 27.2615C29.6475 26.9731 29.9751 26.6049 30.1315 26.5173C30.2249 26.465 30.2925 26.4613 30.4526 26.4994C30.8502 26.5942 31.1082 26.7636 31.3903 27.1151C31.5366 27.2974 31.7464 27.5245 31.8566 27.6198C32.3144 28.0158 32.2962 27.9877 32.2962 28.2939C32.2962 28.7748 32.14 29.0566 31.6702 29.4235C31.5002 29.5562 31.2535 29.7728 31.1219 29.9048C30.9782 30.0487 30.7869 30.1845 30.6435 30.2443C30.5121 30.299 30.3195 30.3964 30.2155 30.4608C29.6385 30.8179 29.2664 30.9597 29.0916 30.889C29.0313 30.8647 28.7346 30.5981 28.4322 30.2967C28.1297 29.9953 27.7442 29.6235 27.5755 29.4704C27.1394 29.0749 27.0916 28.8762 27.2538 28.1324C27.329 27.788 27.386 27.6552 27.6177 27.2846C27.7688 27.043 28.021 26.6371 28.1781 26.3827C28.4579 25.9297 28.8798 25.4518 29.6852 24.6758C30.1663 24.2122 30.331 24.1216 30.6388 24.1513C31.0081 24.1869 31.1807 24.3082 31.6975 24.8954C31.9542 25.1871 32.3163 25.5542 32.502 25.7112C33.1485 26.2575 33.2092 26.3186 33.4726 26.6865C33.6183 26.8901 33.8805 27.2084 34.0554 27.3937C34.4445 27.8062 34.5283 27.9677 34.5271 28.3022C34.5259 28.6077 34.3276 29.1832 34.057 29.6658C33.9569 29.8444 33.805 30.1263 33.7194 30.2923C33.5196 30.6801 33.4636 30.7299 33.1224 30.823C32.6747 30.9452 32.4422 31.1083 31.8613 31.7077C31.3102 32.2765 30.924 32.5815 30.5767 32.7226L30.3849 32.8005L30.0626 32.6498C29.7534 32.5053 29.7246 32.5004 29.3548 32.529C28.1857 32.6196 28.0143 32.6191 27.8121 32.5239C27.6525 32.4488 27.5943 32.384 27.4774 32.1506C27.1567 31.5105 26.5221 30.8203 25.9689 30.5098C25.7537 30.3891 25.521 30.2422 25.4519 30.1835L25.3262 30.0767L25.4451 29.7329C25.5886 29.318 25.6356 28.7011 25.5593 28.2349C25.5016 27.8821 25.5247 27.8154 25.8076 27.5191C26.0068 27.3104 26.1906 26.8834 26.2688 26.4473C26.4109 25.6555 26.728 25.2004 27.3703 24.8664C27.9155 24.5829 28.0473 24.4408 28.324 23.838C28.4581 23.5458 28.6631 23.1902 28.7943 23.022L29.027 22.7239L29.6408 22.4835C29.9784 22.3512 30.3034 22.243 30.3629 22.243C30.4224 22.243 30.5735 22.3032 30.6987 22.3767C30.9143 22.5033 31.1887 22.608 31.7308 22.7705C32.2443 22.9243 33.3744 23.9461 33.9014 24.733C34.3912 25.4643 34.6529 25.6708 35.4079 25.9218C35.6723 26.0097 35.9316 26.1241 35.984 26.1761C36.207 26.397 36.2785 26.6685 36.384 27.6926C36.411 27.9552 36.5017 28.4651 36.5855 28.8258C36.761 29.5806 36.7755 29.7895 36.6678 30.011C36.5576 30.2377 36.2111 30.615 35.7219 31.0413C35.2548 31.4481 35.0312 31.7451 34.5803 32.5575C33.973 33.6516 33.7489 33.849 33.0354 33.9183C32.5076 33.9696 31.8922 34.2146 31.3387 34.5937C31.0641 34.7819 30.706 35.0088 30.543 35.0981L30.2466 35.2603L29.907 35.0652C29.5193 34.8425 29.3655 34.825 28.8026 34.9396C28.4026 35.021 28.0886 35.0283 27.9177 34.9602C27.7543 34.895 27.3405 34.4609 27.0577 34.0579C26.6893 33.5331 26.4656 33.3756 25.8134 33.1817C25.1917 32.9968 25.0583 32.897 24.8816 32.4846C24.7039 32.0698 24.4315 31.7505 23.8519 31.2773C23.3321 30.8529 23.3133 30.7992 23.5313 30.362C23.7116 30.0006 23.7147 29.9448 23.5982 29.1528C23.4412 28.0851 23.4312 28.2099 23.6882 28.0272C24.0857 27.7445 24.6668 26.9291 24.9082 26.315C25.0889 25.8552 25.1644 25.3785 25.1644 24.6978V24.096L25.3522 23.713L25.54 23.33L25.7762 23.3018C26.095 23.2637 26.2955 23.1662 26.6193 22.8922C26.9868 22.5811 27.1316 22.4033 27.5451 21.7547C27.9205 21.1659 28.5102 20.3889 28.7325 20.1898C28.8067 20.1235 28.9012 20.0691 28.9425 20.0691C28.9838 20.0691 29.176 20.1507 29.3698 20.2503C29.7655 20.4539 30.2701 20.5601 30.5948 20.5083C30.8347 20.4701 31.0809 20.3435 31.3253 20.1327C31.5457 19.9426 31.95 19.7702 32.0875 19.8076C32.2747 19.8585 32.6555 20.2707 32.9257 20.7148C33.3628 21.4334 34.1979 22.3061 34.7097 22.5791C34.8292 22.6429 35.0875 22.741 35.2835 22.7972C35.4796 22.8534 35.7144 22.9511 35.8054 23.0143C36.0105 23.157 36.3006 23.5409 36.7253 24.2319C36.9219 24.5517 37.2187 24.9483 37.4695 25.2264C38.1926 26.0279 38.3693 26.3967 38.3227 27.0071C38.2297 28.2242 38.2322 28.265 38.4443 29.0508C38.6579 29.8418 38.7533 30.4368 38.7102 30.7085C38.6606 31.0206 38.4169 31.3597 37.9615 31.7503C37.7276 31.9509 37.3583 32.3031 37.1407 32.5329C36.7763 32.9177 36.7207 33.0021 36.4343 33.6029C36.0099 34.4935 35.8547 34.7304 35.5176 35.0023C35.1893 35.2672 34.8946 35.4024 34.4467 35.4936C33.7906 35.6271 33.2492 36.0656 32.8461 36.79C32.7328 36.9937 32.5739 37.2435 32.493 37.3451C32.354 37.5198 32.3406 37.5261 32.245 37.4626C31.9606 37.2736 31.832 37.2291 31.5704 37.2291C31.3187 37.2291 31.2508 37.2544 30.682 37.5605L30.0662 37.8919L29.8223 37.6151C29.3594 37.0899 28.7766 36.7726 28.201 36.7323C27.9086 36.7118 27.8512 36.7211 27.7363 36.8082C27.5999 36.9114 27.4575 37.2499 27.2478 37.9692C26.8171 39.4462 24.9955 41.9372 23.1322 43.5971C22.3077 44.3316 20.824 45.5085 20.7225 45.5085C20.6593 45.5085 20.3113 44.9058 20.0082 44.2716C19.641 43.5032 19.4458 42.8298 19.2405 41.6232C19.1571 41.1327 19.1421 40.8838 19.1419 39.9812C19.1416 39.0473 19.1567 38.8108 19.265 38.0446C19.3329 37.5646 19.3767 37.1052 19.3624 37.0236C19.3085 36.7183 18.8774 36.471 18.587 36.5787C18.5138 36.6059 18.3091 36.7939 18.1321 36.9965C17.5408 37.6735 16.5422 38.4373 15.6194 38.9185C14.4217 39.5431 12.6668 40.0536 11.4621 40.1279L11.0013 40.1564L10.9729 40.0052C10.8524 39.3647 11.0603 37.859 11.444 36.5935C11.5897 36.1132 11.6634 35.9411 11.7848 35.7982C11.9572 35.5951 12.0197 35.3571 11.9594 35.1329C11.9257 35.0075 11.8816 34.9709 11.6604 34.8845C11.2686 34.7315 11.1573 34.7438 10.9731 34.9606C10.7636 35.2073 10.6841 35.3852 10.4526 36.1271C10.0922 37.2821 9.92327 38.4284 9.95627 39.4955C9.97236 40.0162 9.99715 40.2258 10.0671 40.4325C10.1826 40.7739 10.2218 40.8306 10.5099 41.0728C10.7227 41.2517 10.7777 41.2753 11.0197 41.2917C11.6176 41.3322 12.8128 41.135 13.9113 40.8146C15.5061 40.3495 16.7854 39.668 17.8529 38.7149C17.9776 38.6036 18.0877 38.5211 18.0975 38.5315C18.1073 38.5419 18.0945 38.7683 18.0689 39.0346C17.946 40.3166 18.1519 42.2072 18.559 43.5337C18.792 44.293 19.4955 45.6427 19.9158 46.1369C20.1565 46.4199 20.5738 46.6654 20.8119 46.6638C21.0399 46.6623 21.281 46.5295 21.8742 46.0788C24.0525 44.4235 25.431 43.0423 26.7135 41.23C27.4523 40.1861 27.9845 39.1197 28.2311 38.1889C28.2699 38.0426 28.3161 37.9229 28.3339 37.9229C28.4769 37.9229 28.8414 38.1969 29.1276 38.5196C29.5113 38.9522 29.7241 39.0768 30.0824 39.0782C30.2618 39.079 30.3759 39.0492 30.5173 38.9648C30.6227 38.9018 30.9013 38.7447 31.1365 38.6155L31.5641 38.3807L31.7671 38.5192C32.0419 38.7065 32.3283 38.7715 32.5812 38.7038C32.8985 38.6188 33.385 38.0928 33.7098 37.4835C33.8865 37.152 34.0993 36.8819 34.2744 36.7668C34.3579 36.7119 34.6031 36.6285 34.8192 36.5814C35.5877 36.4139 36.3494 35.9044 36.7752 35.273C36.9068 35.078 37.16 34.6157 37.338 34.2458C37.6865 33.5214 37.8362 33.3333 38.5348 32.7425C39.1805 32.1965 39.5114 31.7764 39.6696 31.3019C39.8819 30.6654 39.8157 29.8774 39.4423 28.5933C39.325 28.1901 39.3262 28.2482 39.4092 27.0285C39.4419 26.5483 39.3774 26.2018 39.1653 25.7179C38.989 25.3156 38.7892 25.0339 38.2757 24.4632C38.0353 24.1961 37.7762 23.8596 37.6999 23.7154C37.4953 23.3284 36.8014 22.3653 36.6128 22.2064C36.3878 22.0169 35.956 21.8057 35.5089 21.6666C35.1676 21.5604 35.1007 21.519 34.7635 21.2054C34.3121 20.7856 34.1108 20.5358 33.6877 19.8706C33.3471 19.3351 32.9963 18.9906 32.5633 18.7665C32.2721 18.6158 31.862 18.6059 31.5134 18.7413ZM20.9549 21.486C20.8033 21.5674 20.6853 21.757 20.6853 21.9193C20.6853 22.1644 20.9332 22.428 21.1637 22.428C21.3268 22.428 21.5163 22.2885 21.5827 22.1195C21.6638 21.9131 21.6285 21.7358 21.4753 21.5797C21.3198 21.4213 21.1367 21.3883 20.9549 21.486ZM22.6837 22.0002C22.5881 22.0911 22.5429 22.1831 22.5252 22.3227C22.5028 22.5005 22.5144 22.5326 22.654 22.6811C22.7768 22.8118 22.8411 22.8443 22.9761 22.8443C23.1851 22.8443 23.3282 22.7419 23.41 22.5337C23.5952 22.0621 23.0443 21.6575 22.6837 22.0002ZM22.2682 23.7416C21.9579 24.0717 22.142 24.5557 22.5779 24.5557C22.8487 24.5557 23.0336 24.3641 23.0336 24.0836C23.0336 23.8274 22.8114 23.5844 22.577 23.5844C22.452 23.5844 22.3831 23.6195 22.2682 23.7416ZM21.5137 33.3819C21.4313 33.4293 21.3258 33.5456 21.2795 33.6405C21.2063 33.7906 21.2021 33.8372 21.2471 33.997C21.3031 34.1957 21.498 34.3609 21.6768 34.3612C21.9641 34.3617 22.1907 34.067 22.1502 33.7455C22.1062 33.3974 21.7961 33.2201 21.5137 33.3819ZM19.2904 34.4504C18.9994 34.7599 19.2207 35.2865 19.6418 35.2865C19.8535 35.2865 20.0765 35.0303 20.0765 34.7872C20.0765 34.5067 19.8916 34.3152 19.6209 34.3152C19.4541 34.3152 19.3947 34.3395 19.2904 34.4504ZM14.8799 35.9214C14.8082 35.9323 14.7005 35.987 14.6407 36.0429C14.5809 36.0989 14.4496 36.2121 14.3489 36.2945L14.1657 36.4443L13.3487 36.4898C12.2018 36.5537 12.1925 36.5555 12.0292 36.7534C11.9065 36.9021 11.8938 36.9434 11.9137 37.1311C11.9307 37.2912 11.9685 37.3726 12.0714 37.4705C12.1995 37.5921 12.2301 37.5993 12.6302 37.6014L13.0535 37.6036L12.6573 38.0061C12.2328 38.4374 12.162 38.5413 12.162 38.7337C12.162 39.1329 12.5848 39.3478 12.9273 39.1227C13.0071 39.0703 13.3519 38.7583 13.6935 38.4295C14.0351 38.1007 14.3293 37.8314 14.3472 37.8311C14.3652 37.8307 14.3798 38.0197 14.3798 38.2511C14.3798 38.561 14.399 38.7063 14.4524 38.8025C14.6101 39.0865 14.9564 39.1349 15.174 38.9034C15.2919 38.778 15.3076 38.7249 15.3412 38.3379C15.3616 38.1028 15.408 37.6837 15.4444 37.4064C15.4807 37.1291 15.5105 36.7447 15.5105 36.5522C15.5105 36.2159 15.5047 36.1961 15.3626 36.045C15.2157 35.8887 15.171 35.8773 14.8799 35.9214ZM23.1319 35.9565C23.0545 35.9923 22.8001 36.1648 22.5666 36.3398C21.9239 36.8217 21.3179 37.236 20.8593 37.507C20.1993 37.8972 19.9901 38.1068 19.9897 38.3785C19.9894 38.5601 20.1165 38.7851 20.2683 38.8721C20.5519 39.0345 20.7679 38.9348 21.9406 38.1003C22.1885 37.9238 22.4022 37.791 22.4154 37.8051C22.4466 37.8382 22.1311 38.9802 22.0565 39.1043C21.987 39.22 21.1439 39.9013 20.4719 40.3848C20.1988 40.5813 19.9395 40.7998 19.8958 40.8704C19.6611 41.2489 19.9855 41.7736 20.409 41.7004C20.496 41.6854 20.7446 41.5313 21.0175 41.3233C21.2712 41.1299 21.489 40.9825 21.5015 40.9958C21.514 41.009 21.4536 41.2857 21.3675 41.6106C20.6722 44.2324 20.6843 44.159 20.9061 44.3948C21.057 44.5553 21.2582 44.5832 21.4609 44.4717C21.6414 44.3724 21.638 44.3817 22.273 42.2245C22.4115 41.7538 22.541 41.3495 22.5608 41.3259C22.5811 41.3017 22.6455 41.4024 22.7088 41.5572C23.0465 42.3833 23.177 42.5483 23.4928 42.5483C23.7496 42.5483 23.9426 42.3723 23.9748 42.1088C23.9944 41.9477 23.9545 41.8297 23.6656 41.1955C23.4831 40.7949 23.2575 40.324 23.1642 40.1489L22.9946 39.8306L23.1766 39.2006C23.2767 38.854 23.3713 38.5705 23.3867 38.5705C23.4022 38.5705 23.5172 38.8255 23.6424 39.1371C24.0093 40.0508 24.0652 40.1618 24.2018 40.2476C24.5492 40.4659 24.9905 40.2061 24.9905 39.7833C24.9905 39.6279 24.8077 39.1733 24.2365 37.9078L23.8225 36.9907L23.8842 36.7746C23.9181 36.6557 23.946 36.5064 23.9461 36.4428C23.9466 36.2665 23.7883 36.0287 23.6211 35.9544C23.4357 35.872 23.3136 35.8725 23.1319 35.9565Z" fill="#F4DAA6"/>
</svg>
