<svg width="439" height="438" viewBox="0 0 439 438" fill="none" xmlns="http://www.w3.org/2000/svg">
<path opacity="0.85" fill-rule="evenodd" clip-rule="evenodd" d="M215.331 0.443423C212.396 1.06652 210.428 1.73999 208.679 2.71967C207.828 3.19654 206.476 3.74881 205.674 3.94755C204.392 4.26505 203.944 4.22628 201.961 3.62547C197.568 2.2941 193.892 2.50475 190.26 4.29528C187.907 5.45539 186.895 6.69364 183.48 12.5876C181.284 16.3778 180.491 17.449 178.517 19.2948C177.226 20.5029 174.991 22.1637 173.551 22.9858C169.689 25.1906 166.93 27.3298 164.846 29.734C161.783 33.2668 161.286 34.6073 160.57 41.284C160.07 45.9431 159.202 48.0016 154.832 54.8847C153.551 56.9027 153.076 59.04 153.064 62.8434C153.053 66.2986 153.645 68.7782 155.254 72.0167C156.303 74.1291 156.381 74.4719 156.264 76.4435C155.908 82.4021 156.018 83.6367 157.105 85.9075C157.99 87.7576 158.801 88.7003 163.145 92.9292C167.146 96.8247 168.462 98.3203 169.644 100.315C172.096 104.454 174.067 106.071 178.546 107.616C181.442 108.614 184.832 109.259 187.281 109.276C190.399 109.297 191.606 109.667 193.815 111.277C194.945 112.1 196.663 113.355 197.633 114.067C205.965 120.175 210.258 120.488 220.126 115.705C223.473 114.083 226.48 112.889 229.408 112.021C237.608 109.587 241.647 107.013 247.778 100.311C252.14 95.5431 252.557 95.2607 254.488 95.7699C257.791 96.6415 260.384 95.8673 263.059 93.2116C265.547 90.7418 266.621 87.3854 266.863 81.3281C266.957 78.9774 267.171 76.1611 267.339 75.0697C267.88 71.5588 269.479 66.4583 271.121 63.0107C272.54 60.0286 272.718 59.4302 272.71 57.6681C272.701 55.3869 272.122 53.92 269.826 50.3561C269.009 49.0885 267.764 46.8641 267.059 45.4131C265.935 43.1002 265.403 42.4279 262.753 39.9673C258.12 35.6664 252.759 31.8243 247.367 28.9393C243.639 26.9454 241.108 24.5504 239.588 21.5802C237.776 18.0373 235.761 16.5536 231.814 15.8551C228.946 15.3471 223.213 15.319 221.009 15.802C219.2 16.1983 218.898 16.1726 214.774 15.2677C209.456 14.1006 206.19 14.0139 203.065 14.9563C199.806 15.9391 198.544 16.8766 195.91 20.2699C194.608 21.949 190.745 26.0705 187.327 29.4287C183.909 32.7869 180.516 36.2837 179.785 37.1995C177.952 39.4978 176.612 42.2433 175.301 46.39C174.652 48.4407 173.644 50.8015 172.891 52.0324C172.18 53.1965 171.033 55.3186 170.344 56.7482C169.25 59.0175 169.091 59.6183 169.09 61.4842C169.09 63.3291 169.256 63.976 170.308 66.2162C171.712 69.2093 171.809 70.5611 170.778 72.834C168.805 77.1869 170.244 81.5345 174.83 85.074C177.447 87.0942 180.176 88.4096 183.329 89.1698C186.417 89.9144 187.325 90.5543 189.448 93.4851C191.852 96.8055 195.598 99.8932 198.314 100.795C200.076 101.38 207.674 102.093 211.927 102.072C214.558 102.059 215.518 101.923 216.972 101.357C219.58 100.341 222.798 98.1023 226.245 94.905C229.219 92.1455 229.285 92.1049 230.191 92.4752C230.717 92.6904 231.833 92.793 232.792 92.7146C234.653 92.5622 236.034 91.6708 240.023 88.0458C241.161 87.0105 242.997 85.6941 244.101 85.1198C247.518 83.3427 251.311 78.9795 252.775 75.1417C253.873 72.2631 254.287 69.6868 254.479 64.5371C254.579 61.8506 254.802 58.7357 254.975 57.6153C255.344 55.23 254.81 52.6042 253.513 50.4195C252.362 48.4813 249.169 45.5343 243.95 41.5924C241.085 39.4294 237.875 36.6347 235.564 34.2935C232.269 30.9542 231.534 30.369 229.438 29.4131C221.299 25.7026 213.937 26.5037 206.409 31.9183C206.011 32.2044 204.947 32.5371 204.043 32.6583C201.607 32.9844 198.756 34.4779 196.251 36.7404C194.365 38.4439 193.774 39.245 192.294 42.0995C190.803 44.975 190.321 45.6256 188.922 46.6455C187.112 47.9644 186.426 48.8501 185.751 50.7364C185.195 52.2925 185.149 56.2851 185.653 59.2702C186.017 61.4286 186.001 61.5556 185.033 64.3292C183.379 69.0655 183.729 72.6432 186.125 75.4763C188.59 78.3909 193.407 80.8702 196.607 80.8702C198.257 80.8702 199.664 81.4435 202.651 83.3342C206.02 85.4669 207.081 85.8443 209.762 85.8632C213.575 85.8904 216.618 84.5718 221.407 80.8168C224.152 78.6645 224.817 78.3836 226.597 78.6242C227.345 78.7255 228.699 78.6324 229.606 78.4175C230.945 78.1006 231.585 77.7025 233.003 76.303C235.144 74.191 236.005 72.5428 237.239 68.2006C238.591 63.4384 239.242 59.7025 238.985 58.1788C238.673 56.3355 237.525 54.2745 236.138 53.0695C231.381 48.9352 223.435 43.1274 221.568 42.4194C219.552 41.6546 216.151 41.5853 213.842 42.2622C212.068 42.7818 207.621 45.334 206.255 46.6165C204.99 47.8038 201.511 52.8045 200.754 54.5236C199.767 56.762 199.625 60.4258 200.441 62.5527C201.74 65.936 203.935 67.6013 209.143 69.1553C211.516 69.8635 212.619 70.0256 214.867 69.9973C218.803 69.9478 220.136 69.5173 221.891 67.7302C223.806 65.7794 224.661 64.0581 224.846 61.7791C225.027 59.5532 224.612 58.5952 222.742 56.9287C218.887 53.4923 214.657 53.5057 213.109 56.9589C212.567 58.1669 212.527 58.5375 212.828 59.5294C213.288 61.0455 214.464 61.9421 215.991 61.9421C217.623 61.9421 217.504 62.4685 215.815 62.7185C214.724 62.8797 213.841 62.724 211.519 61.9605C208.271 60.8926 207.596 60.3708 207.596 58.9265C207.596 57.7255 208.142 56.6508 210.106 53.9869C211.248 52.4375 212.124 51.6419 213.705 50.719C216.149 49.2921 217.365 48.9694 218.579 49.4249C219.562 49.7937 223.178 52.3936 226.005 54.7626C227.026 55.6187 228.662 56.9018 229.64 57.614C230.618 58.3263 231.419 59.1472 231.419 59.4385C231.419 60.6135 229.214 68.5068 228.557 69.6852L227.852 70.9482L224.917 71.1113C221.44 71.3045 220.669 71.6266 217.4 74.2506C211.959 78.6171 209.924 79.1874 207.095 77.1389C204.288 75.1066 200.616 73.5771 198.005 73.3527C196.728 73.2428 195.293 72.9583 194.815 72.7204C193.367 71.9993 191.507 70.1642 191.514 69.4627C191.517 69.1043 191.933 67.6548 192.438 66.2416C193.689 62.742 193.816 61.3841 193.214 57.9816C192.543 54.1911 192.702 53.4511 194.449 52.236C195.988 51.1657 197.425 49.1279 199.11 45.6237C200.018 43.7364 200.579 43.0211 202.105 41.8027C203.362 40.7986 204.375 40.247 205.17 40.1325C205.824 40.0381 206.907 39.8818 207.578 39.7847C208.29 39.6816 209.479 39.1171 210.44 38.425C213.206 36.4323 214.633 35.6523 216.332 35.2063C219.488 34.3771 223.182 34.8021 226.258 36.3484C226.908 36.675 229.135 38.628 231.208 40.6884C233.281 42.7488 236.646 45.6607 238.686 47.1587C242.918 50.2675 246.407 53.4013 247.092 54.7086C247.355 55.2093 247.473 55.8888 247.361 56.2537C247.252 56.6118 247.04 59.5838 246.89 62.858C246.599 69.2264 246.333 70.936 245.292 73.1219C244.329 75.1441 241.845 77.668 239.717 78.7869C238.697 79.3236 236.657 80.836 235.184 82.1481C233.712 83.4603 232.297 84.5288 232.04 84.523C231.784 84.5169 231.226 84.3157 230.8 84.0757C229.89 83.5619 228.083 83.4917 226.927 83.9252C226.477 84.0941 224.41 85.9154 222.335 87.9722C218.225 92.0454 215.88 93.7736 213.671 94.3564C211.731 94.8684 201.157 94.0008 199.968 93.2317C198.479 92.2691 196.766 90.5629 195.418 88.6997C192.603 84.8097 189.747 82.8387 185.584 81.9118C184.332 81.6334 182.812 81.1575 182.204 80.8543C180.586 80.0471 177.973 77.9327 177.755 77.254C177.651 76.931 177.876 75.9294 178.255 75.0284C178.82 73.6858 178.947 72.7852 178.96 70.0324C178.977 66.7667 178.944 66.6042 177.789 64.1323L176.601 61.5904L177.258 60.082C177.62 59.2525 178.654 57.3475 179.556 55.8485C180.496 54.2867 181.552 51.9753 182.031 50.4345C183.249 46.5152 184.296 44.024 185.375 42.4765C185.899 41.7252 189.275 38.2073 192.877 34.6592C196.48 31.1108 200.298 27.0724 201.363 25.6849C203.607 22.7593 204.051 22.4308 206.393 21.964C207.808 21.6819 208.552 21.7079 210.415 22.1044C215.216 23.1256 218.786 23.7808 219.551 23.7808C219.989 23.7808 221.321 23.5491 222.51 23.2655C224.375 22.8216 225.148 22.7968 228.114 23.0859C231.954 23.4602 232.037 23.5097 233.465 26.2921C235.331 29.9238 239.286 33.3352 245.276 36.4772C248.179 37.9994 253.652 41.999 257.085 45.105C259.295 47.1053 259.897 47.8496 260.445 49.2631C260.812 50.2101 261.738 51.939 262.503 53.1049C263.267 54.2711 264.172 55.7655 264.513 56.4262L265.134 57.6272L263.904 60.1663C261.245 65.6536 259.635 72.461 259.29 79.6695C259.086 83.9469 258.911 85.3067 258.426 86.3859C257.576 88.2775 257.048 88.6511 255.822 88.2292C254.447 87.7563 251.844 87.8095 250.316 88.3416C248.211 89.0743 246.412 90.5568 242.37 94.8882C238.577 98.9547 235.186 101.785 232.811 102.87C232.131 103.181 229.277 104.143 226.469 105.007C222.842 106.123 220.284 107.14 217.636 108.519C213.77 110.531 211.161 111.399 208.98 111.399C207.426 111.399 203.755 109.328 200.016 106.341C196.179 103.277 193.926 102.302 189.806 101.922C184.77 101.458 182.655 101.073 180.572 100.237C178.196 99.2844 177.557 98.6775 175.781 95.6854C174.654 93.7864 173.203 92.1382 169.178 88.1819C163.283 82.3881 163.314 82.447 163.981 78.2172C164.495 74.9561 164.155 72.9915 162.458 69.419C160.825 65.9799 160.396 63.8124 160.807 61.0791C161.048 59.4788 161.38 58.6227 162.202 57.484C163.819 55.2441 166.048 51.0139 166.875 48.6116C167.656 46.3457 168.151 43.6833 168.482 39.9612C168.594 38.7019 168.934 37.1907 169.237 36.603C170.142 34.8473 173.803 31.6442 177.063 29.7559C183.68 25.9218 186.634 22.8002 190.903 15.1294C191.822 13.4778 192.907 11.7981 193.313 11.3973C194.643 10.0842 196.801 10.043 201.335 11.2431C204.81 12.1632 207.11 11.8265 211.618 9.73739C213.941 8.66124 215.66 8.09676 217.651 7.75697C221.572 7.08747 222.627 7.30941 225.124 9.32891C226.251 10.2408 227.537 11.1704 227.981 11.3951C228.986 11.9022 237.32 15.0687 240.159 16.0215C241.316 16.4098 242.711 17.0354 243.26 17.4115C245.7 19.0827 249.249 22.5505 250.518 24.5025C252.213 27.1097 254.371 29.4107 256.005 30.3516C256.692 30.7472 258.298 31.4387 259.574 31.8887C262.303 32.851 265.028 34.364 267.066 36.048C269.459 38.0241 270.222 39.971 271.476 47.2882C272.734 54.6378 273.551 57.7001 275.304 61.6439C276.804 65.0195 277.828 68.3615 277.828 69.8843C277.828 70.5404 277.513 71.4168 277.019 72.1346C275.175 74.8117 272.785 81.1257 272.104 85.1156C271.858 86.5587 271.513 89.6946 271.337 92.0847C270.964 97.1419 270.382 99.0109 268.575 100.955C267.511 102.1 267.248 102.237 266.483 102.042C264.924 101.646 261.626 101.808 259.956 102.362C257.614 103.14 255.118 105.126 251.888 108.782C248.099 113.07 247.392 113.452 242.532 113.842C237.897 114.214 236.08 114.696 232.736 116.441C229.778 117.984 227.574 119.602 223.956 122.887C219.262 127.149 218.042 127.578 214.048 126.378C209.375 124.974 208.084 124.776 203.264 124.719C197.132 124.646 196.149 124.265 194.152 121.19C192.602 118.805 191.301 117.639 189.714 117.214C188.857 116.984 188.352 116.568 187.709 115.558C186.586 113.796 184.512 111.93 182.629 110.988C181.799 110.573 179.072 109.55 176.57 108.715C174.068 107.88 170.991 106.616 169.732 105.905C167.511 104.651 166.714 104.034 161.049 99.1876C159.577 97.9283 157.51 96.161 156.454 95.2604C154.103 93.2546 152.499 92.4868 150.641 92.478C149.861 92.4743 146.798 93.0724 143.834 93.8069C136.119 95.7195 136.336 95.6966 134.469 94.7994C128.913 92.1293 125.285 91.6451 119.663 92.822C117.836 93.2045 115.256 94.8489 112.458 97.4145C109.725 99.9191 105.856 102.568 102.917 103.945C101.06 104.815 100.104 105.055 97.7011 105.256C93.8006 105.58 92.3792 106.275 89.2439 109.39C86.0989 112.513 84.0634 116.19 83.2138 120.282C82.1006 125.644 81.4648 126.891 78.0692 130.374C74.7256 133.804 73.9435 135.388 73.9469 138.723C73.9484 140.222 74.2392 142.393 74.6999 144.346C75.1711 146.342 75.3518 147.71 75.1851 148.017C74.8413 148.651 72.1768 151.077 69.3898 153.294C66.9277 155.253 64.826 158.09 64.2947 160.171C64.0964 160.949 63.4402 162.111 62.7648 162.881C61.1519 164.72 60.8206 166.062 61.4196 168.331C62.7611 173.413 65.032 179.033 66.8615 181.799C68.8577 184.816 69.2843 186.517 69.2524 191.337C69.2231 195.759 69.6766 198.7 70.6262 200.239C72.4608 203.214 75.755 205.858 80.648 208.282C82.9016 209.398 83.6813 209.964 84.4121 211.011C86.804 214.442 90.987 216.696 97.853 218.255C100.982 218.966 101.402 218.97 108.9 218.379C111.096 218.206 111.32 218.249 113.076 219.18C114.097 219.722 116.047 220.956 117.408 221.923C120.588 224.183 123.76 225.737 126.085 226.175C128.152 226.564 128.913 226.412 133.806 224.639C136.527 223.652 136.707 223.629 141.695 223.611C146.29 223.596 147.001 223.665 148.81 224.306C150.684 224.971 150.988 224.995 153.296 224.67C160.753 223.622 160.719 223.631 164.9 221.673C167.802 220.315 172.434 218.703 174.3 218.402C175.166 218.262 175.963 217.778 177.148 216.672C179.693 214.297 183.837 208.698 185.922 204.818C187.364 202.135 188.218 200.937 189.547 199.736C191.249 198.197 191.332 198.162 193.485 198.044C194.775 197.973 196.179 197.687 196.881 197.35C198.459 196.594 200.543 193.985 202.13 190.777C203.3 188.415 203.412 187.979 203.394 185.892C203.381 184.438 203.118 182.773 202.675 181.334C201.88 178.754 201.772 174.79 202.376 170.32C202.804 167.155 202.552 161.919 201.861 159.635C201.238 157.575 199.995 155.601 198.305 153.987C196.801 152.552 196.471 151.976 195.24 148.65C193.574 144.144 189.647 137.951 186.236 134.449C182.061 130.162 178.478 125.974 176.771 123.387C174.877 120.516 173.884 119.765 170.247 118.448C166.846 117.217 165.844 116.689 161.167 113.665C158.971 112.244 156.789 110.928 156.319 110.739C154.622 110.057 152.263 109.939 146.152 110.23L139.934 110.527L135.53 109.106C131.16 107.697 131.097 107.687 127.512 107.787C123.462 107.901 123.761 107.794 117.253 111.423C115.296 112.515 112.876 113.734 111.876 114.134C109.333 115.149 105.849 117.461 104.453 119.059C102.467 121.331 98.99 126.656 97.3936 129.869C96.5591 131.548 95.303 134.699 94.6025 136.871C93.3415 140.779 93.3059 140.842 91.1064 143.129C88.3738 145.97 85.947 149.25 84.8885 151.53C84.1376 153.149 84.0881 153.554 84.0566 158.352C84.016 164.474 84.7416 170.759 85.8436 173.831C86.7947 176.482 86.8532 178.608 86.0073 179.781C84.6203 181.703 83.22 185.186 83.22 186.715C83.22 189.369 83.8592 191.776 85.2938 194.521C86.9794 197.747 89.6371 200.313 92.9659 201.928C94.9713 202.901 99.2363 203.903 104.556 204.652C105.315 204.759 108.55 205.663 111.744 206.661C115.819 207.934 119.516 208.834 124.132 209.675C127.751 210.335 131.78 211.229 133.087 211.663C134.393 212.096 136.029 212.451 136.723 212.451C137.417 212.451 140.867 211.97 144.391 211.382C147.981 210.783 151.89 210.311 153.284 210.309C156.312 210.303 160.174 209.395 162.05 208.248C162.801 207.789 164.247 206.919 165.262 206.314C169.463 203.814 173.693 198.734 177.258 191.906C177.524 191.398 178.451 190.66 179.554 190.08C182.613 188.472 184.448 186.572 186.192 183.21C188.659 178.455 191.507 169.75 191.507 166.965C191.507 165.054 190.796 162.815 189.135 159.499C188.373 157.979 187.317 155.705 186.789 154.445C185.036 150.27 183.379 148.327 179.423 145.808C177.054 144.3 175.936 143.037 174.638 140.402C172.362 135.78 168.422 129.286 167.033 127.866C166.118 126.931 164.569 125.885 162.702 124.944C156.859 122 156.338 121.84 149.845 121.006C143.529 120.194 142.854 120.211 139.456 121.256C137.427 121.88 137.298 121.884 134.66 121.393C131.358 120.779 127.473 120.411 124.369 120.418C122.518 120.422 121.705 120.583 120.347 121.219C117.583 122.511 115.174 124.695 112.786 128.075C111.584 129.774 110.209 131.654 109.729 132.252C109.25 132.851 108.229 134.748 107.462 136.469C106.694 138.19 105.6 140.136 105.03 140.793C103.956 142.031 102.655 144.496 102.283 145.997C102.165 146.472 101.496 147.571 100.795 148.44C99.3363 150.247 97.6603 153.626 97.0204 156.051C96.7794 156.963 96.2213 158.413 95.7798 159.273C94.4327 161.896 94.7588 164.425 97.2098 170.365C98.4551 173.383 98.5111 173.655 98.4418 176.361C98.331 180.685 99.1389 183.307 101.538 186.412C104.145 189.785 109.505 193.142 115.087 194.899C117.329 195.605 118.471 195.756 122.822 195.922C127.716 196.11 127.991 196.154 129.474 197.001C132.895 198.953 133.355 199.094 137.206 199.359C141.585 199.66 143.446 199.418 146.724 198.117C148.043 197.593 149.922 197.023 150.901 196.85C154.279 196.251 158.648 194.756 160.016 193.729C161.801 192.39 165.87 187.188 167.341 184.364C168.659 181.836 169.732 178.768 170.918 174.137C171.347 172.457 172.06 169.916 172.501 168.489C173.475 165.338 173.85 160.365 173.268 158.314C173.058 157.574 172.274 156.229 171.527 155.325C170.778 154.422 169.451 152.652 168.577 151.392C167.702 150.133 166.259 148.347 165.369 147.424C164.48 146.5 163.229 144.878 162.591 143.82C160.403 140.19 158.023 138.628 152.524 137.216C150.737 136.756 148.155 135.848 146.787 135.196C143.19 133.484 141.736 133.24 138.749 133.849C137.408 134.123 135.748 134.635 135.059 134.988C134.097 135.48 132.956 135.679 130.158 135.843C124.938 136.148 123.844 136.731 118.598 141.996C114.557 146.053 112.359 148.95 110.829 152.243C109.753 154.557 109.766 156.66 110.891 162.641C111.718 167.036 111.747 167.458 111.363 169.467C110.828 172.263 111.263 176.14 112.296 177.788C113.253 179.318 117.357 182.755 119.264 183.625C121.458 184.627 125.309 185.044 128.387 184.615L130.849 184.271L133.256 185.356C136.687 186.903 139.013 187.497 141.684 187.508C143.722 187.517 144.317 187.379 146.408 186.421C149.378 185.06 151.516 183.119 154.733 178.869C157.391 175.356 158.448 173.049 159.629 168.192C160.489 164.652 160.369 163.184 158.931 159.635C156.705 154.141 155.044 151.571 152.802 150.151C151.203 149.139 145.437 147.008 142.469 146.332C139.811 145.728 138.342 145.794 134.621 146.686C131.146 147.52 130.615 147.766 128.391 149.578C127.626 150.201 126.373 150.979 125.607 151.306C123.968 152.006 122.421 153.634 121.892 155.214C121.214 157.241 122.156 166.933 123.293 169.621C123.908 171.077 125.41 172.638 126.949 173.42C128.487 174.202 132.586 174.981 133.909 174.743C134.476 174.641 136.629 174.499 138.693 174.428C141.943 174.315 142.664 174.192 144.084 173.506C145.915 172.622 147.022 171.379 147.723 169.42C149.458 164.568 148.613 159.576 145.741 157.704C142.734 155.745 136.848 155.505 133.981 157.225C131.718 158.583 131.082 161.565 132.692 163.266C133.437 164.053 133.825 164.215 134.971 164.215C135.884 164.215 136.619 164.008 137.139 163.604C138.05 162.897 140.052 162.786 140.899 163.397C141.353 163.725 141.418 164.038 141.243 165.059C141.125 165.751 140.865 166.448 140.666 166.608C140.466 166.769 138.563 166.932 136.436 166.97C131.785 167.054 131.136 167.025 130.635 166.711C130.415 166.573 130.051 164.996 129.793 163.066C129.543 161.195 129.252 159.323 129.146 158.907C128.981 158.257 129.122 158.065 130.149 157.548C130.806 157.217 132.094 156.39 133.011 155.71C135.206 154.083 138.51 153.242 140.7 153.754C142.78 154.241 148.132 156.153 148.688 156.608C149.44 157.224 150.558 159.292 151.608 162.008L152.583 164.533L152.08 166.74C151.356 169.915 150.39 172.009 148.529 174.442C144.793 179.324 143.064 180.413 140.036 179.793C139.086 179.599 137.156 178.864 135.748 178.162C132.956 176.769 133.329 176.811 125.916 177.059C122.92 177.159 122.247 176.909 120.077 174.892L118.724 173.634L118.985 171.138C119.36 167.552 119.174 164.593 118.3 160.251C117.877 158.155 117.619 156.094 117.726 155.671C118.119 154.118 121.321 149.933 124.489 146.833L127.744 143.647L131.249 143.435C134.076 143.264 135.2 143.048 137.064 142.318C140.718 140.885 140.986 140.88 143.752 142.196C145.088 142.831 147.574 143.729 149.275 144.191C150.977 144.653 152.817 145.166 153.365 145.332C154.466 145.665 155.64 146.892 156.562 148.676C156.895 149.319 157.979 150.709 158.971 151.764C159.964 152.819 161.498 154.712 162.381 155.972C163.264 157.231 164.48 158.869 165.083 159.611C166.518 161.375 166.488 161.708 164.172 169.71C163.759 171.137 163.04 173.715 162.574 175.439C161.541 179.266 160.103 182.063 157.53 185.256C155.689 187.541 155.454 187.722 153.508 188.347C152.371 188.713 150.255 189.254 148.804 189.55C147.354 189.846 145.057 190.53 143.699 191.07C141.417 191.977 141.022 192.042 138.447 191.924C135.971 191.81 135.49 191.689 134.115 190.831C131.137 188.971 129.37 188.546 123.75 188.335C119.022 188.157 118.454 188.072 116.058 187.178C112.728 185.936 110.999 184.925 108.931 183.01C106.575 180.828 105.989 179.396 106.247 176.455C106.421 174.478 106.333 173.734 105.647 171.4C105.204 169.895 104.444 167.766 103.957 166.668C102.757 163.96 102.534 162.631 103.128 161.728C103.388 161.333 103.884 159.996 104.23 158.758C105.052 155.818 105.795 154.354 107.507 152.308C108.417 151.22 109.11 149.98 109.475 148.784C109.807 147.697 110.612 146.191 111.435 145.121C112.203 144.12 113.414 141.94 114.126 140.276C114.838 138.612 115.834 136.785 116.339 136.218C116.844 135.65 117.878 134.256 118.636 133.12C120.256 130.694 122.227 128.687 123.498 128.167C124.196 127.882 124.982 127.877 126.939 128.147C128.333 128.339 130.101 128.498 130.866 128.499C131.632 128.501 132.942 128.707 133.778 128.957C136.048 129.637 138.536 129.527 141.299 128.626C143.114 128.034 144.049 127.887 145.099 128.03C145.864 128.133 148.16 128.415 150.2 128.656C153.592 129.057 154.192 129.23 157.225 130.675C159.049 131.544 160.955 132.68 161.46 133.2C162.479 134.245 166.328 140.716 167.686 143.665C169.334 147.243 171.699 149.988 174.797 151.92C177.137 153.378 178.653 154.879 179.305 156.383C179.607 157.08 180.735 159.525 181.813 161.816C182.891 164.106 183.773 166.39 183.773 166.891C183.773 168.088 181.534 175.013 180.148 178.105C178.637 181.476 177.946 182.28 175.351 183.692C172.462 185.263 171.839 185.941 169.538 190.011C166.529 195.337 164.2 197.992 160.568 200.237C157.236 202.297 156.691 202.465 152.679 202.682C150.637 202.793 146.264 203.34 142.962 203.898L136.958 204.913L134.454 204.115C133.076 203.676 131.114 203.18 130.093 203.012C120.31 201.405 119.311 201.174 112.088 198.84C109.78 198.095 106.9 197.341 105.688 197.166C101.877 196.615 97.3558 195.643 96.2962 195.147C94.4358 194.276 92.326 191.992 91.6129 190.076C91.2509 189.105 90.9548 187.966 90.9548 187.546C90.9548 186.766 91.839 184.82 92.817 183.448C94.4714 181.126 94.7749 176.932 93.5713 173.026C92.3836 169.173 91.426 161.119 91.7131 157.397C91.9365 154.498 91.9925 154.326 93.3443 152.36C94.1143 151.24 95.7516 149.294 96.9833 148.034C99.5132 145.447 100.413 143.881 101.619 139.959C102.081 138.457 102.981 136.035 103.617 134.579C104.914 131.61 108.852 125.51 110.557 123.827C111.245 123.149 113.554 121.801 116.553 120.328C119.235 119.01 122.405 117.369 123.596 116.681C126.891 114.775 128.228 114.721 133.045 116.293C138.44 118.055 139.314 118.151 146.568 117.785L152.866 117.466L154.165 118.267C154.879 118.707 156.299 119.606 157.32 120.264C161.402 122.895 163.024 123.761 166.122 124.965C169.343 126.217 169.362 126.23 170.763 128.257C172.465 130.717 176.151 135.002 179.768 138.723C183.655 142.723 187.087 148.152 188.421 152.413C189.141 154.711 190.44 156.78 192.629 159.116C193.541 160.09 194.393 161.258 194.522 161.711C194.815 162.743 194.79 168.066 194.462 174.442C194.245 178.662 194.284 179.596 194.752 181.311C195.991 185.848 195.999 186.015 195.069 187.787C193.752 190.299 193.522 190.47 191.447 190.47C189.123 190.47 187.71 191.164 184.767 193.752C182.297 195.924 181.243 197.284 179.725 200.259C178.285 203.079 176.87 205.217 174.467 208.198L172.358 210.815L168.959 211.926C167.089 212.538 164.192 213.67 162.522 214.443C158.895 216.121 157.077 216.625 153.674 216.898C151.763 217.051 150.772 216.986 149.734 216.641C148.971 216.387 146.578 216.08 144.416 215.958C139.101 215.659 135.083 216.157 130.85 217.639L127.586 218.782L126.055 218.209C125.213 217.893 123.271 216.744 121.739 215.655C120.208 214.566 117.652 213.021 116.06 212.223C113.189 210.783 113.142 210.771 110.182 210.786C108.541 210.794 105.989 210.917 104.512 211.059C101.378 211.36 99.2611 211.032 95.3677 209.642C92.6818 208.683 92.1781 208.299 89.3113 205.017C88.1214 203.655 87.1947 203.001 84.6939 201.759C81.3342 200.09 80.1644 199.372 78.7836 198.129C77.1605 196.669 77.0046 196.032 76.8824 190.373C76.7379 183.681 76.202 181.78 73.2944 177.647C72.218 176.118 69.2973 168.819 69.2973 167.66C69.2973 167.412 69.5813 166.815 69.9288 166.334C70.2759 165.853 70.83 164.684 71.1602 163.738C72.0104 161.3 72.7421 160.267 74.6096 158.872C77.4353 156.761 81.6415 152.565 82.3206 151.181C83.1761 149.437 83.1893 146.547 82.3574 143.15C81.0985 138.008 80.9961 138.556 83.7441 135.722C87.6477 131.695 89.4759 128.217 90.487 122.894C91.0807 119.768 92.3972 117.085 94.3974 114.926C96.0678 113.122 97.1782 112.631 99.6178 112.615C101.834 112.6 103.582 112.079 106.767 110.482C110.483 108.619 114.77 105.687 118.153 102.696C119.583 101.431 121.115 100.297 121.556 100.176C121.997 100.055 123.542 99.9545 124.988 99.9533C127.437 99.9512 127.812 100.04 130.431 101.249C135.152 103.426 137.006 103.465 144.17 101.534C150.415 99.852 150.031 99.8513 152.023 101.544C162.567 110.505 163.924 111.542 167.22 113.144C169.542 114.273 173.607 115.842 175.348 116.282C177.283 116.771 179.497 117.761 180.285 118.488C180.664 118.839 181.553 120.1 182.261 121.292C184.901 125.74 186.306 127.588 187.63 128.353C188.346 128.767 189.214 129.106 189.559 129.106C189.904 129.106 190.555 129.392 191.005 129.741C192.998 131.289 199.205 132.49 204.82 132.416C207.304 132.384 208.245 132.527 210.999 133.355C219.002 135.762 221.877 134.949 229.668 128.075C235.507 122.923 238.057 121.706 243.782 121.339C249.233 120.99 252.075 119.711 255.577 116.032C256.669 114.884 258.379 113.085 259.377 112.032C261.742 109.537 262.72 109.131 265.409 109.531C269.652 110.163 272.491 108.76 275.475 104.558C277.922 101.112 278.507 99.0487 279.072 91.8607C279.609 85.0347 280.934 80.4058 283.606 76.0283C284.878 73.9444 285.563 71.7859 285.563 69.8635C285.563 67.7051 284.255 63.051 282.497 58.9558C280.768 54.9247 280.026 52.1756 279.064 46.2294C278.2 40.8865 277.581 38.2961 276.693 36.3105C274.583 31.5877 269.384 27.3988 262.616 24.9674C259.548 23.8656 259.079 23.4752 256.875 20.1918C254.983 17.3739 250.685 13.2095 247.508 11.1167C246.309 10.3272 244.059 9.29747 241.938 8.56783C239.982 7.89435 237.545 7.01145 236.524 6.60572C235.503 6.19999 234.003 5.62696 233.191 5.33236C232.378 5.03775 230.594 3.91885 229.225 2.84606C227.615 1.58429 226.177 0.731312 225.154 0.431516C223.173 -0.148842 218.092 -0.142735 215.331 0.443423ZM126.02 4.40762C123.921 5.47095 118.568 12.6767 115.711 18.2855C114.048 21.5488 113.011 24.5782 111.946 29.276C110.93 33.7601 110.936 41.9419 111.959 47.6988C112.343 49.8557 112.612 51.6636 112.557 51.7167C112.502 51.7699 111.065 50.9489 109.364 49.8926C103.02 45.9544 95.4326 42.5 89.2371 40.7284C83.4817 39.0826 79.9414 38.6463 72.5459 38.6707C66.2996 38.6912 65.4723 38.7584 62.495 39.4865C59.4237 40.2372 56.1921 41.5963 54.9808 42.6459C53.0505 44.3189 52.3652 55.5942 53.6724 64.172C54.3536 68.6421 55.9229 75.2327 57.2124 79.0384C59.8089 86.7022 64.4235 95.5971 68.9161 101.599C72.045 105.778 77.4981 110.521 79.6286 110.915C81.269 111.219 82.8243 110.457 83.4161 109.059C84.1723 107.273 83.6343 106.01 81.3698 104.255C77.0909 100.938 73.4986 96.0847 69.4276 88.1227C64.6536 78.7857 61.7754 69.2914 60.9044 60.009C60.531 56.0296 60.7123 48.8446 61.2194 47.5287C61.7156 46.2401 63.9442 45.9073 71.7725 45.9534C77.7199 45.9886 78.8176 46.078 82.1371 46.7961C94.2709 49.4216 106.186 55.5368 115.315 63.8249C117.877 66.1512 118.817 66.3347 121.495 65.0317C123.084 64.2587 123.571 63.8475 123.946 62.9612C124.524 61.5966 124.334 60.7946 122.971 58.8392C121.687 56.9973 120.309 52.8588 119.532 48.5093C119.089 46.0322 118.962 43.8124 118.971 38.74C118.983 32.3573 119.01 32.0795 119.951 28.6654C120.484 26.7345 121.466 23.982 122.135 22.5489C124.296 17.9201 129.028 11.2638 130.158 11.2638C130.879 11.2638 135.585 14.1482 139.065 16.7228C143.665 20.1252 151.035 27.0217 152.84 29.6128C153.54 30.6172 154.425 31.4839 154.985 31.7125C156.294 32.2474 158.01 31.9113 159.066 30.913C161.475 28.6349 160.052 25.2599 154.405 19.8587C148.217 13.9403 140.189 8.24636 133.854 5.28229C130.939 3.91855 127.7 3.55708 126.02 4.40762ZM128.8 19.0833C128.251 19.3504 127.59 20.0339 127.303 20.629C126.699 21.8855 126.83 22.8979 128.589 30.5927C129.196 33.2478 129.629 35.4835 129.551 35.5607C129.472 35.6383 128.797 35.3565 128.049 34.9346C126.113 33.8426 124.865 33.9158 123.565 35.1987C122.73 36.0223 122.513 36.4812 122.513 37.4203C122.513 38.0714 122.724 38.9012 122.981 39.2642C123.589 40.1196 129.752 44.4939 131.237 45.1237C132.303 45.5755 132.419 45.7575 132.912 47.7461C133.606 50.5417 134.834 51.8675 136.729 51.8675C138.366 51.8675 139.7 51.1864 140.298 50.0459C140.857 48.9789 140.887 48.0291 140.421 46.2001C140.035 44.6911 139.872 45.1921 143.125 37.9182C145.146 33.399 145.233 32.4004 143.737 30.9246C141.835 29.0477 139.321 29.6759 137.816 32.4043C137.363 33.225 136.941 33.8453 136.878 33.7827C136.814 33.7201 136.058 30.9289 135.198 27.5798C133.311 20.2309 133.181 19.8929 131.974 19.1663C130.82 18.4724 130.095 18.4535 128.8 19.0833ZM142.933 23.7051C141.38 24.4704 140.767 26.2512 141.519 27.8143C142.263 29.3621 143.837 30.0817 145.441 29.6076C148.261 28.7741 148.641 24.9619 146.037 23.6333C144.867 23.0362 144.261 23.0502 142.933 23.7051ZM314.336 39.2557C303.744 40.0448 291.741 43.9779 286.575 48.3533C284.31 50.2715 284.115 52.7718 286.11 54.3203C287.442 55.3537 288.744 55.1039 291.548 53.2768C296.787 49.8639 303.732 47.8969 313.847 46.9606C323.482 46.0688 333.872 47.3508 345.276 50.8381C350.869 52.5486 352.082 53.4908 352.082 56.1221C352.082 57.7435 351.667 58.6795 349.296 62.4001C339.135 78.3494 331.649 85.038 314.736 93.2821C311.468 94.8751 308.441 96.4526 308.01 96.7871C307.536 97.1553 307.036 98.0419 306.744 99.0301C306.327 100.446 306.32 100.8 306.694 101.682C307.514 103.617 307.493 103.613 315.699 103.633C322.104 103.649 323.655 103.748 326.712 104.336C345.137 107.878 356.484 113.062 365.826 122.206C369.478 125.779 374.803 132.381 375.949 134.754C377.504 137.975 376.983 139.474 373.53 141.711C372.369 142.463 370.097 144.133 368.48 145.423C364.413 148.668 361.524 150.511 357.187 152.623C350.83 155.72 344.019 157.821 336.322 159.057C332.15 159.727 331.076 160.222 330.426 161.77C329.579 163.787 330.917 166.307 333.124 166.854C335.104 167.344 344.038 165.527 351.309 163.156C360.272 160.231 365.662 157.251 373.121 151.095C375.418 149.199 378.306 146.899 379.539 145.984C383.528 143.021 384.957 140.647 384.999 136.915C385.017 135.256 384.875 134.817 383.662 132.77C375.938 119.741 365.933 110.373 353.549 104.573C346.243 101.151 337.179 98.4794 328.529 97.1975C326.782 96.9386 325.306 96.6806 325.249 96.6241C325.191 96.5676 326.159 95.9308 327.398 95.2088C333.488 91.6607 338.489 87.8091 343.306 82.959C347.816 78.4178 350.552 74.5894 356.779 64.1088C360.839 57.2758 361.364 55.9862 361.363 52.8481C361.363 50.2263 360.826 48.7936 359.477 47.8191C358.421 47.0562 347.908 43.6058 342.027 42.0924C332.079 39.5326 323.045 38.6069 314.336 39.2557ZM316.968 50.7227C316.39 51.2161 315.782 52.5285 314.815 55.3784C314.074 57.5612 312.902 60.9271 312.211 62.858L310.953 66.3689L309.164 67.2075C306.656 68.3832 306.545 68.3377 307.23 66.4147C308.625 62.4987 310.314 56.5086 310.314 55.4782C310.314 53.1388 307.777 51.5574 305.714 52.61C304.363 53.2991 304.065 53.8532 302.171 59.1945C298.593 69.2865 296.958 73.1366 296.022 73.6827C294.948 74.3083 294.226 75.629 294.227 76.9625C294.228 78.1907 295.213 79.8658 296.159 80.2495C297.093 80.6287 304.007 81.1755 307.864 81.1755C309.574 81.1755 312.976 81.3223 315.424 81.5015C320.635 81.8834 321.634 81.6331 322.557 79.7137C323.032 78.7267 323.043 78.4706 322.658 77.3859C322.029 75.6112 320.95 75.1206 316.771 74.7094C314.836 74.5189 313.139 74.2643 312.998 74.144C312.858 74.0234 314.289 73.2813 316.178 72.4942L319.613 71.0636L326.908 72.3034C335.037 73.6852 336.166 73.7624 337.118 73.0022C338.784 71.6702 338.923 69.7368 337.463 68.2055C336.67 67.373 335.969 67.0289 334.137 66.5716L331.817 65.9921L333.364 65.3062C334.215 64.9291 336.93 63.8209 339.397 62.844C344.702 60.7433 345.585 60.064 345.585 58.0833C345.585 56.9671 345.413 56.5354 344.681 55.8128C343.366 54.5159 341.868 54.6112 337.049 56.2979C334.885 57.0557 333.062 57.6241 332.998 57.5615C332.935 57.4986 333.026 57.0761 333.201 56.6221C334.077 54.3477 333.228 52.2232 331.175 51.5546C329.904 51.1406 328.712 51.4926 327.708 52.5789C326.991 53.3543 324.875 58.2558 324.589 59.8051C324.425 60.6917 324.155 60.9878 322.999 61.545C322.234 61.9144 321.201 62.3128 320.706 62.4303C319.905 62.6202 319.831 62.579 320.044 62.0643C320.722 60.4248 322.372 54.3303 322.376 53.4502C322.386 51.3965 321.083 50.0532 319.072 50.0425C318.164 50.0379 317.532 50.2422 316.968 50.7227ZM68.5241 52.654C66.9128 53.4831 66.3129 55.0783 67.001 56.7037C67.2535 57.2996 68.465 58.7158 69.6936 59.8503L71.9272 61.9131L70.1531 61.9278C67.876 61.9461 66.566 62.9496 66.3042 64.8754C66.1576 65.9537 66.2585 66.2675 67.0227 67.1116C67.7816 67.9497 68.4326 68.2247 71.4665 68.9904C73.4215 69.4841 76.7614 70.4289 78.8885 71.0908C82.3741 72.1749 82.892 72.4307 84.1352 73.6818C84.9145 74.4658 85.3183 75.0666 85.0634 75.0626C84.8152 75.0587 82.8023 74.7873 80.5901 74.4591C73.9379 73.4724 72.6815 73.6507 71.5887 75.7358C70.4841 77.8432 71.9788 79.9726 74.9406 80.5109C75.8357 80.6736 80.2576 81.5113 84.767 82.3728C89.2763 83.2341 93.2112 83.9353 93.5107 83.931C93.8105 83.9268 95.8175 85.6401 97.9706 87.7389C100.752 90.4496 102.201 91.6405 102.976 91.8515C105.036 92.4126 106.755 91.5572 107.515 89.593C107.981 88.3898 107.981 88.1999 107.516 87.099C107.238 86.4436 106.621 85.4953 106.143 84.9916C105.313 84.1167 105.231 83.7479 104.31 76.7488C103.779 72.7189 103.204 67.9332 103.031 66.1136C102.664 62.2682 102.142 60.9585 100.707 60.2866C98.6553 59.3258 96.6405 59.9816 95.712 61.9125C95.2544 62.8638 95.2402 63.3569 95.5784 66.5053C95.9738 70.1853 96.4314 73.4623 96.7318 74.7644C96.8713 75.3685 96.4165 75.0516 94.5502 73.2455C93.2533 71.9905 92.1865 70.7541 92.1797 70.4979C92.1726 70.2418 91.5634 68.3151 90.8255 66.2162C90.0876 64.1173 88.9701 60.8889 88.3423 59.0419C87.7142 57.1949 87.0008 55.1293 86.757 54.4518C85.8368 51.8953 82.7246 51.3855 80.9837 53.506C80.3213 54.3129 80.2749 56.5873 80.8751 58.8129C81.113 59.6943 81.1879 60.4157 81.0419 60.4157C80.8955 60.4157 78.9569 58.7818 76.7336 56.7849C71.5877 52.1625 70.5219 51.6261 68.5241 52.654ZM132.201 68.483C130.476 69.2441 129.7 71.7197 130.731 73.1717C132.025 74.9949 134.547 75.1579 135.953 73.5093C138.189 70.8869 135.356 67.0909 132.201 68.483ZM142.102 76.7378C141.049 77.1896 140.148 78.5616 140.149 79.7101C140.151 80.956 141.257 82.334 142.564 82.7205C144.656 83.3391 146.723 81.9024 146.723 79.8295C146.723 78.4849 146.019 77.2726 144.946 76.7701C143.714 76.1931 143.379 76.1895 142.102 76.7378ZM133.141 79.9317C132.037 80.5967 131.351 82.219 131.66 83.4352C131.771 83.8724 132.275 84.5734 132.78 84.9925C135.434 87.1955 139.431 84.2339 137.857 81.231C136.865 79.3388 134.987 78.8214 133.141 79.9317ZM79.3526 86.7199C77.6299 87.6547 77.111 89.9495 78.2617 91.5444C80.1214 94.1216 84.2889 93.0849 84.2889 90.0451C84.2889 89.4009 84.0881 88.504 83.8428 88.0518C83.0473 86.5852 80.8188 85.924 79.3526 86.7199ZM87.9846 89.8457C87.1725 90.6471 86.9327 91.1377 86.9327 91.998C86.9327 94.3146 88.376 95.8294 90.5832 95.8294C92.4541 95.8294 93.7393 94.5893 93.7393 92.7848C93.7393 90.4157 92.232 88.8078 90.0112 88.8078C89.3153 88.8078 88.7355 89.1048 87.9846 89.8457ZM288.324 94.5848C287.582 95.3165 287.419 95.7339 287.419 96.9047C287.419 98.1078 287.57 98.4711 288.38 99.2179C290.492 101.164 293.916 99.7292 293.916 96.898C293.916 94.0588 290.351 92.5842 288.324 94.5848ZM292.158 107.877C291.127 108.32 290.204 109.695 290.204 110.789C290.204 112.671 292.225 114.356 294.074 114.014C297.191 113.437 297.818 109.229 294.985 107.902C293.77 107.333 293.432 107.33 292.158 107.877ZM336.894 115.249C333.591 117.199 330.251 119.243 329.47 119.792C326.57 121.832 321.185 124.832 320.422 124.832C319.017 124.832 319.25 124.32 321.472 122.526C324.396 120.166 325.138 118.607 324.201 116.798C323.119 114.712 320.748 114.462 318.46 116.192C309.281 123.133 308.121 123.916 307.025 123.916C303.86 123.916 301.964 126.762 303.358 129.422C304.077 130.794 305.451 131.336 308.607 131.492C311.362 131.629 311.396 131.64 312.475 132.794C313.073 133.435 316.417 135.845 319.905 138.149C323.394 140.455 327.418 143.208 328.848 144.267C330.278 145.326 331.897 146.275 332.446 146.377C333.728 146.615 335.211 145.874 335.834 144.686C337.126 142.22 335.87 140.633 328.43 135.334C324.631 132.629 324.65 132.549 328.961 133.016C331.847 133.329 330.998 132.882 339.552 138.6C345.348 142.475 349.318 144.914 350.485 145.315C351.847 145.784 353.511 145.187 354.271 143.958C355.643 141.738 354.767 140.253 350.369 137.341C348.559 136.143 347.136 135.106 347.207 135.037C347.277 134.967 350.654 135.108 354.712 135.349C362.816 135.83 363.519 135.748 364.55 134.196C365.423 132.88 365.236 131.34 364.063 130.182C362.918 129.052 362.832 129.035 355.058 128.343C352.355 128.103 350.081 127.844 350.003 127.767C349.926 127.691 350.188 127.433 350.586 127.195C355.268 124.389 356.104 123.594 356.104 121.946C356.104 120.875 355.328 119.439 354.517 119.01C353.573 118.512 352.02 118.586 350.812 119.188C350.234 119.476 347.078 121.223 343.798 123.07L337.834 126.428L335.831 126.216C334.729 126.1 333.829 125.913 333.831 125.8C333.833 125.583 336.138 124.04 342.581 119.943C346.579 117.4 347.441 116.513 347.441 114.94C347.441 113.764 346.791 112.62 345.85 112.14C344.054 111.223 343.227 111.51 336.894 115.249ZM277.209 123.7C274.603 124.639 273.01 125.461 271.511 126.64C270.845 127.165 269.983 127.672 269.596 127.768C268.578 128.02 266.597 127.494 263.596 126.174C258.945 124.129 255.493 124.646 251.994 127.912C249.441 130.295 245.634 134.926 242.607 139.333C240.68 142.139 239.348 143.727 238.063 144.752C236.388 146.089 236.111 146.203 234.529 146.209C231.085 146.223 229.502 147.532 226.828 152.576C224.726 156.542 224.303 158.289 224.303 162.993C224.303 167.234 223.866 169.454 222.508 172.102C221.191 174.671 218.322 177.897 215.604 179.866C212.493 182.119 212.1 182.896 212.33 186.345C212.421 187.69 212.786 190.543 213.143 192.684L213.791 196.578L213.026 197.722C210.962 200.806 211.415 206.101 213.998 209.078C214.548 209.712 216.083 211.033 217.408 212.012C221.344 214.921 222.628 216.28 223.417 218.372C224.702 221.779 228.686 224.783 233.577 226.034C236.986 226.906 237.833 227.369 239.074 229.039C240.899 231.495 243.798 234.583 245.582 235.973C248.812 238.488 252.527 239.17 258.043 238.26L261.242 237.732L263.556 238.906C265.605 239.945 266.122 240.079 268.059 240.074C270.779 240.066 272.944 239.137 279.157 235.31C283.73 232.494 285.628 231.813 290.896 231.101C293.687 230.724 296.805 229.426 298.803 227.81C300.585 226.37 303.281 222.772 306.046 218.145C308.593 213.883 309.603 212.734 313.876 209.235C317.373 206.371 319.353 204.078 320.869 201.135C322.465 198.036 322.469 195.653 320.887 189.096C320.161 186.084 319.433 182.02 319.153 179.413C318.631 174.556 317.86 171.968 316.149 169.337C314.623 166.992 311.544 164.978 308.264 164.181C306.36 163.719 303.554 162.518 302.786 161.836C302.462 161.549 301.276 160.009 300.149 158.414C297.237 154.292 292.868 150.149 287.348 146.278C283.875 143.843 283.315 143.575 279.826 142.681C278.205 142.265 275.736 141.348 274.337 140.643C271.934 139.43 271.651 139.36 269.165 139.367C267.183 139.372 266.078 139.546 264.679 140.073C263.658 140.457 261.43 141.259 259.729 141.853C258.027 142.448 256.046 143.331 255.326 143.816C253.147 145.283 250.148 149.09 248.211 152.847L246.439 156.287L243.721 157.672C238.66 160.251 236.017 163.046 233.905 168.052C233.373 169.314 232.708 171.473 232.428 172.851C231.984 175.037 231.755 175.532 230.629 176.731C227.657 179.898 226.484 183.054 227.061 186.329C227.632 189.561 227.484 191.629 226.469 194.591C224.856 199.298 225.355 201.686 228.535 204.483C229.471 205.306 231.374 206.577 232.762 207.307C236.11 209.067 240.325 213.17 242.089 216.385C244.019 219.903 246.608 221.714 250.892 222.546C252.89 222.934 258.681 222.767 261.388 222.245C262.549 222.02 263.01 222.106 264.696 222.86C268.455 224.542 271.388 224.307 275.662 221.984C279.111 220.109 280.344 219.168 284.171 215.493C288.238 211.585 288.836 211.193 291.861 210.444C295.853 209.454 296.793 208.522 300.852 201.524C305.184 194.057 306.428 190.477 306.235 186.032C306.06 182.017 304.821 179.565 300.958 175.585C299.37 173.949 297.479 171.836 296.756 170.889C295.193 168.842 293.118 166.905 289.633 164.24C288.224 163.162 285.408 160.536 283.376 158.404C279.19 154.014 277.619 152.999 273.691 152.148C268.28 150.975 264.585 152.269 258.955 157.308C253.235 162.427 249.382 166.412 247.683 168.965C239.964 180.561 240.436 179.688 239.347 184.364C238.412 188.38 238.338 190.206 239.009 192.749C239.75 195.555 240.945 197.397 243.454 199.6C244.714 200.707 247.874 203.557 250.476 205.934C255.812 210.81 257.134 211.541 260.591 211.527C263.622 211.515 264.906 211.089 271.331 207.961C276.092 205.643 277.755 204.669 279.219 203.341C280.239 202.416 282.067 200.934 283.281 200.048C288.516 196.228 290.781 191.675 290.424 185.69C290.229 182.412 289.284 180.335 287.244 178.699C286.418 178.037 284.135 175.886 282.172 173.919C278.981 170.724 278.318 170.214 275.94 169.118C274.476 168.443 272.539 167.734 271.634 167.543C269.198 167.028 265.591 167.323 263.905 168.177C262.124 169.079 258.33 172.701 256.876 174.888C256.257 175.818 255.094 177.295 254.292 178.171C252.586 180.032 251.962 181.637 251.506 185.333C250.855 190.62 252.169 193.389 256.37 195.58C259.564 197.245 263.398 198.239 265.718 198.003C269.179 197.65 273.238 194.848 275.975 190.922C278.301 187.586 277.625 183.428 274.472 181.679C273.021 180.874 269.164 179.802 267.683 179.792C265.773 179.778 263.791 181.148 262.392 183.448C261.613 184.728 261.583 185.319 262.228 186.66C262.919 188.098 264.546 188.82 266.079 188.367C266.715 188.178 267.408 187.819 267.619 187.568C268.032 187.078 269.165 186.938 269.165 187.378C269.165 187.874 266.423 190.142 265.566 190.354C264.069 190.725 259.446 189.155 259.052 188.143C258.94 187.853 259.002 186.728 259.19 185.642C259.463 184.07 259.749 183.443 260.592 182.565C261.175 181.959 262.108 180.777 262.667 179.937C263.934 178.034 266.264 175.603 267.377 175.025C268.042 174.68 268.523 174.655 269.662 174.907C272.491 175.533 274.326 176.65 276.333 178.971C277.374 180.174 278.867 181.673 279.651 182.302C282.908 184.915 282.778 184.73 282.778 186.751C282.778 189.926 281.668 191.785 278.325 194.207C277.115 195.083 275.36 196.513 274.423 197.384C273.402 198.334 272.04 199.23 271.02 199.624C270.085 199.986 268.715 200.629 267.975 201.053C263.87 203.411 261.223 204.347 259.979 203.88C259.55 203.719 257.438 201.96 255.287 199.971C253.135 197.981 250.393 195.527 249.192 194.517C246.089 191.906 245.749 190.595 246.904 185.685C247.438 183.412 247.844 182.536 249.492 180.09C250.567 178.495 252.362 175.816 253.479 174.137C255.47 171.147 258.472 167.992 264.202 162.87C267.625 159.81 268.797 159.212 270.986 159.408C273.614 159.643 274.842 160.444 278.519 164.32C280.346 166.245 282.921 168.668 284.243 169.704C288.842 173.31 289.275 173.714 291.148 176.142C292.185 177.486 294.051 179.586 295.295 180.81C298.063 183.533 298.659 184.598 298.65 186.806C298.642 188.823 297.231 192.621 295.306 195.806C294.594 196.985 293.513 198.846 292.904 199.942C291.483 202.501 291.084 202.83 288.657 203.444C285.472 204.251 283.818 205.328 279.685 209.284C275.763 213.038 273.016 215.051 270.545 215.982L269.18 216.497L266.887 215.502C264.687 214.548 264.482 214.516 261.852 214.705C253.534 215.303 252.314 215.299 250.876 214.671C249.74 214.175 249.326 213.747 248.494 212.207C246.212 207.982 241.697 203.426 237.762 201.377C236.23 200.58 234.575 199.611 234.083 199.223L233.189 198.519L234.035 196.249C235.056 193.511 235.39 189.439 234.847 186.362C234.437 184.033 234.601 183.593 236.614 181.637C238.031 180.259 239.339 177.441 239.896 174.563C240.906 169.336 243.162 166.333 247.732 164.128C251.611 162.257 252.548 161.32 254.517 157.341C255.472 155.412 256.93 153.064 257.864 151.954L259.519 149.987L263.886 148.4C266.288 147.527 268.6 146.813 269.023 146.813C269.447 146.813 270.522 147.21 271.413 147.695C272.947 148.531 274.899 149.222 278.756 150.294C282.409 151.31 290.45 158.054 294.199 163.248C297.684 168.075 299.546 169.438 304.917 171.094C306.799 171.674 308.643 172.43 309.016 172.773C310.603 174.231 311.112 176.023 311.862 182.782C312.054 184.516 312.699 187.881 313.296 190.262C314.544 195.244 314.647 196.623 313.882 198.085C313.097 199.581 310.632 202.072 307.152 204.885C303.828 207.57 302.238 209.53 299.029 214.893C294.708 222.114 293.114 223.417 288.038 223.875C284.283 224.213 279.904 225.83 275.966 228.333C274.012 229.575 271.465 231.072 270.305 231.662L268.196 232.732L265.78 231.445C263.021 229.975 261.928 229.859 257.922 230.615C255.077 231.153 252.843 231.201 251.627 230.751C250.464 230.321 247.52 227.456 245.508 224.796C242.887 221.332 241.295 220.292 236.655 219.013C232.232 217.792 231.283 217.134 230.026 214.411C228.761 211.674 226.824 209.566 222.699 206.443C219.002 203.642 218.868 203.287 220.419 200.402C221.701 198.016 221.723 197.648 220.895 192.42C219.778 185.373 219.707 186.197 221.535 184.991C224.363 183.125 228.497 177.743 230.215 173.69C231.5 170.655 232.038 167.508 232.038 163.016V159.043L233.374 156.515L234.71 153.987L236.391 153.801C238.659 153.55 240.085 152.907 242.389 151.098C245.004 149.045 246.034 147.871 248.976 143.59C251.647 139.703 255.842 134.575 257.424 133.261C257.952 132.823 258.624 132.464 258.918 132.464C259.212 132.464 260.579 133.003 261.958 133.66C264.773 135.004 268.363 135.705 270.674 135.363C272.381 135.111 274.132 134.275 275.871 132.884C277.439 131.629 280.315 130.492 281.294 130.739C282.626 131.074 285.335 133.795 287.257 136.726C290.367 141.469 296.309 147.229 299.95 149.031C300.8 149.452 302.638 150.1 304.033 150.471C305.427 150.842 307.098 151.487 307.745 151.904C309.205 152.846 311.269 155.38 314.291 159.941C315.689 162.051 317.801 164.669 319.585 166.504C324.73 171.795 325.987 174.229 325.655 178.258C324.994 186.291 325.011 186.561 326.521 191.747C328.041 196.968 328.719 200.895 328.412 202.689C328.06 204.748 326.326 206.987 323.085 209.565C321.421 210.889 318.794 213.214 317.246 214.73C314.653 217.271 314.257 217.827 312.22 221.793C309.2 227.671 308.096 229.235 305.698 231.03C303.362 232.778 301.265 233.67 298.079 234.272C293.411 235.154 289.559 238.047 286.691 242.829C285.885 244.174 284.754 245.822 284.179 246.493C283.19 247.646 283.094 247.688 282.414 247.268C280.391 246.021 279.476 245.727 277.615 245.727C275.824 245.727 275.341 245.894 271.294 247.915L266.913 250.102L265.177 248.275C261.884 244.809 257.738 242.714 253.642 242.448C251.562 242.313 251.154 242.374 250.336 242.949C249.366 243.631 248.352 245.865 246.86 250.612C243.796 260.361 230.836 276.803 217.579 287.759C211.713 292.607 201.157 300.374 200.435 300.374C199.985 300.374 197.509 296.396 195.353 292.211C192.74 287.139 191.351 282.694 189.891 274.73C189.297 271.492 189.191 269.85 189.189 263.892C189.187 257.728 189.294 256.167 190.065 251.11C190.548 247.942 190.86 244.909 190.758 244.371C190.375 242.356 187.308 240.724 185.241 241.434C184.72 241.614 183.264 242.855 182.005 244.192C177.798 248.661 170.693 253.702 164.128 256.878C155.606 261.001 143.121 264.37 134.549 264.861L131.271 265.049L131.069 264.051C130.212 259.823 131.691 249.885 134.421 241.532C135.457 238.362 135.982 237.226 136.845 236.283C138.072 234.942 138.517 233.372 138.088 231.892C137.848 231.064 137.534 230.822 135.961 230.252C133.173 229.242 132.381 229.323 131.071 230.754C129.58 232.383 129.015 233.557 127.368 238.454C124.803 246.077 123.601 253.643 123.836 260.687C123.951 264.124 124.127 265.507 124.625 266.871C125.447 269.124 125.725 269.498 127.775 271.097C129.289 272.278 129.68 272.434 131.402 272.542C135.656 272.809 144.16 271.508 151.975 269.393C163.322 266.323 172.424 261.825 180.018 255.534C180.906 254.799 181.689 254.255 181.759 254.324C181.829 254.392 181.737 255.887 181.556 257.644C180.681 266.106 182.146 278.585 185.042 287.34C186.7 292.352 191.705 301.26 194.695 304.522C196.408 306.39 199.377 308.01 201.071 308C202.693 307.99 204.409 307.114 208.629 304.139C224.127 293.213 233.934 284.097 243.059 272.135C248.316 265.245 252.102 258.206 253.857 252.062C254.133 251.097 254.461 250.307 254.588 250.307C255.605 250.307 258.199 252.115 260.235 254.245C262.964 257.1 264.479 257.922 267.028 257.932C268.305 257.937 269.116 257.741 270.122 257.183C270.872 256.768 272.855 255.73 274.528 254.878L277.57 253.328L279.014 254.242C280.969 255.479 283.007 255.908 284.806 255.461C287.064 254.9 290.525 251.428 292.836 247.406C294.093 245.218 295.607 243.436 296.853 242.676C297.447 242.314 299.191 241.763 300.729 241.452C306.197 240.347 311.616 236.984 314.646 232.816C315.582 231.529 317.383 228.478 318.649 226.036C321.129 221.255 322.194 220.013 327.165 216.114C331.759 212.51 334.113 209.737 335.239 206.605C336.749 202.404 336.278 197.203 333.621 188.727C332.786 186.066 332.795 186.45 333.386 178.399C333.618 175.23 333.159 172.942 331.65 169.749C330.396 167.094 328.974 165.234 325.321 161.467C323.61 159.704 321.767 157.483 321.225 156.531C319.769 153.977 314.832 147.62 313.49 146.572C311.889 145.321 308.817 143.927 305.636 143.008C303.208 142.307 302.732 142.034 300.333 139.964C297.121 137.194 295.689 135.545 292.679 131.154C290.256 127.62 287.759 125.346 284.679 123.867C282.607 122.872 279.689 122.807 277.209 123.7ZM202.088 141.816C201.01 142.354 200.17 143.605 200.17 144.676C200.17 146.294 201.934 148.034 203.574 148.034C204.735 148.034 206.083 147.113 206.555 145.998C207.132 144.636 206.881 143.465 205.791 142.435C204.685 141.389 203.382 141.172 202.088 141.816ZM214.388 145.21C213.708 145.81 213.386 146.418 213.261 147.339C213.102 148.513 213.183 148.724 214.177 149.705C215.051 150.567 215.508 150.782 216.468 150.782C217.956 150.782 218.973 150.106 219.555 148.731C220.873 145.619 216.954 142.948 214.388 145.21ZM211.432 156.704C209.225 158.883 210.534 162.078 213.636 162.078C215.562 162.078 216.878 160.813 216.878 158.962C216.878 157.27 215.297 155.666 213.629 155.666C212.74 155.666 212.249 155.898 211.432 156.704ZM206.064 220.334C205.477 220.647 204.727 221.415 204.398 222.041C203.877 223.032 203.847 223.339 204.167 224.394C204.566 225.706 205.952 226.796 207.225 226.798C209.268 226.801 210.881 224.856 210.592 222.734C210.28 220.436 208.073 219.267 206.064 220.334ZM190.246 227.386C188.175 229.43 189.75 232.905 192.746 232.905C194.252 232.905 195.839 231.214 195.839 229.61C195.839 227.758 194.523 226.494 192.597 226.494C191.411 226.494 190.988 226.655 190.246 227.386ZM158.867 237.096C158.356 237.168 157.59 237.529 157.165 237.898C156.739 238.268 155.805 239.015 155.088 239.559L153.785 240.547L147.972 240.848C139.812 241.269 139.746 241.281 138.585 242.587C137.711 243.569 137.621 243.842 137.763 245.08C137.883 246.137 138.153 246.674 138.885 247.32C139.796 248.123 140.014 248.171 142.86 248.184L145.872 248.199L143.053 250.856C140.033 253.702 139.529 254.388 139.529 255.658C139.529 258.293 142.538 259.712 144.974 258.226C145.542 257.88 147.995 255.821 150.425 253.651C152.856 251.48 154.949 249.703 155.076 249.7C155.204 249.698 155.308 250.946 155.308 252.473C155.308 254.518 155.445 255.477 155.825 256.112C156.947 257.987 159.411 258.306 160.959 256.779C161.798 255.951 161.909 255.6 162.148 253.045C162.293 251.494 162.623 248.728 162.882 246.897C163.141 245.067 163.353 242.53 163.353 241.26C163.353 239.04 163.312 238.909 162.301 237.912C161.255 236.88 160.937 236.805 158.867 237.096ZM217.577 237.328C217.026 237.564 215.216 238.703 213.555 239.858C208.982 243.038 204.671 245.773 201.408 247.562C196.713 250.137 195.224 251.521 195.221 253.313C195.219 254.512 196.123 255.998 197.203 256.572C199.221 257.644 200.758 256.986 209.101 251.477C210.865 250.312 212.386 249.436 212.48 249.529C212.701 249.747 210.457 257.285 209.926 258.104C209.431 258.868 203.433 263.365 198.652 266.556C196.709 267.853 194.864 269.295 194.553 269.761C192.883 272.26 195.191 275.722 198.205 275.24C198.824 275.141 200.592 274.124 202.534 272.751C204.339 271.474 205.888 270.501 205.977 270.589C206.066 270.676 205.637 272.502 205.024 274.647C200.077 291.952 200.163 291.467 201.741 293.024C202.815 294.083 204.246 294.267 205.688 293.531C206.972 292.876 206.949 292.938 211.466 278.699C212.451 275.592 213.373 272.924 213.514 272.768C213.658 272.608 214.117 273.273 214.567 274.294C216.969 279.747 217.898 280.836 220.145 280.836C221.972 280.836 223.345 279.674 223.574 277.936C223.714 276.872 223.429 276.093 221.374 271.907C220.076 269.263 218.47 266.155 217.807 264.999L216.6 262.898L217.895 258.74C218.607 256.452 219.28 254.581 219.39 254.581C219.5 254.581 220.319 256.264 221.209 258.321C223.819 264.352 224.217 265.084 225.189 265.651C227.661 267.091 230.8 265.376 230.8 262.586C230.8 261.56 229.5 258.56 225.436 250.207L222.491 244.154L222.929 242.727C223.171 241.943 223.369 240.957 223.37 240.537C223.374 239.374 222.247 237.804 221.058 237.313C219.739 236.77 218.87 236.773 217.577 237.328Z" fill="#953736"/>
<path opacity="0.85" d="M51.0283 422H37.9717C35.0778 417.465 32.4574 413.546 30.1104 410.242C27.7861 406.938 25.2568 403.532 22.5225 400.022H17.5664V415.403C17.5664 416.201 17.6917 416.907 17.9424 417.522C18.193 418.115 18.7285 418.571 19.5488 418.89C19.959 419.049 20.6768 419.197 21.7021 419.334C22.7275 419.471 23.5934 419.55 24.2998 419.573V422H3.79199V419.573C4.33887 419.528 5.125 419.448 6.15039 419.334C7.19857 419.22 7.92773 419.072 8.33789 418.89C9.02148 418.593 9.51139 418.16 9.80762 417.591C10.1266 417.021 10.2861 416.292 10.2861 415.403V380.335C10.2861 379.537 10.1722 378.831 9.94434 378.216C9.71647 377.601 9.18099 377.133 8.33789 376.814C7.76823 376.609 7.02767 376.427 6.11621 376.268C5.20475 376.085 4.43001 375.971 3.79199 375.926V373.499H26.1797C28.2305 373.499 30.1559 373.715 31.9561 374.148C33.7562 374.559 35.3854 375.231 36.8438 376.165C38.2565 377.076 39.3844 378.273 40.2275 379.754C41.0706 381.212 41.4922 382.978 41.4922 385.052C41.4922 386.92 41.2074 388.572 40.6377 390.008C40.068 391.443 39.2249 392.685 38.1084 393.733C37.083 394.713 35.8525 395.568 34.417 396.297C32.9814 397.003 31.3978 397.607 29.666 398.108C32.0586 401.276 34.041 403.942 35.6133 406.106C37.2083 408.271 39.1566 410.903 41.458 414.002C42.4606 415.369 43.3607 416.383 44.1582 417.044C44.9785 417.682 45.7874 418.206 46.585 418.616C47.1774 418.912 47.918 419.14 48.8066 419.3C49.6953 419.459 50.4359 419.55 51.0283 419.573V422ZM33.0498 385.838C33.0498 382.898 32.2067 380.574 30.5205 378.865C28.8343 377.133 26.4531 376.268 23.377 376.268H17.5664V397.083H22.0439C25.1885 397.083 27.8089 396.08 29.9053 394.075C32.0016 392.047 33.0498 389.301 33.0498 385.838ZM92.1123 379.241C94.2542 381.474 95.929 384.174 97.1367 387.342C98.3444 390.486 98.9482 393.973 98.9482 397.801C98.9482 401.652 98.333 405.149 97.1025 408.294C95.8721 411.438 94.1631 414.116 91.9756 416.326C89.8564 418.514 87.3955 420.2 84.5928 421.385C81.79 422.57 78.805 423.162 75.6377 423.162C72.2653 423.162 69.1436 422.535 66.2725 421.282C63.4242 420.006 60.9746 418.24 58.9238 415.984C56.873 413.774 55.2552 411.097 54.0703 407.952C52.9082 404.785 52.3271 401.401 52.3271 397.801C52.3271 393.859 52.9424 390.35 54.1729 387.273C55.4033 384.174 57.1009 381.497 59.2656 379.241C61.4076 377.008 63.8913 375.299 66.7168 374.114C69.5651 372.929 72.5387 372.337 75.6377 372.337C78.8506 372.337 81.8812 372.941 84.7295 374.148C87.5778 375.356 90.0387 377.054 92.1123 379.241ZM87.0195 413.626C88.2956 411.552 89.2184 409.205 89.7881 406.585C90.3805 403.965 90.6768 401.036 90.6768 397.801C90.6768 394.474 90.3464 391.421 89.6855 388.641C89.0475 385.861 88.1019 383.491 86.8486 381.531C85.5954 379.594 84.0231 378.09 82.1318 377.02C80.2406 375.926 78.0758 375.379 75.6377 375.379C72.9033 375.379 70.5791 376.006 68.665 377.259C66.751 378.512 65.1901 380.187 63.9824 382.283C62.8431 384.288 61.9886 386.635 61.4189 389.324C60.8721 392.013 60.5986 394.839 60.5986 397.801C60.5986 401.082 60.8949 404.044 61.4873 406.688C62.0798 409.331 63.014 411.678 64.29 413.729C65.5205 415.734 67.07 417.306 68.9385 418.445C70.807 419.562 73.04 420.12 75.6377 420.12C78.0758 420.12 80.2747 419.55 82.2344 418.411C84.194 417.272 85.7891 415.677 87.0195 413.626ZM135.213 399.749C136.238 400.888 136.99 402.142 137.469 403.509C137.97 404.853 138.221 406.425 138.221 408.226C138.221 412.509 136.637 416.041 133.47 418.821C130.302 421.601 126.372 422.991 121.678 422.991C119.513 422.991 117.348 422.661 115.184 422C113.019 421.316 111.15 420.496 109.578 419.539L108.108 422.034H105.374L104.896 405.423H107.664C108.234 407.474 108.895 409.331 109.646 410.994C110.421 412.635 111.435 414.173 112.688 415.608C113.873 416.953 115.252 418.024 116.824 418.821C118.419 419.619 120.265 420.018 122.361 420.018C123.934 420.018 125.301 419.812 126.463 419.402C127.648 418.992 128.605 418.411 129.334 417.659C130.063 416.907 130.599 416.03 130.94 415.027C131.305 414.002 131.487 412.828 131.487 411.507C131.487 409.57 130.94 407.77 129.847 406.106C128.753 404.42 127.124 403.144 124.959 402.278C123.478 401.686 121.78 401.036 119.866 400.33C117.952 399.601 116.3 398.917 114.91 398.279C112.176 397.049 110.045 395.442 108.519 393.46C107.015 391.455 106.263 388.846 106.263 385.633C106.263 383.787 106.639 382.067 107.391 380.472C108.143 378.877 109.214 377.452 110.604 376.199C111.925 375.014 113.486 374.091 115.286 373.431C117.086 372.747 118.966 372.405 120.926 372.405C123.159 372.405 125.153 372.747 126.907 373.431C128.685 374.114 130.302 374.912 131.761 375.823L133.162 373.499H135.896L136.17 389.598H133.401C132.9 387.752 132.33 385.986 131.692 384.3C131.077 382.614 130.268 381.087 129.266 379.72C128.286 378.398 127.09 377.35 125.677 376.575C124.264 375.778 122.532 375.379 120.481 375.379C118.317 375.379 116.471 376.074 114.944 377.464C113.418 378.854 112.654 380.551 112.654 382.557C112.654 384.653 113.144 386.396 114.124 387.786C115.104 389.153 116.528 390.281 118.396 391.17C120.06 391.967 121.689 392.662 123.284 393.255C124.902 393.825 126.463 394.44 127.967 395.101C129.334 395.693 130.644 396.365 131.897 397.117C133.174 397.869 134.279 398.746 135.213 399.749ZM185.115 407.713L184.192 422H143.929V419.573C144.612 419.528 145.524 419.437 146.663 419.3C147.802 419.14 148.543 418.981 148.885 418.821C149.614 418.479 150.115 418.035 150.389 417.488C150.685 416.941 150.833 416.246 150.833 415.403V380.54C150.833 379.788 150.708 379.127 150.457 378.558C150.206 377.965 149.682 377.487 148.885 377.122C148.27 376.826 147.438 376.564 146.39 376.336C145.364 376.108 144.544 375.971 143.929 375.926V373.499H181.458V385.188H178.895C178.439 383.457 177.448 381.622 175.921 379.686C174.417 377.726 172.981 376.655 171.614 376.473C170.908 376.382 170.065 376.313 169.085 376.268C168.105 376.222 166.989 376.199 165.735 376.199H158.113V395.477H163.582C165.337 395.477 166.613 395.317 167.41 394.998C168.23 394.656 168.948 394.098 169.563 393.323C170.065 392.662 170.486 391.785 170.828 390.691C171.193 389.575 171.432 388.527 171.546 387.547H174.109V406.517H171.546C171.455 405.423 171.204 404.272 170.794 403.064C170.407 401.834 169.996 400.945 169.563 400.398C168.857 399.51 168.048 398.929 167.137 398.655C166.248 398.382 165.063 398.245 163.582 398.245H158.113V412.806C158.113 414.264 158.216 415.415 158.421 416.258C158.626 417.101 159.025 417.739 159.617 418.172C160.21 418.605 161.019 418.89 162.044 419.026C163.069 419.14 164.528 419.197 166.419 419.197C167.171 419.197 168.162 419.197 169.393 419.197C170.623 419.197 171.66 419.152 172.503 419.061C173.369 418.969 174.257 418.81 175.169 418.582C176.103 418.331 176.764 418.001 177.151 417.591C178.2 416.497 179.293 414.845 180.433 412.635C181.595 410.402 182.335 408.761 182.654 407.713H185.115ZM253.406 398.04C253.406 402.164 252.632 405.742 251.082 408.772C249.533 411.803 247.516 414.287 245.032 416.224C242.526 418.16 239.712 419.607 236.59 420.564C233.468 421.521 230.244 422 226.917 422H206.819V419.573C207.48 419.573 208.335 419.516 209.383 419.402C210.454 419.266 211.16 419.118 211.502 418.958C212.186 418.662 212.675 418.229 212.972 417.659C213.291 417.067 213.45 416.36 213.45 415.54V380.54C213.45 379.765 213.313 379.07 213.04 378.455C212.789 377.84 212.277 377.35 211.502 376.985C210.796 376.644 210.032 376.393 209.212 376.233C208.392 376.074 207.685 375.971 207.093 375.926V373.499H228.284C231.201 373.499 234.072 373.955 236.897 374.866C239.723 375.755 242.184 376.963 244.28 378.489C247.129 380.517 249.362 383.172 250.979 386.453C252.597 389.734 253.406 393.597 253.406 398.04ZM245.032 398.006C245.032 394.747 244.599 391.808 243.733 389.188C242.868 386.544 241.603 384.243 239.939 382.283C238.367 380.415 236.43 378.945 234.129 377.874C231.85 376.803 229.31 376.268 226.507 376.268C225.573 376.268 224.513 376.29 223.328 376.336C222.166 376.359 221.3 376.382 220.73 376.404V413.694C220.73 415.768 221.334 417.203 222.542 418.001C223.75 418.799 225.607 419.197 228.113 419.197C231.007 419.197 233.536 418.685 235.701 417.659C237.866 416.634 239.62 415.21 240.965 413.387C242.378 411.473 243.403 409.262 244.041 406.756C244.702 404.227 245.032 401.31 245.032 398.006ZM280.579 422H258.738V419.573C259.354 419.528 260.242 419.459 261.404 419.368C262.566 419.277 263.387 419.14 263.865 418.958C264.617 418.662 265.164 418.263 265.506 417.762C265.848 417.238 266.019 416.52 266.019 415.608V380.472C266.019 379.674 265.893 379.013 265.643 378.489C265.392 377.942 264.799 377.487 263.865 377.122C263.182 376.849 262.316 376.598 261.268 376.37C260.242 376.119 259.399 375.971 258.738 375.926V373.499H280.579V375.926C279.873 375.949 279.03 376.04 278.05 376.199C277.07 376.336 276.215 376.518 275.486 376.746C274.62 377.02 274.039 377.464 273.743 378.079C273.447 378.694 273.299 379.378 273.299 380.13V415.232C273.299 415.984 273.458 416.657 273.777 417.249C274.119 417.819 274.689 418.274 275.486 418.616C275.965 418.799 276.74 419.004 277.811 419.231C278.904 419.437 279.827 419.55 280.579 419.573V422ZM345.042 422H323.611V419.573C324.386 419.55 325.377 419.471 326.585 419.334C327.815 419.197 328.659 419.004 329.114 418.753C329.821 418.32 330.333 417.83 330.652 417.283C330.994 416.714 331.165 416.007 331.165 415.164V379.891H330.652L314.109 421.214H312.4L296.644 379.036H296.199V407.986C296.199 410.789 296.37 412.92 296.712 414.378C297.076 415.836 297.623 416.884 298.353 417.522C298.854 418.001 299.891 418.457 301.463 418.89C303.035 419.323 304.061 419.55 304.539 419.573V422H284.954V419.573C285.979 419.482 287.05 419.311 288.167 419.061C289.306 418.81 290.184 418.434 290.799 417.933C291.596 417.295 292.143 416.315 292.439 414.993C292.736 413.672 292.884 411.461 292.884 408.362V383.548C292.884 382.112 292.713 380.939 292.371 380.027C292.029 379.116 291.539 378.375 290.901 377.806C290.195 377.19 289.329 376.735 288.304 376.438C287.278 376.142 286.264 375.971 285.262 375.926V373.499H301.805L315.682 409.866L327.542 379.446C327.975 378.33 328.34 377.168 328.636 375.96C328.955 374.729 329.126 373.909 329.148 373.499H344.974V375.926C344.336 375.949 343.515 376.051 342.513 376.233C341.533 376.416 340.815 376.587 340.359 376.746C339.585 377.02 339.061 377.475 338.787 378.113C338.514 378.751 338.377 379.446 338.377 380.198V415.164C338.377 415.962 338.514 416.634 338.787 417.181C339.061 417.728 339.585 418.206 340.359 418.616C340.77 418.844 341.499 419.061 342.547 419.266C343.595 419.448 344.427 419.55 345.042 419.573V422ZM396.824 422H376.624V419.573C378.401 419.459 379.871 419.231 381.033 418.89C382.218 418.548 382.811 418.126 382.811 417.625C382.811 417.42 382.788 417.169 382.742 416.873C382.697 416.577 382.628 416.315 382.537 416.087L378.504 405.218H361.517C360.879 406.813 360.354 408.203 359.944 409.388C359.557 410.573 359.204 411.666 358.885 412.669C358.589 413.649 358.383 414.446 358.27 415.062C358.156 415.677 358.099 416.178 358.099 416.565C358.099 417.477 358.816 418.183 360.252 418.685C361.688 419.186 363.305 419.482 365.105 419.573V422H346.854V419.573C347.446 419.528 348.187 419.402 349.075 419.197C349.964 418.969 350.693 418.673 351.263 418.309C352.174 417.693 352.881 417.055 353.382 416.395C353.883 415.711 354.373 414.777 354.852 413.592C357.29 407.508 359.979 400.672 362.918 393.084C365.857 385.496 368.478 378.74 370.779 372.815H373.514L389.681 414.651C390.022 415.54 390.41 416.258 390.843 416.805C391.276 417.352 391.88 417.887 392.654 418.411C393.178 418.73 393.862 419.004 394.705 419.231C395.548 419.437 396.255 419.55 396.824 419.573V422ZM377.273 402.176L369.925 383.377L362.713 402.176H377.273ZM437.977 386.658H435.618C435.413 385.838 435.037 384.869 434.49 383.753C433.966 382.614 433.374 381.543 432.713 380.54C432.029 379.492 431.277 378.58 430.457 377.806C429.66 377.008 428.885 376.552 428.133 376.438C427.426 376.347 426.538 376.279 425.467 376.233C424.396 376.188 423.405 376.165 422.493 376.165H420.511V414.959C420.511 415.711 420.67 416.406 420.989 417.044C421.308 417.659 421.867 418.138 422.664 418.479C423.074 418.639 423.929 418.855 425.228 419.129C426.549 419.402 427.575 419.55 428.304 419.573V422H405.403V419.573C406.041 419.528 407.01 419.437 408.309 419.3C409.63 419.163 410.542 418.992 411.043 418.787C411.795 418.491 412.342 418.069 412.684 417.522C413.048 416.953 413.23 416.201 413.23 415.267V376.165H411.248C410.542 376.165 409.664 376.188 408.616 376.233C407.568 376.256 406.565 376.325 405.608 376.438C404.856 376.53 404.07 376.985 403.25 377.806C402.452 378.603 401.712 379.515 401.028 380.54C400.345 381.565 399.741 382.659 399.217 383.821C398.693 384.961 398.328 385.906 398.123 386.658H395.73V373.499H437.977V386.658Z" fill="#953736"/>
</svg>
