<svg width="16" height="14" viewBox="0 0 16 14" fill="none" xmlns="http://www.w3.org/2000/svg">
<path id="twitter" d="M16 2.03799C15.412 2.29932 14.7787 2.47532 14.1147 2.55532C14.7933 2.14865 15.312 1.50599 15.5587 0.739319C14.924 1.11532 14.2213 1.38865 13.4733 1.53532C12.876 0.896653 12.0213 0.497986 11.0787 0.497986C8.95867 0.497986 7.40133 2.47532 7.88 4.52865C5.15333 4.39132 2.73333 3.08465 1.11467 1.09932C0.254667 2.57399 0.669333 4.50465 2.13067 5.48199C1.59333 5.46465 1.088 5.31665 0.645333 5.07132C0.609333 6.59132 1.7 8.01399 3.27867 8.33132C2.81733 8.45665 2.31067 8.48599 1.796 8.38732C2.21333 9.69132 3.428 10.6393 4.86267 10.666C3.48 11.7487 1.74267 12.2327 0 12.0273C1.45333 12.9593 3.17733 13.502 5.03067 13.502C11.1267 13.502 14.5693 8.35399 14.3613 3.73665C15.004 3.27532 15.56 2.69665 16 2.03799V2.03799Z" fill="#D3736D"/>
</svg>
